<svg width="60" height="60" viewBox="0 0 60 60" fill="none" xmlns="http://www.w3.org/2000/svg">
<path d="M23.9131 14.6934C21.9408 16.348 20.4279 17.8644 19.3916 19.2461C18.3025 20.6982 17.6983 22.0527 17.6982 23.292C17.6982 23.8661 18.0806 24.3314 18.5703 24.6982C19.0733 25.075 19.7954 25.4301 20.7061 25.7725L20.7119 25.7744C23.3911 26.7405 25.1302 27.6435 26.0234 28.4668L26.0391 28.4805C27.8262 29.9947 28.7695 32.3996 28.7695 35.8145C28.7694 39.0296 27.5968 41.7706 25.2305 44.0625L25.2246 44.0684C22.9291 46.365 20.2244 47.5 17.0811 47.5C13.1993 47.5 10.1403 46.0712 7.85449 43.2139L7.84668 43.2051C5.62109 40.5501 4.5 37.2752 4.5 33.3535C4.50019 26.3556 10.3826 19.4425 22.6143 12.665L23.9131 14.6934ZM50.6143 14.7021C48.5819 16.3506 47.0226 17.862 45.9531 19.2393C44.8265 20.6902 44.1983 22.0473 44.1982 23.292C44.1982 23.8838 44.6215 24.3497 45.1406 24.709C45.6781 25.0809 46.4507 25.4323 47.4307 25.7725V25.7734C50.0318 26.7392 51.7427 27.6412 52.6328 28.4658L52.6348 28.4678C54.2824 29.9788 55.1562 32.388 55.1562 35.8145C55.1562 39.0431 54.0854 41.7875 51.9395 44.0752C49.649 46.3646 46.9104 47.5 43.6934 47.5C39.8103 47.5 36.7523 46.0711 34.4678 43.2139L34.4619 43.207L34.4551 43.1992L34.0381 42.6943C32.0166 40.1326 31.001 37.0266 31.001 33.3535C31.0012 26.3514 36.8933 19.4338 49.1367 12.6523L50.6143 14.7021Z" stroke="url(#paint0_linear_550_3507)"/>
<path d="M22.8799 12.1533C22.7762 12.2989 22.7148 12.478 22.7148 12.6709C22.7151 13.1603 23.1087 13.5566 23.5938 13.5566C23.6533 13.5566 23.7114 13.5505 23.7676 13.5391L24.5713 14.793C22.1781 16.7672 20.4583 18.5276 19.4131 20.0752C19.3269 19.9749 19.2015 19.9102 19.0596 19.9102C18.8099 19.9103 18.6069 20.1064 18.5918 20.3545C18.4316 20.1835 18.2057 20.0762 17.9541 20.0762C17.469 20.0763 17.0762 20.4733 17.0762 20.9629C17.0764 21.4523 17.4691 21.8485 17.9541 21.8486C18.2002 21.8486 18.4215 21.7456 18.5811 21.5811C18.3258 22.1915 18.1983 22.7618 18.1982 23.292C18.1982 23.9623 19.0957 24.6332 20.8818 25.3047C22.2532 25.7992 23.3994 26.2838 24.3223 26.7588C24.3196 26.7792 24.3164 26.8002 24.3164 26.8213C24.3166 27.083 24.5277 27.2949 24.7871 27.2949C24.9023 27.2948 25.0062 27.2512 25.0879 27.1816C25.6094 27.4916 26.0345 27.7965 26.3623 28.0986C26.6292 28.3248 26.8772 28.5696 27.1074 28.8311C26.9967 28.9793 26.9307 29.1633 26.9307 29.3633C26.9307 29.8528 27.3235 30.2498 27.8086 30.25C27.8976 30.25 27.9835 30.2358 28.0645 30.2109C28.4476 30.9192 28.7373 31.7154 28.9375 32.5996C28.8661 32.5806 28.7912 32.5704 28.7139 32.5703C28.2288 32.5703 27.8352 32.9666 27.835 33.4561C27.835 33.9457 28.2286 34.3428 28.7139 34.3428C28.7217 34.3428 28.7295 34.341 28.7373 34.3408C28.8162 34.4015 28.9136 34.4394 29.0205 34.4395C29.0877 34.4395 29.1511 34.4231 29.209 34.3975C29.213 34.4449 29.2191 34.4922 29.2227 34.54C29.2136 34.5395 29.2045 34.5381 29.1953 34.5381C28.9358 34.5381 28.7246 34.7508 28.7246 35.0127C28.7246 35.2746 28.9358 35.4873 29.1953 35.4873C29.2183 35.4873 29.2406 35.4827 29.2627 35.4795C29.2647 35.5901 29.2695 35.702 29.2695 35.8145C29.2695 36.5057 29.2158 37.1761 29.1113 37.8262C28.9063 37.8771 28.7539 38.0635 28.7539 38.2861C28.7539 38.3854 28.7843 38.4776 28.8359 38.5537C28.7312 38.5092 28.6159 38.4844 28.4951 38.4844C28.01 38.4844 27.6164 38.8816 27.6162 39.3711C27.6162 39.8423 27.9805 40.2265 28.4404 40.2549C27.8271 41.778 26.8733 43.1675 25.5781 44.4219C24.2624 45.7382 22.8104 46.6876 21.2236 47.2773C21.3228 47.1338 21.3828 46.9598 21.3828 46.7715C21.3826 46.3338 21.0677 45.9705 20.6543 45.8984C20.5686 45.8068 20.4482 45.748 20.3135 45.748C20.0671 45.7481 19.8674 45.9401 19.8477 46.1836C19.7097 46.3401 19.6251 46.5456 19.625 46.7715C19.625 47.153 19.8643 47.4775 20.1992 47.6025C19.209 47.8653 18.1702 48 17.0811 48C13.9399 48 11.297 47.0917 9.15332 45.2744C9.15466 45.2598 9.1582 45.2454 9.1582 45.2305C9.1582 44.9686 8.94803 44.7559 8.68848 44.7559C8.65538 44.7559 8.62296 44.7591 8.5918 44.7656C8.19761 44.3858 7.82127 43.9731 7.46387 43.5264C5.15349 40.7704 4 37.3776 4 33.3535C4.00001 32.8131 4.03343 32.274 4.10059 31.7363C4.55747 31.7048 4.91895 31.3216 4.91895 30.8525C4.91877 30.5013 4.71557 30.1981 4.42188 30.0547C4.77364 28.6854 5.34553 27.3255 6.1377 25.9746C6.25894 26.0383 6.39682 26.0752 6.54297 26.0752C7.02798 26.075 7.42076 25.6779 7.4209 25.1885C7.4209 24.9095 7.29338 24.6606 7.09375 24.498C7.42081 24.0368 7.77341 23.5763 8.15234 23.1172C8.2385 23.2248 8.36881 23.2949 8.5166 23.2949C8.77612 23.2949 8.98633 23.0822 8.98633 22.8203C8.98618 22.6468 8.89286 22.4966 8.75488 22.4141C9.40679 21.6777 10.1271 20.9456 10.9131 20.2148C11.0628 20.3343 11.2513 20.4062 11.457 20.4062C11.6585 20.4062 11.843 20.3367 11.9912 20.2217C12.0664 20.2428 12.1457 20.2549 12.2275 20.2549C12.3378 20.2548 12.4428 20.2337 12.54 20.1963C12.6032 20.3829 12.7771 20.5176 12.9834 20.5176C13.2429 20.5175 13.4531 20.3048 13.4531 20.043C13.4529 19.8144 13.2925 19.6237 13.0791 19.5791C13.0954 19.5117 13.1054 19.4416 13.1055 19.3691C13.1055 19.064 12.9532 18.7943 12.7207 18.6348C14.6224 17.0694 16.8343 15.516 19.3584 13.9766C19.3667 14.0643 19.398 14.1447 19.4473 14.2119C19.2958 14.2907 19.1914 14.4491 19.1914 14.6328C19.1915 14.8945 19.4019 15.1062 19.6611 15.1064C19.9206 15.1064 20.1317 14.8946 20.1318 14.6328C20.1318 14.6303 20.1309 14.6275 20.1309 14.625C20.2912 14.6229 20.4314 14.5405 20.5146 14.415C20.5221 14.4152 20.5296 14.417 20.5371 14.417C21.0223 14.4169 21.416 14.0199 21.416 13.5303C21.416 13.2887 21.3194 13.0701 21.1641 12.9102C21.293 12.836 21.4213 12.7596 21.5518 12.6855C21.6836 12.672 21.7973 12.6053 21.874 12.5049C22.1731 12.3367 22.4756 12.1679 22.7822 12L22.8799 12.1533ZM49.6641 12.5283C49.5821 12.5028 49.4945 12.4893 49.4043 12.4893C48.9193 12.4894 48.5265 12.8866 48.5264 13.376C48.5264 13.8655 48.9192 14.2625 49.4043 14.2627C49.8861 14.2627 50.2767 13.8716 50.2822 13.3867L51.2959 14.793C50.9344 15.081 50.5886 15.3656 50.2568 15.6445C50.2449 15.6436 50.2329 15.6416 50.2207 15.6416C49.976 15.6416 49.7771 15.8303 49.7549 16.0713C48.4412 17.2097 47.3838 18.27 46.582 19.252C46.5269 19.052 46.3475 18.9044 46.1318 18.9043C45.8723 18.9043 45.6611 19.117 45.6611 19.3789C45.6613 19.6358 45.8644 19.8429 46.1172 19.8506C45.171 21.1417 44.6983 22.2888 44.6982 23.292C44.6982 23.9623 45.667 24.6332 47.6055 25.3047C50.2139 26.2732 52.0054 27.2025 52.9727 28.0986C53.3084 28.4066 53.612 28.7478 53.8848 29.1211C53.714 29.2828 53.6074 29.5126 53.6074 29.7676C53.6074 30.2571 54.0003 30.6541 54.4854 30.6543C54.5711 30.6543 54.654 30.6403 54.7324 30.6172C55.3465 32.03 55.6562 33.7616 55.6562 35.8145C55.6562 38.9173 54.6977 41.6041 52.7822 43.877C52.7206 43.8631 52.6565 43.8555 52.5908 43.8555C52.1056 43.8556 51.7119 44.2526 51.7119 44.7422C51.7119 44.8139 51.7214 44.8834 51.7373 44.9502C50.4509 46.1023 49.0345 46.9292 47.4834 47.4277C47.493 47.3751 47.5 47.3211 47.5 47.2656C47.5 46.776 47.1063 46.3789 46.6211 46.3789C46.1359 46.3789 45.7422 46.776 45.7422 47.2656C45.7422 47.2866 45.7437 47.3075 45.7451 47.3281C45.6531 47.3321 45.568 47.3613 45.4971 47.4111C45.446 47.3919 45.3908 47.3799 45.333 47.3799C45.0736 47.38 44.8633 47.5927 44.8633 47.8545C44.8633 47.8862 44.8662 47.9173 44.8721 47.9473C44.486 47.9811 44.0932 48 43.6934 48C42.9632 48 42.2602 47.9496 41.584 47.8516C41.6207 47.784 41.6436 47.7075 41.6436 47.625C41.6434 47.3632 41.4333 47.1514 41.1738 47.1514C41.0208 47.1514 40.8856 47.2255 40.7998 47.3398C40.7276 47.288 40.6476 47.2468 40.5615 47.2188C40.5604 46.9786 40.3826 46.7828 40.1523 46.7529C40.4617 46.6157 40.6787 46.3052 40.6787 45.9424C40.6787 45.4527 40.285 45.0557 39.7998 45.0557C39.3146 45.0557 38.9209 45.4527 38.9209 45.9424C38.9209 46.432 39.3146 46.8291 39.7998 46.8291C39.81 46.8291 39.82 46.8275 39.8301 46.8271C39.7047 46.9122 39.6222 47.0568 39.6221 47.2207C39.6221 47.2915 39.6384 47.3586 39.666 47.4189C38.7838 47.1433 37.9557 46.7702 37.1816 46.2979C37.3189 46.1415 37.4032 45.9372 37.4033 45.7119C37.4033 45.5208 37.3431 45.344 37.2412 45.1992C37.1828 45.0493 37.0522 44.9365 36.8916 44.9062C36.7801 44.8545 36.6562 44.8252 36.5254 44.8252C36.1989 44.8252 35.9142 45.0048 35.7627 45.2715C35.1617 44.7613 34.5995 44.1797 34.0771 43.5264C31.6908 40.7704 30.501 37.3775 30.501 33.3535C30.501 32.0527 30.6968 30.7602 31.0859 29.4756C31.2191 29.4654 31.3431 29.4248 31.4531 29.3613C31.5824 29.3183 31.6879 29.2233 31.7402 29.0977C31.827 28.9716 31.8815 28.8221 31.8936 28.6602C32.0441 28.7824 32.2351 28.8564 32.4434 28.8564C32.9285 28.8564 33.3222 28.4593 33.3223 27.9697C33.3223 27.4801 32.9286 27.0831 32.4434 27.083C32.2695 27.083 32.1071 27.1337 31.9707 27.2217C33.0077 25.0805 34.5961 22.9646 36.7305 20.8691C36.7305 20.8744 36.7313 20.8796 36.7314 20.8848C36.5632 21.0463 36.458 21.2745 36.458 21.5273C36.458 22.0169 36.8517 22.414 37.3369 22.4141C37.8221 22.4141 38.2158 22.017 38.2158 21.5273C38.2158 21.383 38.1798 21.2474 38.1191 21.127C38.2271 21.0401 38.2979 20.908 38.2979 20.7578C38.2977 20.4961 38.0875 20.2843 37.8281 20.2842C37.6759 20.2842 37.541 20.3574 37.4551 20.4707C37.3867 20.426 37.3064 20.4 37.2197 20.3965C37.6301 20.0092 38.0588 19.6221 38.5068 19.2363C38.593 19.3414 38.7215 19.4101 38.8672 19.4102C39.1267 19.4102 39.3369 19.1975 39.3369 18.9355C39.3369 18.8197 39.294 18.7152 39.2256 18.6328C41.9433 16.396 45.2954 14.1841 49.2832 12L49.6641 12.5283ZM15.5166 46.7334C15.2571 46.7335 15.0469 46.9462 15.0469 47.208C15.0469 47.4699 15.2571 47.6826 15.5166 47.6826C15.7762 47.6826 15.9863 47.4699 15.9863 47.208C15.9863 46.9461 15.7761 46.7334 15.5166 46.7334ZM14.501 43.7969C14.1447 43.7969 13.8381 44.0108 13.7002 44.3184C13.5785 44.387 13.4737 44.4832 13.3965 44.5996C13.3401 44.5754 13.278 44.5616 13.2129 44.5615C12.9534 44.5615 12.7422 44.7743 12.7422 45.0361C12.7422 45.298 12.9533 45.5107 13.2129 45.5107C13.2582 45.5107 13.3013 45.5014 13.3428 45.4893C13.487 45.7796 13.7841 45.9794 14.1279 45.9795C14.4838 45.9795 14.7886 45.765 14.9268 45.458C15.1964 45.3067 15.3788 45.017 15.3789 44.6836C15.3789 44.194 14.9861 43.797 14.501 43.7969ZM18.8838 43.1201C18.6288 43.1202 18.4222 43.3255 18.415 43.5811C18.4083 43.5808 18.4014 43.5801 18.3945 43.5801C18.1351 43.5802 17.9249 43.792 17.9248 44.0537C17.9248 44.0675 17.9276 44.0812 17.9287 44.0947C17.8647 43.9097 17.6925 43.7764 17.4873 43.7764C17.2279 43.7764 17.0178 43.9883 17.0176 44.25C17.0176 44.5119 17.2278 44.7246 17.4873 44.7246C17.7468 44.7245 17.957 44.5119 17.957 44.25C17.957 44.2358 17.9534 44.2219 17.9521 44.208C18.0157 44.3939 18.1887 44.5282 18.3945 44.5283C18.5787 44.5283 18.7364 44.4203 18.8135 44.2646C18.8504 44.4894 19.0432 44.6611 19.2764 44.6611C19.5357 44.6609 19.7461 44.4483 19.7461 44.1865C19.746 43.945 19.5664 43.7482 19.335 43.7188C19.3457 43.679 19.3535 43.6379 19.3535 43.5947C19.3535 43.3328 19.1433 43.1201 18.8838 43.1201ZM38.3779 43.6611C38.1185 43.6611 37.9074 43.873 37.9072 44.1348C37.9072 44.3967 38.1184 44.6094 38.3779 44.6094C38.6373 44.6092 38.8477 44.3965 38.8477 44.1348C38.8475 43.8731 38.6372 43.6614 38.3779 43.6611ZM45.8564 41.2139C45.3713 41.2139 44.9775 41.611 44.9775 42.1006C44.9776 42.4774 45.2116 42.7974 45.54 42.9258C45.3746 43.087 45.2715 43.3131 45.2715 43.5635C45.2715 44.0531 45.6651 44.4502 46.1504 44.4502C46.5162 44.4502 46.8287 44.2241 46.9609 43.9033C47.4317 43.8867 47.8086 43.4977 47.8086 43.0186C47.8086 42.5289 47.4149 42.1318 46.9297 42.1318C46.9067 42.1318 46.8839 42.133 46.8613 42.1348C46.8249 42.0886 46.7812 42.0493 46.7305 42.0195C46.6899 41.5679 46.3146 41.2139 45.8564 41.2139ZM13.3799 42.8154C13.1204 42.8156 12.9102 43.0282 12.9102 43.29C12.9104 43.5517 13.1206 43.7635 13.3799 43.7637C13.6393 43.7637 13.8494 43.5518 13.8496 43.29C13.8496 43.0281 13.6394 42.8154 13.3799 42.8154ZM36.8994 42.6016C36.64 42.6017 36.4297 42.8144 36.4297 43.0762C36.4299 43.3378 36.6401 43.5496 36.8994 43.5498C37.1588 43.5498 37.3699 43.3379 37.3701 43.0762C37.3701 42.8143 37.159 42.6016 36.8994 42.6016ZM35.5078 41.1211C35.2483 41.1211 35.0381 41.3338 35.0381 41.5957C35.0383 41.8575 35.2484 42.0693 35.5078 42.0693C35.7672 42.0693 35.9774 41.8574 35.9775 41.5957C35.9775 41.3338 35.7673 41.1212 35.5078 41.1211ZM24.0703 40.8447C23.8109 40.8447 23.6008 41.0566 23.6006 41.3184C23.6006 41.5803 23.8108 41.793 24.0703 41.793C24.3298 41.7929 24.54 41.5802 24.54 41.3184C24.5399 41.0567 24.3297 40.8448 24.0703 40.8447ZM7.46973 39.9697C7.21028 39.9699 7 40.1825 7 40.4443C7.00006 40.7061 7.21032 40.9188 7.46973 40.9189C7.72924 40.9189 7.93939 40.7062 7.93945 40.4443C7.93945 40.1824 7.72928 39.9697 7.46973 39.9697ZM47.5088 38.917C47.1324 38.9171 46.8115 39.1564 46.6865 39.4922C46.428 39.4933 46.2188 39.7056 46.2188 39.9668C46.2188 40.2286 46.4291 40.4403 46.6885 40.4404C46.7507 40.4404 46.8099 40.4275 46.8643 40.4053C47.0247 40.5804 47.2538 40.6904 47.5088 40.6904C47.994 40.6904 48.3877 40.2934 48.3877 39.8037C48.3876 39.3141 47.994 38.917 47.5088 38.917ZM35.2422 38.0527C34.9826 38.0527 34.7715 38.2654 34.7715 38.5273C34.7715 38.6491 34.8188 38.7588 34.8936 38.8428C34.6412 38.9986 34.4727 39.2793 34.4727 39.5996C34.4729 40.0891 34.8665 40.4854 35.3516 40.4854C35.8365 40.4852 36.2293 40.089 36.2295 39.5996C36.2295 39.2142 35.9859 38.8869 35.6455 38.7646C35.6861 38.6945 35.7119 38.6144 35.7119 38.5273C35.7119 38.2656 35.5015 38.053 35.2422 38.0527ZM8.78613 37.5244C8.52665 37.5244 8.31652 37.7362 8.31641 37.998C8.31641 38.2436 8.50129 38.4425 8.73828 38.4668C8.57525 38.5412 8.46191 38.7071 8.46191 38.8994C8.46198 38.9926 8.48912 39.0791 8.53516 39.1523C8.50778 39.2125 8.49223 39.2791 8.49219 39.3496C8.49219 39.6115 8.70236 39.8242 8.96191 39.8242C9.22146 39.8242 9.43164 39.6115 9.43164 39.3496C9.43159 39.2562 9.40364 39.1701 9.35742 39.0967C9.38492 39.0365 9.40132 38.9701 9.40137 38.8994C9.40137 38.6535 9.216 38.4535 8.97852 38.4297C9.14179 38.3554 9.25586 38.1905 9.25586 37.998C9.25575 37.7363 9.04554 37.5245 8.78613 37.5244ZM12.9209 38.7783C12.6617 38.7785 12.4514 38.9904 12.4512 39.252C12.4512 39.5138 12.6615 39.7264 12.9209 39.7266C13.1805 39.7266 13.3916 39.5139 13.3916 39.252C13.3914 38.9902 13.1803 38.7783 12.9209 38.7783ZM38.8906 38.7607C38.6311 38.7607 38.4199 38.9734 38.4199 39.2354C38.42 39.4972 38.6311 39.709 38.8906 39.709C39.15 39.7088 39.3602 39.4971 39.3604 39.2354C39.3604 38.9735 39.1501 38.7609 38.8906 38.7607ZM21.71 37.3799C21.5184 37.3799 21.3535 37.4953 21.2803 37.6611C21.1758 37.7207 21.0967 37.8184 21.0615 37.9365C21.0087 37.9265 20.9542 37.9209 20.8984 37.9209C20.4132 37.9209 20.0195 38.318 20.0195 38.8076C20.0196 39.2972 20.4133 39.6943 20.8984 39.6943C21.3836 39.6943 21.7772 39.2972 21.7773 38.8076C21.7773 38.6975 21.7561 38.5924 21.7197 38.4951C21.8168 38.446 21.8942 38.3652 21.9385 38.2646C22.0815 38.1833 22.1797 38.031 22.1797 37.8535C22.1795 37.5918 21.9693 37.38 21.71 37.3799ZM24.9209 38.4971C24.6614 38.4971 24.4503 38.7089 24.4502 38.9707C24.4502 39.2326 24.6613 39.4453 24.9209 39.4453C25.1803 39.4451 25.3906 39.2325 25.3906 38.9707C25.3905 38.709 25.1802 38.4972 24.9209 38.4971ZM17.5312 37.9521C17.2719 37.9523 17.0617 38.1641 17.0615 38.4258C17.0615 38.4497 17.065 38.4732 17.0684 38.4961C16.8582 38.5433 16.7013 38.7327 16.7012 38.959C16.7012 39.2209 16.9114 39.4335 17.1709 39.4336C17.4305 39.4336 17.6406 39.2209 17.6406 38.959C17.6406 38.9347 17.6373 38.911 17.6338 38.8877C17.844 38.8405 18.001 38.6521 18.001 38.4258C18.0008 38.164 17.7907 37.9521 17.5312 37.9521ZM44.7354 38.2119C44.4759 38.2119 44.2658 38.4238 44.2656 38.6855C44.2656 38.9475 44.4758 39.1602 44.7354 39.1602C44.9948 39.1601 45.2051 38.9474 45.2051 38.6855C45.2049 38.4238 44.9947 38.212 44.7354 38.2119ZM33.4902 37.9297C33.2307 37.9297 33.0205 38.1424 33.0205 38.4043C33.0208 38.666 33.2308 38.8779 33.4902 38.8779C33.7496 38.8779 33.9597 38.666 33.96 38.4043C33.96 38.1424 33.7498 37.9297 33.4902 37.9297ZM42.084 37.4111C41.8244 37.4111 41.6133 37.6238 41.6133 37.8857C41.6135 38.1474 41.8246 38.3594 42.084 38.3594C42.3432 38.3591 42.5535 38.1473 42.5537 37.8857C42.5537 37.624 42.3433 37.4114 42.084 37.4111ZM28.1689 36.5254C27.6839 36.5255 27.2912 36.9227 27.291 37.4121C27.291 37.9017 27.6838 38.2987 28.1689 38.2988C28.6542 38.2988 29.0479 37.9018 29.0479 37.4121C29.0476 36.9226 28.6541 36.5254 28.1689 36.5254ZM24.3711 36.2432C23.8858 36.2432 23.4922 36.6402 23.4922 37.1299C23.4923 37.6194 23.8859 38.0166 24.3711 38.0166C24.856 38.0163 25.2489 37.6193 25.249 37.1299C25.249 36.6404 24.8561 36.2434 24.3711 36.2432ZM7.62598 36.9951C7.36662 36.9953 7.15625 37.208 7.15625 37.4697C7.15635 37.7314 7.36668 37.9431 7.62598 37.9434C7.88546 37.9434 8.09658 37.7316 8.09668 37.4697C8.09668 37.2078 7.88553 36.9951 7.62598 36.9951ZM6.16211 36.0547C5.67697 36.0547 5.28338 36.4519 5.2832 36.9414C5.2832 37.4311 5.67686 37.8281 6.16211 37.8281C6.64726 37.828 7.04004 37.431 7.04004 36.9414C7.03986 36.452 6.64715 36.0548 6.16211 36.0547ZM38.4814 35.998C38.2219 35.998 38.0117 36.2107 38.0117 36.4727C38.0118 36.6744 38.1374 36.8447 38.3135 36.9131C38.2244 36.9994 38.1689 37.1204 38.1689 37.2549C38.1689 37.5168 38.3791 37.7295 38.6387 37.7295C38.8347 37.7294 39.0018 37.6076 39.0723 37.4355C39.3238 37.4266 39.5252 37.2199 39.5254 36.9639C39.5254 36.702 39.3151 36.4894 39.0557 36.4893C39.0184 36.4893 38.9821 36.4946 38.9473 36.5029C38.9479 36.4929 38.9512 36.4829 38.9512 36.4727C38.9512 36.2108 38.741 35.9981 38.4814 35.998ZM49.2139 36.5449C48.9545 36.5451 48.7442 36.7568 48.7441 37.0186C48.7441 37.2804 48.9544 37.493 49.2139 37.4932C49.4734 37.4932 49.6846 37.2805 49.6846 37.0186C49.6845 36.7567 49.4734 36.5449 49.2139 36.5449ZM15.5156 36.2148C15.2562 36.215 15.0459 36.4276 15.0459 36.6895C15.0461 36.9512 15.2563 37.163 15.5156 37.1631C15.7751 37.1631 15.9852 36.9512 15.9854 36.6895C15.9854 36.4275 15.7752 36.2148 15.5156 36.2148ZM53.75 35.1143C53.2648 35.1143 52.8711 35.5113 52.8711 36.001C52.8712 36.4905 53.2648 36.8877 53.75 36.8877C54.2351 36.8877 54.6288 36.4905 54.6289 36.001C54.6289 35.5113 54.2352 35.1143 53.75 35.1143ZM9.00586 34.2637C8.52061 34.2637 8.12695 34.6607 8.12695 35.1504C8.12696 35.1851 8.12896 35.2193 8.13281 35.2529C8.12665 35.2524 8.12049 35.2523 8.11426 35.252C8.03853 35.0925 7.8783 34.9814 7.69141 34.9814C7.43196 34.9816 7.22168 35.1942 7.22168 35.4561C7.2217 35.7096 7.41895 35.9148 7.66699 35.9277C7.74268 36.0872 7.90288 36.1982 8.08984 36.1982C8.2901 36.1982 8.45876 36.0707 8.52637 35.8926C8.66425 35.9834 8.82893 36.0371 9.00586 36.0371C9.49086 36.0369 9.88366 35.6398 9.88379 35.1504C9.88379 34.6609 9.49094 34.2639 9.00586 34.2637ZM50.8232 35.084C50.5637 35.084 50.3535 35.2967 50.3535 35.5586C50.3537 35.8203 50.5638 36.0322 50.8232 36.0322C51.0827 36.0322 51.2928 35.8204 51.293 35.5586C51.293 35.2967 51.0828 35.084 50.8232 35.084ZM39.3652 34.7695C39.1057 34.7696 38.8955 34.9823 38.8955 35.2441C38.8956 35.5059 39.1058 35.7177 39.3652 35.7178C39.6247 35.7178 39.8349 35.506 39.835 35.2441C39.835 34.9822 39.6248 34.7695 39.3652 34.7695ZM32.8623 34.6602C32.6028 34.6602 32.3926 34.8729 32.3926 35.1348C32.3927 35.3965 32.6029 35.6084 32.8623 35.6084C33.1218 35.6084 33.3319 35.3965 33.332 35.1348C33.332 34.8729 33.1219 34.6602 32.8623 34.6602ZM45.7334 34.624C45.4739 34.6241 45.2637 34.8368 45.2637 35.0986C45.2638 35.3604 45.474 35.5722 45.7334 35.5723C45.9929 35.5723 46.203 35.3604 46.2031 35.0986C46.2031 34.8367 45.993 34.624 45.7334 34.624ZM47.998 34.5791C47.7385 34.5791 47.5273 34.7918 47.5273 35.0537C47.5274 35.3156 47.7385 35.5283 47.998 35.5283C48.2574 35.5281 48.4677 35.3155 48.4678 35.0537C48.4678 34.7919 48.2575 34.5793 47.998 34.5791ZM25.1318 34.2363C24.8723 34.2363 24.6621 34.449 24.6621 34.7109C24.6621 34.9729 24.8723 35.1855 25.1318 35.1855C25.3913 35.1855 25.6016 34.9728 25.6016 34.7109C25.6016 34.4491 25.3913 34.2364 25.1318 34.2363ZM40.2949 33.2529C39.8097 33.2529 39.416 33.65 39.416 34.1396C39.4161 34.6293 39.8097 35.0264 40.2949 35.0264C40.78 35.0262 41.1728 34.6291 41.1729 34.1396C41.1729 33.6501 40.78 33.2531 40.2949 33.2529ZM21.21 33.123C20.7249 33.1232 20.3321 33.5202 20.332 34.0098C20.332 34.4993 20.7248 34.8963 21.21 34.8965C21.6952 34.8965 22.0889 34.4994 22.0889 34.0098C22.0888 33.5202 21.6952 33.123 21.21 33.123ZM51.3301 33.5059C51.0707 33.5061 50.8604 33.7187 50.8604 33.9805C50.8604 34.2422 51.0708 34.4539 51.3301 34.4541C51.5896 34.4541 51.8007 34.2423 51.8008 33.9805C51.8008 33.7186 51.5896 33.5059 51.3301 33.5059ZM26.9893 33.3389C26.7297 33.3389 26.5186 33.5516 26.5186 33.8135C26.5186 34.0754 26.7297 34.2881 26.9893 34.2881C27.2487 34.2879 27.459 34.0753 27.459 33.8135C27.459 33.5517 27.2487 33.339 26.9893 33.3389ZM17.249 33.2393C16.9897 33.2395 16.7794 33.4512 16.7793 33.7129C16.7793 33.9747 16.9896 34.1873 17.249 34.1875C17.5086 34.1875 17.7197 33.9748 17.7197 33.7129C17.7197 33.451 17.5085 33.2393 17.249 33.2393ZM42.7031 32.7354C42.4437 32.7355 42.2334 32.9482 42.2334 33.21C42.2335 33.4716 42.4438 33.6834 42.7031 33.6836C42.9626 33.6836 43.1737 33.4718 43.1738 33.21C43.1738 32.948 42.9627 32.7354 42.7031 32.7354ZM44.9238 31.8125C44.4386 31.8125 44.0449 32.2096 44.0449 32.6992C44.0451 33.1887 44.4387 33.585 44.9238 33.585C45.4088 33.5848 45.8015 33.1886 45.8018 32.6992C45.8018 32.2097 45.4089 31.8127 44.9238 31.8125ZM18.7705 32.2803C18.511 32.2803 18.3008 32.493 18.3008 32.7549C18.3009 33.0167 18.511 33.2285 18.7705 33.2285C19.0299 33.2284 19.2402 33.0167 19.2402 32.7549C19.2402 32.493 19.03 32.2803 18.7705 32.2803ZM46.4336 32.1973C46.174 32.1973 45.9639 32.41 45.9639 32.6719C45.9641 32.9336 46.1742 33.1455 46.4336 33.1455C46.6929 33.1455 46.9031 32.9335 46.9033 32.6719C46.9033 32.41 46.6931 32.1973 46.4336 32.1973ZM12.6895 31.8086C12.4299 31.8086 12.2197 32.0213 12.2197 32.2832C12.2199 32.5449 12.43 32.7568 12.6895 32.7568C12.9488 32.7568 13.159 32.5449 13.1592 32.2832C13.1592 32.0213 12.949 31.8086 12.6895 31.8086ZM47.4424 31.791C47.1829 31.7911 46.9727 32.0037 46.9727 32.2656C46.9727 32.5275 47.1829 32.7402 47.4424 32.7402C47.7019 32.7402 47.9121 32.5275 47.9121 32.2656C47.9121 32.0037 47.7019 31.791 47.4424 31.791ZM35.5068 31.7402C35.2474 31.7402 35.0363 31.9521 35.0361 32.2139C35.0361 32.4758 35.2473 32.6885 35.5068 32.6885C35.7662 32.6882 35.9766 32.4756 35.9766 32.2139C35.9764 31.9522 35.7661 31.7405 35.5068 31.7402ZM25.2988 31.6709C25.0394 31.6709 24.8283 31.8827 24.8281 32.1445C24.8281 32.4064 25.0393 32.6191 25.2988 32.6191C25.5582 32.619 25.7686 32.4063 25.7686 32.1445C25.7684 31.8829 25.5581 31.6711 25.2988 31.6709ZM37.9824 30.9697C37.7229 30.9697 37.5128 31.1815 37.5127 31.4434C37.5127 31.7053 37.7229 31.918 37.9824 31.918C38.2419 31.9179 38.4521 31.7052 38.4521 31.4434C38.452 31.1816 38.2419 30.9698 37.9824 30.9697ZM16.1143 29.9824C15.9262 29.9825 15.7645 30.0938 15.6895 30.2549C15.4743 30.4165 15.335 30.6753 15.335 30.9668C15.335 31.4564 15.7287 31.8535 16.2139 31.8535C16.6989 31.8533 17.0917 31.4563 17.0918 30.9668C17.0918 30.5528 16.8108 30.206 16.4307 30.1084C16.347 30.0309 16.2368 29.9824 16.1143 29.9824ZM44.0215 30.6367C43.7621 30.6369 43.5518 30.8495 43.5518 31.1113C43.552 31.3729 43.7623 31.5848 44.0215 31.585C44.2809 31.585 44.4919 31.373 44.4922 31.1113C44.4922 30.8494 44.281 30.6367 44.0215 30.6367ZM12.7305 30.5723C12.4709 30.5723 12.2607 30.785 12.2607 31.0469C12.261 31.3086 12.4711 31.5205 12.7305 31.5205C12.9899 31.5205 13.2 31.3086 13.2002 31.0469C13.2002 30.785 12.99 30.5723 12.7305 30.5723ZM17.2979 29.2949C17.0384 29.295 16.8281 29.5077 16.8281 29.7695C16.8282 30.0247 17.028 30.2307 17.2783 30.2412C17.2601 30.3123 17.25 30.387 17.25 30.4639C17.2501 30.9535 17.6437 31.3506 18.1289 31.3506C18.614 31.3504 19.0068 30.9534 19.0068 30.4639C19.0068 29.9743 18.614 29.5773 18.1289 29.5771C17.9951 29.5771 17.8684 29.6081 17.7549 29.6621C17.7066 29.452 17.5208 29.2949 17.2979 29.2949ZM49.2236 30.4004C48.9643 30.4005 48.7541 30.6124 48.7539 30.874C48.7539 31.1359 48.9642 31.3485 49.2236 31.3486C49.4832 31.3486 49.6934 31.1359 49.6934 30.874C49.6931 30.6123 49.483 30.4004 49.2236 30.4004ZM22.626 30.043C22.3666 30.043 22.1565 30.2549 22.1562 30.5166C22.1562 30.7785 22.3664 30.9912 22.626 30.9912C22.8855 30.9911 23.0957 30.7785 23.0957 30.5166C23.0955 30.2549 22.8853 30.043 22.626 30.043ZM8.46191 29.9199C8.20236 29.9199 7.99219 30.1326 7.99219 30.3945C7.99225 30.6564 8.2024 30.8682 8.46191 30.8682C8.72135 30.8681 8.93157 30.6563 8.93164 30.3945C8.93164 30.1327 8.72139 29.92 8.46191 29.9199ZM23.6504 29.7734C23.3908 29.7734 23.1807 29.9861 23.1807 30.248C23.1807 30.51 23.3908 30.7227 23.6504 30.7227C23.9099 30.7226 24.1201 30.5099 24.1201 30.248C24.1201 29.9862 23.9099 29.7735 23.6504 29.7734ZM6.25293 28.6826C5.76768 28.6826 5.37402 29.0797 5.37402 29.5693C5.37427 30.0588 5.76783 30.4551 6.25293 30.4551C6.738 30.455 7.13159 30.0588 7.13184 29.5693C7.13184 29.0797 6.73815 28.6826 6.25293 28.6826ZM42.7539 26.7061C42.2688 26.7061 41.8752 27.1023 41.875 27.5918C41.875 28.0815 42.2687 28.4785 42.7539 28.4785C42.7595 28.4785 42.765 28.4776 42.7705 28.4775C42.71 28.5978 42.6758 28.7338 42.6758 28.8779C42.6758 29.0974 42.7549 29.2983 42.8857 29.4531C42.7326 29.5313 42.627 29.6909 42.627 29.876C42.6271 30.1376 42.8374 30.3494 43.0967 30.3496C43.3561 30.3496 43.5672 30.1378 43.5674 29.876C43.5674 29.8373 43.5614 29.7997 43.5527 29.7637L43.5537 29.7646C43.9222 29.7646 44.2367 29.5355 44.3672 29.2109C44.6232 29.2068 44.8291 28.9966 44.8291 28.7373C44.829 28.6516 44.8051 28.5723 44.7656 28.5029C44.97 28.4516 45.1219 28.267 45.1221 28.0449C45.1221 27.7831 44.9118 27.5704 44.6523 27.5703C44.3928 27.5703 44.1826 27.783 44.1826 28.0449C44.1827 28.1301 44.2061 28.2092 44.2451 28.2783C44.2332 28.2813 44.2215 28.2851 44.21 28.2891C44.049 28.1068 43.8146 27.9922 43.5537 27.9922C43.5478 27.9922 43.542 27.9921 43.5361 27.9922C43.5966 27.8718 43.6318 27.736 43.6318 27.5918C43.6316 27.1024 43.2389 26.7062 42.7539 26.7061ZM36.8213 28.2383C36.562 28.2385 36.3517 28.4502 36.3516 28.7119C36.3516 28.9737 36.5619 29.1863 36.8213 29.1865C36.8248 29.1865 36.8286 29.1846 36.832 29.1846C36.7992 29.2493 36.7803 29.3227 36.7803 29.4004C36.7805 29.6621 36.9906 29.874 37.25 29.874C37.5094 29.874 37.7195 29.6621 37.7197 29.4004C37.7197 29.1385 37.5095 28.9258 37.25 28.9258C37.2461 28.9258 37.2421 28.9267 37.2383 28.9268C37.2711 28.8621 37.292 28.7896 37.292 28.7119C37.2919 28.4501 37.0808 28.2383 36.8213 28.2383ZM47.0254 28.8545C46.7659 28.8546 46.5557 29.0672 46.5557 29.3291C46.5557 29.5909 46.7659 29.8036 47.0254 29.8037C47.2849 29.8037 47.4951 29.591 47.4951 29.3291C47.4951 29.0672 47.2849 28.8545 47.0254 28.8545ZM20.5137 28.5742C20.2541 28.5742 20.043 28.7869 20.043 29.0488C20.0432 29.3105 20.2543 29.5225 20.5137 29.5225C20.7729 29.5222 20.9832 29.3104 20.9834 29.0488C20.9834 28.7871 20.773 28.5745 20.5137 28.5742ZM13.7637 28.5391C13.5041 28.5391 13.2939 28.7518 13.2939 29.0137C13.2941 29.2755 13.5042 29.4873 13.7637 29.4873C14.0232 29.4873 14.2333 29.2755 14.2334 29.0137C14.2334 28.7518 14.0232 28.5391 13.7637 28.5391ZM22.4658 28.376C22.2063 28.376 21.9961 28.5887 21.9961 28.8506C21.9963 29.1124 22.2064 29.3242 22.4658 29.3242C22.7252 29.3242 22.9354 29.1123 22.9355 28.8506C22.9355 28.5887 22.7253 28.376 22.4658 28.376ZM12.2637 27.334C11.7785 27.3341 11.3849 27.7312 11.3848 28.2207C11.3848 28.7103 11.7785 29.1073 12.2637 29.1074C12.7489 29.1074 13.1426 28.7104 13.1426 28.2207C13.1425 27.7311 12.7489 27.334 12.2637 27.334ZM15.9141 26.9639C15.4289 26.9639 15.0352 27.3609 15.0352 27.8506C15.0352 28.3402 15.4289 28.7373 15.9141 28.7373C16.3993 28.7373 16.7929 28.3402 16.793 27.8506C16.793 27.3609 16.3993 26.9639 15.9141 26.9639ZM17.4531 26.9521C17.1937 26.9521 16.9837 27.1641 16.9834 27.4258C16.9834 27.6877 17.1936 27.9004 17.4531 27.9004C17.7126 27.9003 17.9229 27.6877 17.9229 27.4258C17.9226 27.1641 17.7125 26.9522 17.4531 26.9521ZM7.84961 26.7197C7.59006 26.7197 7.37988 26.9324 7.37988 27.1943C7.38014 27.456 7.59021 27.668 7.84961 27.668C8.109 27.668 8.31908 27.456 8.31934 27.1943C8.31934 26.9324 8.10916 26.7197 7.84961 26.7197ZM21.0371 26.5801C20.7778 26.5802 20.5675 26.792 20.5674 27.0537C20.5674 27.3155 20.7777 27.5282 21.0371 27.5283C21.2967 27.5283 21.5068 27.3156 21.5068 27.0537C21.5067 26.7919 21.2966 26.5801 21.0371 26.5801ZM36.9727 26.4229C36.7134 26.4231 36.5031 26.6349 36.5029 26.8965C36.5029 27.1583 36.7133 27.3709 36.9727 27.3711C37.2322 27.3711 37.4434 27.1584 37.4434 26.8965C37.4432 26.6347 37.2321 26.4229 36.9727 26.4229ZM47.0859 26.1201C46.8264 26.1201 46.6163 26.3319 46.6162 26.5938C46.6162 26.8557 46.8264 27.0684 47.0859 27.0684C47.3454 27.0683 47.5557 26.8556 47.5557 26.5938C47.5556 26.3319 47.3454 26.1202 47.0859 26.1201ZM19.7236 25.9688C19.4643 25.969 19.2539 26.1816 19.2539 26.4434C19.2542 26.7049 19.4644 26.9168 19.7236 26.917C19.983 26.917 20.1941 26.7051 20.1943 26.4434C20.1943 26.1814 19.9832 25.9688 19.7236 25.9688ZM13.2012 25.9453C12.942 25.9455 12.7317 26.1574 12.7314 26.4189C12.7314 26.6565 12.9051 26.8511 13.1309 26.8857C13.1755 26.8999 13.2223 26.9102 13.2715 26.9102C13.531 26.9101 13.7412 26.6974 13.7412 26.4355C13.741 26.1977 13.5672 26.0028 13.3408 25.9688C13.2966 25.9549 13.2499 25.9453 13.2012 25.9453ZM44.6865 25.3477C44.427 25.3477 44.2159 25.5595 44.2158 25.8213C44.2158 25.8898 44.231 25.9549 44.2568 26.0137C44.1907 25.9778 44.1155 25.9561 44.0352 25.9561C43.7759 25.9563 43.5656 26.168 43.5654 26.4297C43.5654 26.6915 43.7758 26.9041 44.0352 26.9043C44.2947 26.9043 44.5059 26.6916 44.5059 26.4297C44.5058 26.361 44.4899 26.2962 44.4639 26.2373C44.5303 26.2735 44.6057 26.2959 44.6865 26.2959C44.9459 26.2957 45.1562 26.0831 45.1562 25.8213C45.1561 25.5596 44.9458 25.3479 44.6865 25.3477ZM16.6943 25.668C16.435 25.6682 16.2246 25.8808 16.2246 26.1426C16.2249 26.4041 16.4351 26.616 16.6943 26.6162C16.9537 26.6162 17.1648 26.4043 17.165 26.1426C17.165 25.8807 16.9539 25.668 16.6943 25.668ZM33.9248 24.9941C33.6654 24.9941 33.4543 25.206 33.4541 25.4678C33.4541 25.7297 33.6653 25.9424 33.9248 25.9424C34.1842 25.9422 34.3945 25.7296 34.3945 25.4678C34.3944 25.2061 34.1841 24.9943 33.9248 24.9941ZM13.2441 23.6055C12.7589 23.6055 12.3653 24.0026 12.3652 24.4922C12.3652 24.9819 12.7589 25.3789 13.2441 25.3789C13.7292 25.3787 14.1221 24.9817 14.1221 24.4922C14.122 24.0027 13.7292 23.6057 13.2441 23.6055ZM43.0361 23.3115C42.5511 23.3118 42.1583 23.7088 42.1582 24.1982C42.1582 24.6878 42.5511 25.0847 43.0361 25.085C43.5214 25.085 43.915 24.6879 43.915 24.1982C43.915 23.7086 43.5213 23.3115 43.0361 23.3115ZM8.20215 23.4805C7.94279 23.4806 7.73256 23.6924 7.73242 23.9541C7.73242 24.2159 7.9427 24.4286 8.20215 24.4287C8.4617 24.4287 8.67188 24.216 8.67188 23.9541C8.67174 23.6923 8.46162 23.4805 8.20215 23.4805ZM10.7881 22.4629C10.3031 22.4631 9.91024 22.8601 9.91016 23.3496C9.91016 23.8392 10.303 24.2361 10.7881 24.2363C11.2733 24.2363 11.667 23.8393 11.667 23.3496C11.6669 22.86 11.2733 22.4629 10.7881 22.4629ZM38.2451 23.1367C37.9856 23.1367 37.7754 23.3494 37.7754 23.6113C37.7754 23.8732 37.9856 24.0859 38.2451 24.0859C38.5046 24.0859 38.7148 23.8732 38.7148 23.6113C38.7148 23.3494 38.5046 23.1368 38.2451 23.1367ZM15.5137 21.627C15.2541 21.627 15.043 21.8396 15.043 22.1016C15.0431 22.3634 15.2542 22.5752 15.5137 22.5752C15.773 22.575 15.9833 22.3633 15.9834 22.1016C15.9834 21.8398 15.7731 21.6271 15.5137 21.627ZM40.3789 20.6338C40.1195 20.6339 39.9092 20.8466 39.9092 21.1084C39.9093 21.3701 40.1195 21.5819 40.3789 21.582C40.6384 21.582 40.8495 21.3702 40.8496 21.1084C40.8496 20.8465 40.6385 20.6338 40.3789 20.6338ZM12.3975 20.4893C12.1562 20.4893 11.9594 20.6729 11.9326 20.9092C11.8736 20.7156 11.6975 20.5744 11.4863 20.5742C11.2269 20.5742 11.0158 20.7861 11.0156 21.0479C11.0156 21.3098 11.2268 21.5225 11.4863 21.5225C11.728 21.5222 11.9242 21.3375 11.9502 21.1006C12.0087 21.2952 12.1854 21.4375 12.3975 21.4375C12.6569 21.4375 12.867 21.2256 12.8672 20.9639C12.8672 20.702 12.657 20.4893 12.3975 20.4893ZM41.6533 20.4883C41.3939 20.4883 41.1838 20.7002 41.1836 20.9619C41.1836 21.2238 41.3938 21.4365 41.6533 21.4365C41.9128 21.4364 42.123 21.2238 42.123 20.9619C42.1229 20.7002 41.9127 20.4884 41.6533 20.4883ZM18.8154 20.7871C18.8542 20.8111 18.8963 20.829 18.9414 20.8408C18.9022 20.9117 18.8643 20.9819 18.8281 21.0518C18.831 21.0225 18.833 20.9929 18.833 20.9629C18.833 20.9029 18.8267 20.8438 18.8154 20.7871ZM38.709 19.6963C38.4496 19.6964 38.2394 19.9082 38.2393 20.1699C38.2393 20.4317 38.4496 20.6444 38.709 20.6445C38.9685 20.6445 39.1797 20.4318 39.1797 20.1699C39.1796 19.9081 38.9685 19.6963 38.709 19.6963ZM45.415 17.1689C44.9299 17.1689 44.5362 17.5661 44.5361 18.0557C44.5361 18.5453 44.9298 18.9424 45.415 18.9424C45.9001 18.9422 46.293 18.5452 46.293 18.0557C46.2929 17.5662 45.9 17.1692 45.415 17.1689ZM16.8506 17.4902C16.5911 17.4902 16.38 17.7021 16.3799 17.9639C16.3799 18.2037 16.5571 18.3999 16.7861 18.4316C16.7995 18.6814 17.0031 18.8798 17.2539 18.8799C17.5135 18.8799 17.7236 18.6672 17.7236 18.4053C17.7234 18.1653 17.5468 17.9688 17.3174 17.9375C17.3037 17.6881 17.1011 17.4904 16.8506 17.4902ZM23.0625 14.6338C22.8029 14.6338 22.5928 14.8465 22.5928 15.1084C22.5928 15.3703 22.803 15.583 23.0625 15.583C23.322 15.5829 23.5322 15.3702 23.5322 15.1084C23.5322 14.8465 23.322 14.6339 23.0625 14.6338Z" fill="#E5E5E5"/>
<defs>
<linearGradient id="paint0_linear_550_3507" x1="29.828" y1="12" x2="53" y2="51.5" gradientUnits="userSpaceOnUse">
<stop stop-color="#DFE1E4" stop-opacity="0"/>
<stop offset="1" stop-color="white"/>
</linearGradient>
</defs>
</svg>
