<?xml version="1.0" encoding="UTF-8"?>
<svg id="Layer_1" xmlns="http://www.w3.org/2000/svg" version="1.1" viewBox="0 0 1920 382.1">
  <!-- Generator: Adobe Illustrator 30.4.0, SVG Export Plug-In . SVG Version: 2.1.4 Build 226)  -->
  <defs>
    <style>
      .st0 {
        fill: #437f9e;
      }

      .st1 {
        isolation: isolate;
      }

      .st2 {
        fill: #447f9e;
      }

      .st3 {
        fill: #f0dda3;
      }
    </style>
  </defs>
  <g class="st1">
    <g id="cov_logoMark">
      <g>
        <g id="logoGroup">
          <path class="st2" d="M904.6,122.3l-12.5,29,55.8-.9v8.4l-19.5,3.5,35.9,106.6,38.7-106.2-19.6-2.9v-8.4l52.2-1h.2l-28.2-47.6c-1.7-2.8-5-4.3-8.2-3.6l-89.2,18.7c-.6.1-1.2.3-1.8.6-1.6.8-3,2.2-3.7,3.9h0Z"/>
          <path class="st2" d="M888.3,159.9l-18.1,41.7c-.8,1.9-.8,4.1,0,6.1l34.2,80.1c1.1,2.6,3.5,4.4,6.3,4.6l43.1,4.4-44.5-134.1-21-2.8h0Z"/>
          <path class="st2" d="M1059.9,191l-20.1-33.9h-.2s-20.7,4.9-20.7,4.9l-45.8,136.8,22.5,2.3c1.5.1,2.9-.1,4.2-.8,1.3-.7,2.5-1.7,3.3-3.1l56.8-98.4c1.4-2.4,1.4-5.4,0-7.8h0Z"/>
          <polygon class="st3" points="973.1 298.8 1018.9 161.9 1039.6 157.1 1035.6 150.3 983.4 151.2 983.4 159.6 1003 162.6 964.3 268.8 928.4 162.2 947.9 158.7 947.9 150.3 892 151.2 888.3 159.9 909.3 162.7 953.8 296.8 973.1 298.8"/>
        </g>
        <g class="st1">
          <g class="st1">
            <path class="st0" d="M1283.1,297.8l-68.5-177.4,10.7,7.1-29.4-7.1v-20.3l95.7-1.4v20.3l-31.7,7.9,5.5-9.9,49.5,145.5h-6.5l54-143.3,3.6,7.9-29.4-6.8v-20.3l86.3-1.4v20.3l-29.1,7.6,10.7-7.1-72.1,178.3h-49.1Z"/>
          </g>
        </g>
        <g class="st1">
          <g class="st1">
            <path class="st0" d="M1489.3,105.3c19,0,33.9,4.9,44.6,14.8,10.7,9.9,16,23.9,16,42.1s-2.6,23.6-7.7,32.7c-5.2,9.1-12.6,16.1-22.3,21.1-9.7,4.9-21.3,7.4-34.9,7.4s-33.8-4.9-44.2-14.8c-10.4-9.9-15.6-23.9-15.6-42.1s2.5-23.6,7.6-32.7c5.1-9.1,12.4-16.1,21.9-21.1,9.5-4.9,21.1-7.4,34.6-7.4ZM1487.6,126.4c-9.2,0-16.1,3.1-20.6,9.4-4.5,6.3-6.8,16-6.8,29.1s2.2,22.6,6.5,28.5c4.4,5.9,11,8.8,19.9,8.8s11.7-1.4,15.7-4.2c4-2.8,7.1-7.1,9.2-12.9,2.1-5.8,3.1-12.9,3.1-21.4,0-12.8-2.3-22.3-6.8-28.3-4.5-6-11.3-9-20.3-9Z"/>
            <path class="st0" d="M1602.4,203.5l-2.4-2.5,18.6,4.7v15.2h-66.3v-15.2l18.6-4.7-2.4,2.5v-77.3l2.2,1.9-18.4-4.4v-15.2l50.1-1.5v96.5ZM1584.5,90.4c-6,0-10.8-1.5-14.4-4.4-3.6-3-5.4-7.2-5.4-12.7s1.9-10.3,5.7-13.2c3.8-2.9,8.6-4.3,14.4-4.3s10.3,1.4,14,4.3c3.7,2.9,5.6,7.2,5.6,13s-1.9,10.1-5.7,13c-3.8,2.9-8.5,4.3-14.2,4.3Z"/>
          </g>
          <g class="st1">
            <path class="st0" d="M1676.2,223.4c-11.1,0-21.2-2.3-30.1-6.9-9-4.6-16-11.2-21.2-19.8-5.2-8.6-7.7-19.1-7.7-31.3s1.9-20.5,5.6-28.2c3.7-7.6,8.7-13.8,15-18.5,6.3-4.7,13.3-8.1,21.1-10.3s15.7-3.2,24-3.2,15.6.8,23.5,2.5c7.9,1.7,14.4,3.6,19.4,5.7l-1,31.1h-21.8l-3.6-17.4,2.7,1.7c-2.4-.8-5.4-1.5-8.8-1.9-3.5-.4-6.7-.6-9.6-.6-6.9,0-12.7,1.5-17.3,4.6-4.6,3-8,7.3-10.3,12.9-2.3,5.6-3.4,12.2-3.4,19.8s1.3,15.1,3.9,20.7c2.6,5.6,6.3,9.9,11,12.8,4.8,2.9,10.3,4.3,16.6,4.3s10.5-.9,16.5-2.8c6-1.8,12.2-4.6,18.6-8.3l11.4,15c-9,6.1-18.1,10.6-27.1,13.4-9,2.9-18.1,4.3-27.1,4.3Z"/>
          </g>
          <g class="st1">
            <path class="st0" d="M1785.5,223.4c-11.8,0-22.1-2.2-30.9-6.5-8.8-4.3-15.7-10.7-20.7-19.2-5-8.5-7.5-18.9-7.5-31.3s2.6-23.6,7.9-32.8c5.2-9.2,12.6-16.2,22.2-21.1,9.5-4.9,20.7-7.3,33.7-7.3s22.8,2.2,30.8,6.6c7.9,4.4,13.7,10.3,17.4,17.9,3.7,7.6,5.6,16.1,5.6,25.5s-.1,4.8-.4,7.1c-.2,2.3-.6,4.9-1.1,7.7h-88.6v-17.6h59.6l-4.4,2.8c.2-5.6-.4-10.6-1.7-14.9-1.3-4.3-3.6-7.7-6.8-10.1-3.2-2.4-7.7-3.6-13.3-3.6s-11.1,1.6-15,4.8c-3.9,3.2-6.6,7.4-8.2,12.8-1.6,5.4-2.4,11.3-2.4,17.8s1,14.4,3,20.3c2,5.9,5.4,10.6,10.3,14,4.8,3.4,11.1,5.1,18.9,5.1s11-.9,17.4-2.6c6.5-1.8,13.1-4.4,19.9-7.9l11.6,15.9c-9.5,5.6-19.1,9.8-28.8,12.6-9.7,2.8-19.1,4.1-28.3,4.1Z"/>
          </g>
        </g>
        <g class="st1">
          <g class="st1">
            <path class="st0" d="M1068.5,215.7v-15.2l19.4-4.9-3.1,3.2v-78.5l3.1,3.2h-20.1v-15.9l20.8-4.7-3.9,4.4v-13.5c0-15.1,4.6-26.3,13.8-33.6,9.2-7.3,21.6-10.9,37-10.9s9.2.4,13.9,1.1c4.8.7,9.9,1.7,15.4,3l-4.8,19.7c-3.1-.8-6.2-1.5-9.4-2-3.2-.5-6.3-.7-9.2-.7-6.6,0-12.1,1.6-16.3,4.8-4.3,3.2-6.4,8.6-6.4,16.2v16.1l-4.4-3.6h34.6l-.7,19.7h-32.9l3.4-3.2v78.5l-3.1-3.2,22.5,4.9v15.2h-69.5Z"/>
          </g>
        </g>
        <g class="st1">
          <g class="st1">
            <path class="st0" d="M319.3,99c19,0,33.8,4.9,44.4,14.8,10.6,9.9,15.9,23.9,15.9,42.1s-2.6,23.6-7.7,32.7c-5.2,9.1-12.5,16.1-22.2,21.1s-21.2,7.4-34.8,7.4-33.7-4.9-44-14.8c-10.4-9.9-15.6-23.9-15.6-42.1s2.5-23.6,7.6-32.7c5.1-9.1,12.3-16.1,21.8-21.1,9.5-4.9,21-7.4,34.5-7.4ZM317.6,120.2c-9.2,0-16,3.1-20.5,9.4-4.5,6.3-6.8,16-6.8,29.1s2.2,22.6,6.5,28.5c4.3,5.9,10.9,8.8,19.8,8.8s11.7-1.4,15.7-4.2c4-2.8,7.1-7.1,9.2-12.9,2.1-5.8,3.1-12.9,3.1-21.4,0-12.8-2.3-22.3-6.8-28.3-4.5-6-11.3-9-20.3-9Z"/>
            <path class="st0" d="M429.6,197.3l-2.7-2.5,18.6,4.7v15.2h-65.9v-15.2l18.6-4.7-2.4,2.5V69.2l2.2,2.1-18.3-4.4v-15.2l50-1.7v147.3Z"/>
            <path class="st0" d="M509.2,99c19,0,33.8,4.9,44.4,14.8,10.6,9.9,15.9,23.9,15.9,42.1s-2.6,23.6-7.7,32.7c-5.2,9.1-12.5,16.1-22.2,21.1s-21.2,7.4-34.8,7.4-33.7-4.9-44-14.8c-10.4-9.9-15.6-23.9-15.6-42.1s2.5-23.6,7.6-32.7c5.1-9.1,12.3-16.1,21.8-21.1,9.5-4.9,21-7.4,34.5-7.4ZM507.5,120.2c-9.2,0-16,3.1-20.5,9.4-4.5,6.3-6.8,16-6.8,29.1s2.2,22.6,6.5,28.5c4.3,5.9,10.9,8.8,19.8,8.8s11.7-1.4,15.7-4.2c4-2.8,7.1-7.1,9.2-12.9,2.1-5.8,3.1-12.9,3.1-21.4,0-12.8-2.3-22.3-6.8-28.3-4.5-6-11.3-9-20.3-9Z"/>
          </g>
          <g class="st1">
            <path class="st0" d="M572,214.6v-15.2l20.3-5.1-4.1,4.2v-80.7l4.1,4.9-20.3-5.3v-15.2l42.5-1.7,4.3,20.3-4.3-1.5c7.7-6.9,15.9-12,24.6-15.3,8.7-3.3,17-5,24.9-5s20,3,27.3,9c7.2,6,10.8,15.1,10.6,27.2v63.3l-3.1-4.2,19.3,5.1v15.2h-64.4v-15.2l18.3-4.7-3.9,4.4v-57.6c0-6.9-1.7-12-5.2-15.2-3.5-3.2-8-4.9-13.6-4.9s-9.1,1.1-14.2,3.2c-5.2,2.1-10.2,5.3-15.2,9.5l2.2-4.4v69.4l-3.1-4.4,17.6,4.7v15.2h-64.4Z"/>
          </g>
          <g class="st1">
            <path class="st0" d="M703,264.4l3.1-21c2.6.3,4.9.5,7.1.6,2.2.1,4.2.2,6.2.2,7.1,0,12.8-1.2,17.3-3.7,4.4-2.5,8.3-6.3,11.6-11.4,3.3-5.2,6.6-11.8,9.8-20l-1.2,9.9-46.3-101,3.1,2.5-14-3v-15.2l60.1-1.7v15l-16.9,4,1.7-2.5,30.6,79.2-8.2-1.5,27.3-77.3,1.7,3-16.7-3v-15.2l57-1.7v15l-15.2,4.2,4.6-2.5-39.8,96.7c-3.4,8.2-7,15.5-10.9,21.8s-8.2,11.7-13.2,16.2c-4.9,4.4-10.6,7.8-17.1,10.2-6.5,2.3-14.1,3.5-22.8,3.5s-11.9-.5-18.8-1.5Z"/>
          </g>
        </g>
        <g class="st1">
          <g class="st1">
            <path class="st0" d="M163.7,300.9c-17.6,0-33.7-3.8-48.3-11.4-14.6-7.6-26.3-19-35.1-34.2-8.8-15.2-13.2-33.9-13.2-56.1s4.3-40.5,12.9-55.9c8.6-15.4,20.7-27.3,36.4-35.6,15.7-8.3,34-12.4,55.1-12.4s22.7,1.2,34.5,3.7c11.8,2.5,24.5,6.1,38,11l-2.9,50.9h-27.4l-7.7-33.1,7.7,6.5c-7.5-2.6-14.7-4.6-21.6-5.9-6.9-1.3-13.2-2-19-2-12.2,0-22.5,2.7-30.9,8.1-8.4,5.4-14.7,13.1-19,23.3-4.3,10.2-6.4,22.3-6.4,36.5s2.5,30.4,7.6,41.4c5,11,12,19.2,20.9,24.6,8.9,5.4,19,8.1,30.1,8.1s17.2-1.6,26.6-4.7c9.3-3.1,18.7-7.9,28.2-14.3l17.1,23.5c-13.3,9.4-27.1,16.5-41.4,21.2-14.3,4.7-28.3,7.1-42,7.1Z"/>
          </g>
        </g>
      </g>
    </g>
  </g>
</svg>