<?xml version="1.0" encoding="UTF-8"?>
<svg id="logoSimpler" xmlns="http://www.w3.org/2000/svg" width="148.05" height="211.32" viewBox="0 0 148.05 211.32">
  <defs>
    <style>
      .cls-1 {
        fill: #437f9e;
      }

      .cls-2 {
        fill: #453938;
      }
    </style>
  </defs>
  <path class="cls-2" d="M100.32,12.13L31.32,26.61c-1.9.4-3.48,1.69-4.25,3.47L.49,91.42c-.65,1.5-.66,3.21-.01,4.72l26.43,61.92c.85,2,2.72,3.37,4.88,3.59l65.72,6.75c2.34.24,4.6-.92,5.78-2.95l43.96-76.15c1.08-1.87,1.07-4.17-.04-6.03L106.68,14.93c-1.3-2.2-3.86-3.32-6.36-2.8Z"/>
  <path class="cls-1" d="M50.38,51.19c2.03,2.61,4.48,4.67,7.34,6.19,2.87,1.52,5.93,2.49,9.21,2.92,3.27.44,6.5.36,9.68-.22,3.48-.64,6.69-1.83,9.66-3.59,2.96-1.76,5.48-3.92,7.53-6.49,2.06-2.57,3.55-5.41,4.46-8.53.92-3.12,1.07-6.36.46-9.72-.43-2.35-1.28-4.7-2.56-7.02-1.28-2.32-2.96-4.4-5.07-6.24-1.59-1.39-3.42-2.48-5.5-3.28l-33.09,6.94c-1.77,1.55-3.16,3.25-4.14,5.11-1.24,2.36-2,4.76-2.28,7.22-.28,2.46-.21,4.83.21,7.13.69,3.77,2.05,6.96,4.08,9.57ZM.49,91.42c-.65,1.5-.66,3.21-.01,4.72l26.43,61.92c.85,2,2.72,3.37,4.88,3.59l36.34,3.73L19.33,47.93.49,91.42ZM106.68,14.93c-1.3-2.2-3.86-3.32-6.36-2.8l-6.12,1.28s.06.04.08.07c2.67,2.31,4.88,5.03,6.6,8.15,1.73,3.12,2.88,6.27,3.46,9.45.79,4.3.58,8.42-.62,12.35-1.2,3.93-3.1,7.49-5.71,10.68-2.61,3.19-5.72,5.84-9.32,7.96-3.6,2.12-7.37,3.54-11.32,4.26-3.83.7-7.7.73-11.63.07-3.92-.65-7.63-1.96-11.13-3.94-3.5-1.98-6.48-4.66-8.96-8.04-2.48-3.38-4.14-7.43-5.01-12.14-1.02-5.59-.62-10.61,1.22-15.06.46-1.11.97-2.16,1.55-3.16l-12.12,2.54c-1.9.4-3.48,1.69-4.25,3.47l-.47,1.09,48.8,119.7,45.49-112.01-14.2-23.94ZM147.22,83.27l-18-30.35-47.16,113.89,15.45,1.59c2.34.24,4.6-.92,5.78-2.95l43.96-76.15c1.08-1.87,1.07-4.17-.04-6.03Z"/>
</svg>