<?xml version="1.0" encoding="UTF-8"?>
<svg id="Layer_1" xmlns="http://www.w3.org/2000/svg" version="1.1" viewBox="0 0 150 150">
  <!-- Generator: Adobe Illustrator 30.4.0, SVG Export Plug-In . SVG Version: 2.1.4 Build 226)  -->
  <defs>
    <style>
      .st0 {
        fill: #772432;
      }

      .st1 {
        fill: #ebe7d3;
      }

      .st2 {
        fill: #004165;
      }

      .st3 {
        fill: #a9b2b1;
      }

      .st4 {
        fill: #f2df74;
      }

      .st5 {
        fill: #cd202c;
      }
    </style>
  </defs>
  <g>
    <path class="st1" d="M38.4,26v-.7l1.4-.3-.3.4v-6.9l.3.2h-2.1l.3-.3-.3,1.5h-.9v-2.3h6.7v2.3h-.9l-.3-1.5.3.2h-2.1l.3-.2v6.9l-.3-.4,1.3.3v.7h-3.6Z"/>
    <path class="st1" d="M46.8,19.5c.9,0,1.7.3,2.2.8.5.6.8,1.3.8,2.4s-.1,1.3-.4,1.8c-.3.5-.6.9-1.1,1.2-.5.3-1,.4-1.7.4s-1.6-.3-2.1-.8c-.5-.6-.8-1.3-.8-2.4s.1-1.3.4-1.8c.2-.5.6-.9,1.1-1.2.5-.3,1-.4,1.7-.4ZM46.8,20.5c-.5,0-.9.2-1.1.6-.3.4-.4,1-.4,1.8s.1,1.3.4,1.7.6.5,1.1.5.6,0,.9-.3c.2-.2.4-.4.5-.8.1-.3.2-.8.2-1.3,0-.8-.1-1.3-.4-1.7-.3-.4-.6-.6-1.1-.6Z"/>
    <path class="st1" d="M55.9,25.2l-.2-.3,1.1.3v.8h-2c0,0-.2-1.1-.2-1.1h.1c-.3.4-.7.7-1.1.9-.4.2-.8.3-1.2.3s-.9-.2-1.2-.5c-.3-.3-.5-.8-.5-1.4s.1-.8.3-1.1c.2-.3.5-.5.9-.6.4-.1.8-.2,1.3-.2h1.4-.1c0,.1,0-.8,0-.8,0-.4,0-.7-.3-.8-.2-.2-.5-.3-.9-.3s-.4,0-.6,0c-.2,0-.4,0-.7.2l.2-.2v1h-1.1v-1.7c.4-.2.9-.3,1.3-.3.4,0,.8-.1,1.2-.1.7,0,1.3.2,1.6.5.4.3.6.8.6,1.4v3.9ZM52.1,24.1c0,.3,0,.6.2.7.2.2.3.2.6.2s.5,0,.8-.2c.3-.1.5-.3.8-.6v.3c0,0,0-1.4,0-1.4h.1c0,.1-1.2.1-1.2.1-.5,0-.8,0-1,.2-.2.1-.3.4-.3.7Z"/>
    <path class="st1" d="M58.9,21.2c0,.2,0,.4.2.5s.4.2.6.3c.3,0,.5.2.8.3s.6.2.8.3c.3.1.5.3.6.6s.2.5.2.9-.1.8-.4,1.1c-.2.3-.6.5-1,.7-.4.2-.9.2-1.4.2s-.6,0-1,0c-.3,0-.7-.1-1.1-.2v-1.8h1v1.1c.1,0,0-.2,0-.2.2,0,.3,0,.5.1.2,0,.4,0,.5,0,.2,0,.4,0,.6,0,.2,0,.4-.2.5-.3.1-.1.2-.3.2-.5s0-.4-.2-.5c-.2-.1-.4-.2-.6-.3s-.5-.2-.8-.3c-.3,0-.5-.2-.8-.3-.3-.1-.5-.3-.6-.6s-.2-.5-.2-.9.1-.8.3-1.1c.2-.3.5-.5.9-.6.4-.1.8-.2,1.2-.2s.6,0,1,0c.4,0,.7.1,1.1.3v1.5h-1l-.2-.9.2.2c-.4-.1-.7-.2-1-.2s-.6,0-.8.2c-.2.1-.3.3-.3.5Z"/>
    <path class="st1" d="M65.3,26.1c-.5,0-.9-.2-1.2-.5-.3-.3-.4-.8-.4-1.4v-3.9l.2.2h-1.2v-.8l1.2-.2-.2.3v-1.6l1.5-.3v1.9l-.2-.2h1.8v1h-1.8l.2-.2v3.7c0,.3,0,.6.2.7.1.2.3.2.5.2s.3,0,.4,0c.2,0,.3-.1.5-.2l.3.8c-.6.4-1.2.5-1.8.5Z"/>
    <path class="st1" d="M73.7,20.6h-.2c.4-.3.8-.6,1.2-.8.4-.2.8-.3,1.2-.3s.9.2,1.3.5.5.8.5,1.5v3.7-.2c-.1,0,.9.3.9.3v.7h-3v-.7l.9-.3-.2.2v-3.4c0-.4,0-.7-.3-.9-.2-.2-.4-.3-.7-.3s-.5,0-.8.2c-.3.1-.6.4-.9.6v-.3c.1,0,.1.1.1.2v3.9-.2c-.1,0,.8.3.8.3v.7h-2.9v-.7l.9-.3-.2.2v-3.4c0-.4,0-.7-.3-.9-.2-.2-.4-.3-.7-.3s-.5,0-.8.2c-.3.1-.6.3-.8.6v-.2c.1,0,.1,4.1.1,4.1v-.2c-.1,0,.7.3.7.3v.7h-3v-.7l1-.3-.2.2v-4.8l.2.2-1-.3v-.7h2c0,0,.2,1.1.2,1.1h-.2c.4-.5.8-.7,1.2-.9.4-.2.8-.3,1.2-.3s.7,0,1,.3c.3.2.5.5.6.9Z"/>
    <path class="st1" d="M84.4,25.2l-.2-.3,1.1.3v.8h-2c0,0-.2-1.1-.2-1.1h.1c-.3.4-.7.7-1.1.9-.4.2-.8.3-1.2.3s-.9-.2-1.2-.5c-.3-.3-.5-.8-.5-1.4s0-.8.3-1.1c.2-.3.5-.5.9-.6.4-.1.8-.2,1.3-.2h1.4-.1c0,.1,0-.8,0-.8,0-.4,0-.7-.3-.8-.2-.2-.5-.3-.9-.3s-.4,0-.6,0-.4,0-.7.2l.2-.2v1h-1.1v-1.7c.4-.2.9-.3,1.3-.3s.8-.1,1.2-.1c.7,0,1.3.2,1.6.5.4.3.6.8.6,1.4v3.9ZM80.7,24.1c0,.3,0,.6.2.7s.3.2.6.2.5,0,.8-.2.5-.3.8-.6v.3c0,0,0-1.4,0-1.4h.1c0,.1-1.2.1-1.2.1-.5,0-.8,0-1,.2-.2.1-.3.4-.3.7Z"/>
    <path class="st1" d="M87.4,21.2c0,.2,0,.4.2.5s.4.2.6.3c.3,0,.5.2.8.3.3,0,.6.2.8.3.3.1.5.3.6.6.2.2.2.5.2.9s-.1.8-.4,1.1c-.2.3-.6.5-1,.7-.4.2-.9.2-1.4.2s-.6,0-1,0c-.3,0-.7-.1-1.1-.2v-1.8h1v1.1c.1,0,0-.2,0-.2.2,0,.3,0,.5.1.2,0,.4,0,.5,0,.2,0,.4,0,.6,0s.4-.2.5-.3c.1-.1.2-.3.2-.5s0-.4-.2-.5c-.2-.1-.4-.2-.6-.3s-.5-.2-.8-.3c-.3,0-.5-.2-.8-.3-.3-.1-.5-.3-.6-.6-.2-.2-.2-.5-.2-.9s.1-.8.3-1.1c.2-.3.5-.5.9-.6.4-.1.8-.2,1.2-.2s.6,0,1,0c.4,0,.7.1,1.1.3v1.5h-1l-.2-.9.2.2c-.4-.1-.7-.2-1-.2s-.6,0-.8.2c-.2.1-.3.3-.3.5Z"/>
    <path class="st1" d="M93.9,26.1c-.5,0-.9-.2-1.2-.5-.3-.3-.4-.8-.4-1.4v-3.9l.2.2h-1.2v-.8l1.2-.2-.2.3v-1.6l1.5-.3v1.9l-.2-.2h1.8v1h-1.8l.2-.2v3.7c0,.3,0,.6.2.7.1.2.3.2.5.2s.3,0,.4,0c.2,0,.3-.1.5-.2l.3.8c-.6.4-1.2.5-1.8.5Z"/>
    <path class="st1" d="M98.9,26.1c-.6,0-1.1-.1-1.5-.4-.4-.2-.8-.6-1-1.1-.2-.5-.4-1.1-.4-1.8s.1-1.3.4-1.8c.3-.5.6-.9,1.1-1.2.5-.3,1-.4,1.6-.4s1.1.1,1.5.4c.4.2.7.6.8,1,.2.4.3.9.3,1.5s0,.2,0,.3c0,.1,0,.3,0,.4h-4.5v-.9h3.2-.2c0-.2,0-.5-.1-.8,0-.3-.2-.5-.4-.6-.2-.2-.4-.2-.7-.2s-.6,0-.8.3c-.2.2-.4.5-.5.8-.1.3-.2.7-.2,1.1s0,.9.2,1.2c.1.3.3.6.6.8.3.2.6.3,1,.3s.6,0,.9-.2c.3-.1.7-.3,1-.5l.5.8c-.5.3-.9.6-1.4.7s-.9.2-1.4.2Z"/>
    <path class="st1" d="M102.6,26v-.7l1-.3v.2c-.1,0-.1-4.8-.1-4.8l.2.3-1-.3v-.7h2c0,0,.2,1.1.2,1.1h-.2c.4-.4.7-.7,1.1-.9s.7-.3,1.1-.3.5,0,.8.1v2h-.9l-.2-1.2v.3c0,0,0,0,0,0,0,0-.1,0-.2,0-.3,0-.5,0-.8.2s-.5.4-.7.6v-.4c.1,0,.1,4.1.1,4.1l-.2-.2,1.2.3v.7h-3.3Z"/>
    <path class="st1" d="M109.6,21.2c0,.2,0,.4.2.5s.4.2.6.3c.3,0,.5.2.8.3.3,0,.6.2.8.3.3.1.5.3.6.6.2.2.2.5.2.9s-.1.8-.4,1.1c-.2.3-.6.5-1,.7-.4.2-.9.2-1.4.2s-.6,0-1,0c-.3,0-.7-.1-1.1-.2v-1.8h1v1.1c.1,0,0-.2,0-.2.2,0,.3,0,.5.1.2,0,.4,0,.5,0,.2,0,.4,0,.6,0s.4-.2.5-.3c.1-.1.2-.3.2-.5s0-.4-.2-.5c-.2-.1-.4-.2-.6-.3s-.5-.2-.8-.3c-.3,0-.5-.2-.8-.3-.3-.1-.5-.3-.6-.6-.2-.2-.2-.5-.2-.9s.1-.8.3-1.1c.2-.3.5-.5.9-.6.4-.1.8-.2,1.2-.2s.6,0,1,0c.4,0,.7.1,1.1.3v1.5h-1l-.2-.9.2.2c-.4-.1-.7-.2-1-.2s-.6,0-.8.2c-.2.1-.3.3-.3.5Z"/>
  </g>
  <g>
    <path class="st3" d="M48,53.8c0-4.9-4-8.8-8.9-8.8s-8.9,4-8.9,8.8h-.2v81.2h18V53.8h0Z"/>
    <path class="st4" d="M66,53.8c0-4.9-4-8.8-8.9-8.8s-8.9,4-8.9,8.8h-.2v81.2h18V53.8h0Z"/>
    <path class="st2" d="M84,53.8c0-4.9-4-8.8-8.9-8.8s-8.9,4-8.9,8.8h-.2v81.2h18V53.8h0Z"/>
    <path class="st0" d="M102,53.8c0-4.9-4-8.8-8.9-8.8s-8.9,4-8.9,8.8h-.2v81.2h18V53.8h0Z"/>
    <path class="st5" d="M120,53.8c0-4.9-4-8.8-8.9-8.8s-8.9,4-8.9,8.8h-.2v81.2h18V53.8h0Z"/>
  </g>
</svg>