<?xml version="1.0" encoding="UTF-8"?>
<svg id="Layer_1" xmlns="http://www.w3.org/2000/svg" version="1.1" viewBox="0 0 150 150">
  <!-- Generator: Adobe Illustrator 30.4.0, SVG Export Plug-In . SVG Version: 2.1.4 Build 226)  -->
  <defs>
    <style>
      .st0 {
        fill: #e62b1e;
      }

      .st1 {
        fill: #ebe7d3;
      }
    </style>
  </defs>
  <g>
    <path class="st1" d="M52.8,26v-.7l1.4-.3-.3.4v-6.9l.3.2h-2.1l.3-.3-.3,1.5h-.9v-2.3h6.7v2.3h-.9l-.3-1.5.3.2h-2.1l.3-.2v6.9l-.3-.4,1.3.3v.7h-3.6Z"/>
    <path class="st1" d="M63.8,23.8h.9v2.2h-6.2v-.7l1.1-.3-.2.3v-6.9l.2.3-1.1-.3v-.7h2.4c0,0,3.7,0,3.7,0v2.1h-.9l-.2-1.2.3.2h-3.1l.2-.2v3l-.2-.2h3v1h-3l.2-.3v3.2l-.2-.2h3.2l-.3.2.2-1.3Z"/>
    <path class="st1" d="M69.6,17.6c.6,0,1.1,0,1.6.3s.9.4,1.2.8c.3.3.6.8.8,1.3.2.5.3,1.1.3,1.8s-.2,1.8-.5,2.4-.8,1.1-1.4,1.5c-.6.3-1.3.5-2.1.5h-3.5v-.7l1.2-.3-.2.3v-6.9l.2.3-1.2-.3v-.7h2.6c0,0,1.2,0,1.2,0ZM69.4,24.9c.3,0,.6,0,.9-.1.3,0,.5-.3.8-.5.2-.2.4-.5.6-1,.1-.4.2-1,.2-1.6s0-1.2-.2-1.6c-.1-.4-.3-.7-.5-.9-.2-.2-.5-.4-.7-.5-.3,0-.5-.1-.8-.1h-1.5l.2-.2v6.8l-.2-.2h1.4Z"/>
    <path class="st1" d="M78,26v-.7l1.4-.3-.3.4v-6.9l.3.2h-2.1l.3-.3-.3,1.5h-.9v-2.3h6.7v2.3h-.9l-.3-1.5.3.2h-2.1l.3-.2v6.9l-.3-.4,1.3.3v.7h-3.6Z"/>
    <path class="st1" d="M88.5,25.2l-.2-.3,1.1.3v.8h-2c0,0-.2-1.1-.2-1.1h.1c-.3.4-.7.7-1.1.9-.4.2-.8.3-1.2.3s-.9-.2-1.2-.5c-.3-.3-.5-.8-.5-1.4s.1-.8.3-1.1c.2-.3.5-.5.9-.6.4-.1.8-.2,1.3-.2h1.4-.1c0,.1,0-.8,0-.8,0-.4,0-.7-.3-.8s-.5-.3-.9-.3-.4,0-.6,0c-.2,0-.4,0-.7.2l.2-.2v1h-1.1v-1.7c.4-.2.9-.3,1.3-.3.4,0,.8-.1,1.2-.1.7,0,1.3.2,1.6.5.4.3.6.8.6,1.4v3.9ZM84.8,24.1c0,.3,0,.6.2.7.2.2.3.2.6.2s.5,0,.8-.2c.3-.1.5-.3.8-.6v.3c0,0,0-1.4,0-1.4h.1c0,.1-1.2.1-1.2.1-.5,0-.8,0-1,.2-.2.1-.3.4-.3.7Z"/>
    <path class="st1" d="M92.1,25.1h-.1c0-.1,1,.1,1,.1v.7h-3.1v-.7l1-.3h-.1c0,.1,0-7.4,0-7.4h.1c0,.1-1-.1-1-.1v-.7h2.3c0,0,0,8.4,0,8.4Z"/>
    <path class="st1" d="M93.4,26v-.7l1-.3-.2.3v-7.7.2c.1,0-.8-.3-.8-.3v-.7h2.3c0,0,0,5.4,0,5.4l-.2-.2h1.6l-.4.2,1.2-1.8v.2c.1,0-.8-.2-.8-.2v-.7h2.8c0,0,0,.6,0,.6l-1,.2.4-.2-1.5,2.2v-.4s1.7,3,1.7,3l-.2-.2.9.2v.7h-1.8l-1.6-3.1h.2c0,.1-1.5.1-1.5.1h.2c0-.1,0,2.3,0,2.3l-.2-.3,1,.3v.7h-3.1Z"/>
    <path class="st1" d="M102,21.2c0,.2,0,.4.2.5s.4.2.6.3c.3,0,.5.2.8.3.3,0,.6.2.8.3.3.1.5.3.6.6.2.2.2.5.2.9s-.1.8-.4,1.1c-.2.3-.6.5-1,.7-.4.2-.9.2-1.4.2s-.6,0-1,0c-.3,0-.7-.1-1.1-.2v-1.8h1v1.1c.1,0,0-.2,0-.2.2,0,.3,0,.5.1.2,0,.4,0,.5,0,.2,0,.4,0,.6,0,.2,0,.4-.2.5-.3.1-.1.2-.3.2-.5s0-.4-.2-.5c-.2-.1-.4-.2-.6-.3s-.5-.2-.8-.3-.5-.2-.8-.3c-.3-.1-.5-.3-.6-.6-.2-.2-.2-.5-.2-.9s.1-.8.3-1.1c.2-.3.5-.5.9-.6.4-.1.8-.2,1.2-.2s.6,0,1,0c.4,0,.7.1,1.1.3v1.5h-1l-.2-.9.2.2c-.4-.1-.7-.2-1-.2s-.6,0-.8.2c-.2.1-.3.3-.3.5Z"/>
  </g>
  <path class="st0" d="M46.5,45c-17.4,0-31.5,14.1-31.5,31.5v58.5h63v-58.5c0-17.4-14.1-31.5-31.5-31.5Z"/>
  <path d="M109.5,45c-17.4,0-31.5,14.1-31.5,31.5v58.5h63v-58.5c0-17.4-14.1-31.5-31.5-31.5Z"/>
</svg>