<?xml version="1.0" encoding="UTF-8"?>
<svg id="logoSimpler" xmlns="http://www.w3.org/2000/svg" width="148.05" height="156.43" viewBox="0 0 148.05 156.43">
  <defs>
    <style>
      .cls-1 {
        fill: #447f9e;
      }

      .cls-2 {
        fill: #453938;
      }

      .cls-3 {
        fill: #f38093;
      }
    </style>
  </defs>
  <path class="cls-1" d="M73.54,140.82L120.25,25.8l-13.57-22.88c-1.3-2.2-3.86-3.32-6.36-2.8l-3.37.71s.06.08.08.12c2.12,3.39,3.62,6.9,4.52,10.53,1.15,4.65,1.2,9.19.17,13.63-1.03,4.44-2.86,8.52-5.49,12.24-2.63,3.72-5.83,6.89-9.6,9.51-3.78,2.62-7.8,4.45-12.06,5.5-4.14,1.02-8.37,1.29-12.71.8-4.34-.48-8.49-1.74-12.47-3.76-3.97-2.02-7.43-4.82-10.37-8.38-2.94-3.56-5.04-7.92-6.31-13.08-1.19-4.83-1.39-9.33-.62-13.51l10.3-2.16-11.07,2.32c-1.9.4-3.48,1.69-4.25,3.47l-5.42,12.51,3.59-8.28,48.31,118.51Z"/>
  <path class="cls-1" d="M147.22,71.27l-18.41-31.04-47.42,114.52-16.38-1.68L17.8,39.46.49,79.42c-.65,1.5-.66,3.21-.01,4.72l26.43,61.92c.85,2,2.72,3.37,4.88,3.59l65.72,6.75c2.34.24,4.6-.92,5.78-2.95l43.96-76.15c1.08-1.87,1.07-4.17-.04-6.03Z"/>
  <path class="cls-1" d="M42.44,25.96c.86,3.5,2.34,6.41,4.43,8.73,2.09,2.32,4.54,4.1,7.34,5.33,2.8,1.23,5.78,1.93,8.92,2.1,3.15.17,6.18-.11,9.11-.83,3.31-.82,6.33-2.12,9.06-3.9,2.73-1.79,5.02-3.94,6.86-6.45,1.85-2.51,3.11-5.25,3.79-8.23.69-2.97.64-6.05-.15-9.23-.55-2.23-1.49-4.42-2.84-6.59-.85-1.37-1.87-2.61-3.04-3.75l-42.49,8.91c-1.05,2.27-1.63,4.6-1.7,6.98-.07,2.45.16,4.75.69,6.92Z"/>
  <path class="cls-3" d="M32.7,27.95c1.27,5.16,3.38,9.51,6.31,13.08,2.94,3.56,6.39,6.36,10.37,8.38,3.98,2.02,8.13,3.28,12.47,3.76,4.34.48,8.58.21,12.71-.8,4.26-1.05,8.29-2.89,12.06-5.5,3.78-2.62,6.98-5.79,9.6-9.51,2.63-3.72,4.46-7.8,5.49-12.24,1.03-4.44.98-8.98-.17-13.63-.89-3.63-2.4-7.14-4.52-10.53-.03-.04-.06-.08-.08-.12h0l-11.01,2.31h0c1.17,1.14,2.2,2.38,3.04,3.75,1.35,2.17,2.29,4.36,2.84,6.59.78,3.18.83,6.26.15,9.23-.68,2.97-1.95,5.71-3.79,8.23-1.84,2.51-4.13,4.66-6.86,6.45-2.73,1.79-5.75,3.09-9.06,3.9-2.93.72-5.96,1-9.11.83-3.15-.17-6.12-.87-8.92-2.1-2.8-1.23-5.25-3.01-7.34-5.33-2.09-2.32-3.57-5.23-4.43-8.73-.53-2.16-.76-4.47-.69-6.92.07-2.38.64-4.71,1.7-6.98h0l-1.06.22-10.3,2.16c-.77,4.18-.57,8.68.62,13.51Z"/>
  <polygon class="cls-2" points="81.38 154.74 128.8 40.22 128.8 40.22 120.25 25.8 120.25 25.8 73.54 140.82 25.23 22.31 21.64 30.59 17.8 39.46 17.8 39.46 65 153.06 81.38 154.74"/>
</svg>