<?xml version="1.0" encoding="UTF-8"?>
<svg id="Layer_1" xmlns="http://www.w3.org/2000/svg" version="1.1" viewBox="0 0 150 150">
  <!-- Generator: Adobe Illustrator 30.4.0, SVG Export Plug-In . SVG Version: 2.1.4 Build 226)  -->
  <defs>
    <style>
      .st0 {
        fill: #447f9e;
      }

      .st1 {
        fill: #7a6563;
      }

      .st2 {
        fill: #f0dda2;
      }

      .st3 {
        fill: #ebe7d3;
      }

      .st4 {
        fill: #453938;
      }

      .st5 {
        fill: #f38093;
      }
    </style>
  </defs>
  <g>
    <path class="st3" d="M31.1,26.1c-.6,0-1.2-.2-1.8-.5s-1-.8-1.3-1.4c-.3-.6-.5-1.4-.5-2.4s.2-1.7.5-2.4c.3-.7.8-1.2,1.3-1.5.6-.3,1.2-.5,2-.5s.8,0,1.3.2c.4.1.9.3,1.4.5v2.1h-1l-.3-1.4.3.3c-.3-.1-.6-.2-.9-.3-.3,0-.5,0-.8,0-.5,0-.9.1-1.2.4s-.6.6-.8,1.1c-.2.5-.3,1-.3,1.6s0,1.3.3,1.8c.2.5.5.9.8,1.1.4.2.8.4,1.2.4s.7,0,1-.2.7-.4,1.1-.7l.6.9c-.5.4-1,.7-1.5.9s-1,.3-1.5.3Z"/>
    <path class="st3" d="M37.9,19.5c.9,0,1.7.3,2.2.8.5.6.8,1.3.8,2.4s-.1,1.3-.4,1.8c-.3.5-.6.9-1.1,1.2-.5.3-1,.4-1.7.4s-1.6-.3-2.1-.8c-.5-.6-.8-1.3-.8-2.4s.1-1.3.4-1.8c.2-.5.6-.9,1.1-1.2.5-.3,1-.4,1.7-.4ZM37.8,20.5c-.5,0-.9.2-1.1.6-.3.4-.4,1-.4,1.8s.1,1.3.4,1.7.6.5,1.1.5.6,0,.9-.3c.2-.2.4-.4.5-.8.1-.3.2-.8.2-1.3,0-.8-.1-1.3-.4-1.7-.3-.4-.6-.6-1.1-.6Z"/>
    <path class="st3" d="M43.8,25.1h-.1c0-.1,1,.1,1,.1v.7h-3.1v-.7l1-.3h-.1c0,.1,0-7.4,0-7.4h.1c0,.1-1-.1-1-.1v-.7h2.3c0,0,0,8.4,0,8.4Z"/>
    <path class="st3" d="M48.4,19.5c.9,0,1.7.3,2.2.8.5.6.8,1.3.8,2.4s-.1,1.3-.4,1.8c-.3.5-.6.9-1.1,1.2-.5.3-1,.4-1.7.4s-1.6-.3-2.1-.8c-.5-.6-.8-1.3-.8-2.4s.1-1.3.4-1.8c.2-.5.6-.9,1.1-1.2.5-.3,1-.4,1.7-.4ZM48.4,20.5c-.5,0-.9.2-1.1.6-.3.4-.4,1-.4,1.8s.1,1.3.4,1.7.6.5,1.1.5.6,0,.9-.3c.2-.2.4-.4.5-.8.1-.3.2-.8.2-1.3,0-.8-.1-1.3-.4-1.7-.3-.4-.6-.6-1.1-.6Z"/>
    <path class="st3" d="M52.2,26v-.7l1-.3-.2.2v-4.8l.2.2-1-.3v-.7h2c0,0,.2,1.1.2,1.1h-.2c.4-.5.8-.8,1.2-1s.8-.3,1.2-.3,1,.2,1.3.5c.4.3.5.8.5,1.5v3.7-.2c-.1,0,.9.3.9.3v.7h-3.1v-.7l1-.3-.2.2v-3.4c0-.4,0-.7-.3-.9-.2-.2-.4-.3-.8-.3s-.5,0-.8.2c-.3.1-.6.3-.9.6v-.2c.1,0,.1,4.1.1,4.1v-.2c-.1,0,.8.3.8.3v.7h-3.1Z"/>
    <path class="st3" d="M59.3,28.8v-1c.3,0,.4,0,.5,0,0,0,.2,0,.3,0,.4,0,.7,0,.9-.2.2-.2.4-.4.6-.7.2-.3.3-.7.5-1.2v.5c0,0-2.3-5.8-2.3-5.8h.1c0,.1-.7,0-.7,0v-.7h2.9c0,0,0,.6,0,.6l-.9.2h0c0-.1,1.6,4.6,1.6,4.6h-.3c0,0,1.5-4.7,1.5-4.7h0c0,.1-.9,0-.9,0v-.7h2.7c0,0,0,.6,0,.6l-.8.2h.2c0-.1-2,5.4-2,5.4-.2.4-.3.8-.5,1.2s-.4.7-.6.9c-.2.3-.5.5-.8.6-.3.1-.7.2-1.1.2s-.5,0-.9,0Z"/>
    <path class="st3" d="M72.2,26.1c-.7,0-1.4-.2-1.9-.5-.6-.3-1-.8-1.3-1.4-.3-.6-.5-1.4-.5-2.3s0-1.4.3-1.9c.2-.6.5-1,.8-1.4.4-.4.8-.6,1.2-.8s1-.3,1.6-.3,1.1,0,1.5.3c.5.2.9.4,1.2.8s.6.8.8,1.3c.2.5.3,1.1.3,1.8s-.2,1.8-.5,2.4c-.3.7-.8,1.2-1.4,1.5-.6.4-1.3.5-2.1.5ZM72.3,25c.4,0,.8-.1,1.2-.3s.6-.6.8-1,.3-1.1.3-1.9,0-1.3-.3-1.8c-.2-.5-.5-.8-.8-1-.3-.2-.7-.3-1.2-.3s-.8.1-1.2.3c-.3.2-.6.6-.8,1-.2.5-.3,1.1-.3,1.9s0,1.3.3,1.8c.2.5.4.8.8,1s.7.3,1.2.3Z"/>
    <path class="st3" d="M77,26v-.7l1-.3v.2c-.1,0-.1-4.7-.1-4.7v.2c.1,0-.9,0-.9,0v-.8l1.1-.2-.2.2v-.9c0-.8.2-1.4.7-1.8.4-.4,1-.6,1.7-.6s.4,0,.7,0c.2,0,.5,0,.7.2l-.2,1c-.2,0-.3,0-.5-.1-.2,0-.3,0-.5,0-.4,0-.6,0-.9.3-.2.2-.3.5-.3,1v1l-.2-.2h1.8v1h-1.7v-.2c.1,0,.1,4.7.1,4.7v-.2c-.1,0,1,.3,1,.3v.7h-3.3Z"/>
    <path class="st3" d="M86.6,26l-2.6-7.6.3.3-1.1-.3v-.7h3.4c0,0,0,.7,0,.7l-1.2.3.2-.4,2,6.4h-.2l2.1-6.4v.3c.1,0-1-.3-1-.3v-.7h3.1c0,0,0,.7,0,.7l-1.1.3.3-.3-2.7,7.7h-1.6Z"/>
    <path class="st3" d="M94.4,19.5c.9,0,1.7.3,2.2.8.5.6.8,1.3.8,2.4s-.1,1.3-.4,1.8c-.3.5-.6.9-1.1,1.2-.5.3-1,.4-1.7.4s-1.6-.3-2.1-.8c-.5-.6-.8-1.3-.8-2.4s.1-1.3.4-1.8c.2-.5.6-.9,1.1-1.2.5-.3,1-.4,1.7-.4ZM94.3,20.5c-.5,0-.9.2-1.1.6-.3.4-.4,1-.4,1.8s.1,1.3.4,1.7.6.5,1.1.5.6,0,.9-.3c.2-.2.4-.4.5-.8.1-.3.2-.8.2-1.3,0-.8-.1-1.3-.4-1.7-.3-.4-.6-.6-1.1-.6Z"/>
    <path class="st3" d="M100.4,25.1h-.1c0-.1,1,.1,1,.1v.7h-3.1v-.7l1-.3h-.1c0,.1,0-4.5,0-4.5h0c0,.1-.9-.1-.9-.1v-.7h2.3c0,0,0,5.5,0,5.5ZM99.7,18.5c-.3,0-.5,0-.6-.2s-.2-.4-.2-.6,0-.5.3-.7c.2-.1.4-.2.6-.2s.5,0,.6.2c.2.1.2.4.2.7s0,.5-.3.7c-.2.1-.4.2-.6.2Z"/>
    <path class="st3" d="M104.8,26.1c-.5,0-1-.1-1.5-.4-.4-.3-.8-.6-1-1.1-.2-.5-.4-1.1-.4-1.8s0-1.1.3-1.6c.2-.4.4-.8.7-1,.3-.3.6-.5,1-.6s.8-.2,1.2-.2.7,0,1.1.1.7.2,1,.3v1.7h-1l-.2-1h.1c-.2,0-.3,0-.5,0-.2,0-.4,0-.5,0-.4,0-.7,0-.9.3-.3.2-.4.5-.6.8s-.2.7-.2,1.2,0,.9.2,1.2c.1.3.3.6.6.8.3.2.5.3.9.3s.5,0,.9-.2c.3-.1.6-.3.9-.5l.5.7c-.4.3-.9.6-1.3.7-.4.2-.9.2-1.3.2Z"/>
    <path class="st3" d="M110.8,26.1c-.6,0-1.1-.1-1.5-.4-.4-.2-.8-.6-1-1.1-.2-.5-.4-1.1-.4-1.8s.1-1.3.4-1.8c.3-.5.6-.9,1.1-1.2.5-.3,1-.4,1.6-.4s1.1.1,1.5.4.7.6.8,1c.2.4.3.9.3,1.5s0,.2,0,.3c0,.1,0,.3,0,.4h-4.5v-.9h3.2-.2c0-.2,0-.5-.1-.8,0-.3-.2-.5-.4-.6-.2-.2-.4-.2-.7-.2s-.6,0-.8.3c-.2.2-.4.5-.5.8-.1.3-.2.7-.2,1.1s0,.9.2,1.2c.1.3.3.6.6.8.3.2.6.3,1,.3s.6,0,.9-.2c.3-.1.7-.3,1-.5l.5.8c-.5.3-.9.6-1.4.7-.5.2-.9.2-1.4.2Z"/>
  </g>
  <path class="st4" d="M36,53.8c0-4.9-4-8.8-8.9-8.8s-8.9,4-8.9,8.8h-.2v81.2h18V53.8h0Z"/>
  <path class="st0" d="M54,53.8c0-4.9-4-8.8-8.9-8.8s-8.9,4-8.9,8.8h-.2v81.2h18V53.8h0Z"/>
  <path class="st3" d="M72,53.8c0-4.9-4-8.8-8.9-8.8s-8.9,4-8.9,8.8h-.2v81.2h18V53.8h0Z"/>
  <path class="st5" d="M90,53.8c0-4.9-4-8.8-8.9-8.8s-8.9,4-8.9,8.8h-.2v81.2h18V53.8h0Z"/>
  <path class="st2" d="M108,53.8c0-4.9-4-8.8-8.9-8.8s-8.9,4-8.9,8.8h-.2v81.2h18V53.8h0Z"/>
  <path class="st1" d="M126,53.8c0-4.9-4-8.8-8.9-8.8s-8.9,4-8.9,8.8h-.2v81.2h18V53.8h0Z"/>
</svg>