<?xml version="1.0" encoding="UTF-8"?>
<svg id="cov_logoMark" xmlns="http://www.w3.org/2000/svg" width="1920" height="1080" viewBox="0 0 1920 1080">
  <defs>
    <style>
      .cls-1, .cls-2, .cls-3, .cls-4 {
        fill: #437f9e;
        font-family: Bitter-Bold, Bitter;
        font-variation-settings: 'wght' 700;
        font-weight: 700;
      }

      .cls-1, .cls-5 {
        letter-spacing: -.05em;
      }

      .cls-1, .cls-4 {
        font-size: 211.69px;
      }

      .cls-6 {
        fill: #447f9e;
      }

      .cls-7 {
        fill: #453938;
      }

      .cls-2 {
        letter-spacing: -.05em;
      }

      .cls-2, .cls-3 {
        font-size: 282.56px;
      }

      .cls-3 {
        letter-spacing: -.05em;
      }

      .cls-8 {
        letter-spacing: -.08em;
      }

      .cls-9 {
        letter-spacing: -.07em;
      }

      .cls-10 {
        fill: #f38093;
      }
    </style>
  </defs>
  <text class="cls-3" transform="translate(1194.508 637.5053) scale(1.1439 1)"><tspan x="0" y="0">V</tspan></text>
  <text class="cls-4" transform="translate(1417.635 560.8461) scale(1.1439 1)"><tspan class="cls-5" x="0" y="0">oi</tspan><tspan class="cls-9" x="168.29" y="0">c</tspan><tspan class="cls-5" x="263.34" y="0">e</tspan></text>
  <text class="cls-1" transform="translate(1060.9865 555.6782) scale(1.1439 1)"><tspan x="0" y="0">f</tspan></text>
  <g id="logo">
    <g>
      <path class="cls-6" d="M957.3,618.61l61.22-150.74-17.78-29.99c-1.7-2.88-5.06-4.35-8.34-3.67l-4.42.93s.08.1.1.16c2.78,4.44,4.74,9.04,5.92,13.8,1.51,6.09,1.57,12.04.22,17.86-1.35,5.82-3.75,11.17-7.19,16.04-3.45,4.88-7.64,9.03-12.58,12.46-4.95,3.43-10.22,5.83-15.81,7.21-5.43,1.34-10.97,1.69-16.66,1.05-5.69-.63-11.13-2.28-16.34-4.93-5.2-2.65-9.74-6.32-13.59-10.98s-6.61-10.38-8.27-17.14c-1.56-6.33-1.82-12.23-.81-17.71l13.5-2.83-14.51,3.04c-2.49.52-4.56,2.21-5.57,4.55l-7.1,16.39,4.7-10.85,63.31,155.31v.03Z"/>
      <path class="cls-6" d="M1053.86,527.46l-24.13-40.68-62.15,150.08-21.47-2.2-61.87-148.89-22.69,52.37c-.85,1.97-.86,4.21-.01,6.19l34.64,81.15c1.11,2.62,3.56,4.42,6.4,4.7l86.13,8.85c3.07.31,6.03-1.21,7.57-3.87l57.61-99.8c1.42-2.45,1.4-5.46-.05-7.9h.01Z"/>
      <path class="cls-6" d="M916.54,468.08c1.13,4.59,3.07,8.4,5.81,11.44,2.74,3.04,5.95,5.37,9.62,6.99,3.67,1.61,7.57,2.53,11.69,2.75,4.13.22,8.1-.14,11.94-1.09,4.34-1.07,8.3-2.78,11.87-5.11,3.58-2.35,6.58-5.16,8.99-8.45,2.42-3.29,4.08-6.88,4.97-10.79.9-3.89.84-7.93-.2-12.1-.72-2.92-1.95-5.79-3.72-8.64-1.11-1.8-2.45-3.42-3.98-4.91l-55.68,11.68c-1.38,2.97-2.14,6.03-2.23,9.15-.09,3.21.21,6.23.9,9.07h.03Z"/>
      <path class="cls-10" d="M903.78,470.69c1.66,6.76,4.43,12.46,8.27,17.14,3.85,4.67,8.37,8.34,13.59,10.98s10.65,4.3,16.34,4.93c5.69.63,11.24.28,16.66-1.05,5.58-1.38,10.86-3.79,15.81-7.21,4.95-3.43,9.15-7.59,12.58-12.46,3.45-4.88,5.84-10.22,7.19-16.04,1.35-5.82,1.28-11.77-.22-17.86-1.17-4.76-3.15-9.36-5.92-13.8-.04-.05-.08-.1-.1-.16h0l-14.43,3.03h0c1.53,1.49,2.88,3.12,3.98,4.91,1.77,2.84,3,5.71,3.72,8.64,1.02,4.17,1.09,8.2.2,12.1s-2.56,7.48-4.97,10.79c-2.41,3.29-5.41,6.11-8.99,8.45s-7.54,4.05-11.87,5.11c-3.84.94-7.81,1.31-11.94,1.09s-8.02-1.14-11.69-2.75-6.88-3.94-9.62-6.99c-2.74-3.04-4.68-6.85-5.81-11.44-.69-2.83-1-5.86-.9-9.07.09-3.12.84-6.17,2.23-9.15h0l-1.39.29-13.5,2.83c-1.01,5.48-.75,11.38.81,17.71h-.03Z"/>
      <polygon class="cls-7" points="967.57 636.85 1029.72 486.77 1029.72 486.77 1018.51 467.87 1018.51 467.87 957.3 618.61 893.99 463.29 889.28 474.15 884.25 485.77 884.25 485.77 946.11 634.65 967.57 636.85"/>
    </g>
  </g>
  <text class="cls-4" transform="translate(247.85 554.62) scale(1.14 1)"><tspan class="cls-5" x="0" y="0">olo</tspan><tspan class="cls-8" x="278.16" y="0">n</tspan><tspan class="cls-5" x="397.56" y="0">y</tspan></text>
  <text class="cls-2" transform="translate(53.83 637.51) scale(1.14 1)"><tspan x="0" y="0">C</tspan></text>
</svg>