<?xml version="1.0" encoding="UTF-8"?>
<svg id="Layer_1" xmlns="http://www.w3.org/2000/svg" version="1.1" viewBox="0 0 150 150">
  <!-- Generator: Adobe Illustrator 30.4.0, SVG Export Plug-In . SVG Version: 2.1.4 Build 226)  -->
  <defs>
    <style>
      .st0 {
        fill: #c7c7c7;
      }

      .st1 {
        fill: #ebe7d3;
      }

      .st2 {
        fill: #1a4067;
      }

      .st3 {
        fill: #fff;
        stroke: #b3b3b3;
        stroke-miterlimit: 10;
      }
    </style>
  </defs>
  <g>
    <path class="st1" d="M26.3,9h3.1c0,0,0,.7,0,.7l-1.2.3.2-.3v7.7h-1.7l-3.9-6.9h.2s0,6.1,0,6.1l-.2-.3,1.2.3v.7h-3.1v-.7l1.2-.3-.2.3v-6.9l.2.3-1.1-.3v-.7h2.7c0,0,3.9,6.7,3.9,6.7h-.2v-6l.2.3-1.2-.3v-.7Z"/>
    <path class="st1" d="M35.3,16.6l-.2-.3,1.1.3v.8h-2c0,0-.2-1.1-.2-1.1h.1c-.3.4-.7.7-1.1.9-.4.2-.8.3-1.2.3s-.9-.2-1.2-.5c-.3-.3-.5-.8-.5-1.4s.1-.8.3-1.1c.2-.3.5-.5.9-.6.4-.1.8-.2,1.3-.2h1.4-.1c0,.1,0-.8,0-.8,0-.4,0-.7-.3-.8s-.5-.3-.9-.3-.4,0-.6,0c-.2,0-.4,0-.7.2l.2-.2v1h-1.1v-1.7c.4-.2.9-.3,1.3-.3.4,0,.8-.1,1.2-.1.7,0,1.3.2,1.6.5.4.3.6.8.6,1.4v3.9ZM31.5,15.5c0,.3,0,.6.2.7.2.2.3.2.6.2s.5,0,.8-.2c.3-.1.5-.3.8-.6v.3c0,0,0-1.4,0-1.4h.1c0,.1-1.2.1-1.2.1-.5,0-.8,0-1,.2-.2.1-.3.4-.3.7Z"/>
    <path class="st1" d="M38.9,17.4c-.5,0-.9-.2-1.2-.5-.3-.3-.4-.8-.4-1.4v-3.9l.2.2h-1.2v-.8l1.2-.2-.2.3v-1.6l1.5-.3v1.9l-.2-.2h1.8v1h-1.8l.2-.2v3.7c0,.3,0,.6.2.7.1.2.3.2.5.2s.3,0,.4,0c.2,0,.3-.1.5-.2l.3.8c-.6.4-1.2.5-1.8.5Z"/>
    <path class="st1" d="M43.6,16.5h-.1c0-.1,1,.1,1,.1v.7h-3.1v-.7l1-.3h-.1c0,.1,0-4.5,0-4.5h0c0,.1-.9-.1-.9-.1v-.7h2.3c0,0,0,5.5,0,5.5ZM42.8,9.8c-.3,0-.5,0-.6-.2s-.2-.4-.2-.6,0-.5.3-.7c.2-.1.4-.2.6-.2s.5,0,.6.2c.2.1.2.4.2.7s0,.5-.3.7c-.2.1-.4.2-.6.2Z"/>
    <path class="st1" d="M48.2,10.8c.9,0,1.7.3,2.2.8.5.6.8,1.3.8,2.4s-.1,1.3-.4,1.8c-.3.5-.6.9-1.1,1.2-.5.3-1,.4-1.7.4s-1.6-.3-2.1-.8c-.5-.6-.8-1.3-.8-2.4s.1-1.3.4-1.8c.2-.5.6-.9,1.1-1.2.5-.3,1-.4,1.7-.4ZM48.1,11.8c-.5,0-.9.2-1.1.6-.3.4-.4,1-.4,1.8s.1,1.3.4,1.7.6.5,1.1.5.6,0,.9-.3c.2-.2.4-.4.5-.8.1-.3.2-.8.2-1.3,0-.8-.1-1.3-.4-1.7-.3-.4-.6-.6-1.1-.6Z"/>
    <path class="st1" d="M51.9,17.3v-.7l1-.3-.2.2v-4.8l.2.2-1-.3v-.7h2c0,0,.2,1.1.2,1.1h-.2c.4-.5.8-.8,1.2-1s.8-.3,1.2-.3,1,.2,1.3.5c.4.3.5.8.5,1.5v3.7-.2c-.1,0,.9.3.9.3v.7h-3.1v-.7l1-.3-.2.2v-3.4c0-.4,0-.7-.3-.9-.2-.2-.4-.3-.8-.3s-.5,0-.8.2c-.3.1-.6.3-.9.6v-.2c.1,0,.1,4.1.1,4.1v-.2c-.1,0,.8.3.8.3v.7h-3.1Z"/>
    <path class="st1" d="M64.9,16.6l-.2-.3,1.1.3v.8h-2c0,0-.2-1.1-.2-1.1h.1c-.3.4-.7.7-1.1.9-.4.2-.8.3-1.2.3s-.9-.2-1.2-.5c-.3-.3-.5-.8-.5-1.4s.1-.8.3-1.1c.2-.3.5-.5.9-.6.4-.1.8-.2,1.3-.2h1.4-.1c0,.1,0-.8,0-.8,0-.4,0-.7-.3-.8s-.5-.3-.9-.3-.4,0-.6,0c-.2,0-.4,0-.7.2l.2-.2v1h-1.1v-1.7c.4-.2.9-.3,1.3-.3.4,0,.8-.1,1.2-.1.7,0,1.3.2,1.6.5.4.3.6.8.6,1.4v3.9ZM61.1,15.5c0,.3,0,.6.2.7.2.2.3.2.6.2s.5,0,.8-.2c.3-.1.5-.3.8-.6v.3c0,0,0-1.4,0-1.4h.1c0,.1-1.2.1-1.2.1-.5,0-.8,0-1,.2-.2.1-.3.4-.3.7Z"/>
    <path class="st1" d="M68.4,16.5h-.1c0-.1,1,.1,1,.1v.7h-3.1v-.7l1-.3h-.1c0,.1,0-7.4,0-7.4h.1c0,.1-1-.1-1-.1v-.7h2.3c0,0,0,8.4,0,8.4Z"/>
    <path class="st1" d="M74,11c0,.3,0,.5.2.6s.4.3.6.4c.3.1.5.2.9.3.3.1.6.2.9.3.3.1.6.3.9.5s.5.4.6.7c.2.3.2.6.2,1.1s-.1,1.1-.5,1.4c-.3.4-.7.7-1.2.8-.5.2-1.1.3-1.7.3s-.8,0-1.3-.1c-.4,0-.9-.2-1.3-.4v-2.2h.9l.2,1.5v-.3c.1.1.4.2.7.3.3,0,.6,0,.8,0s.6,0,.9-.1c.3,0,.5-.2.6-.4.2-.2.2-.4.2-.7s0-.5-.2-.7c-.2-.2-.4-.3-.6-.4-.3-.1-.5-.2-.9-.3-.3,0-.6-.2-.9-.3-.3-.1-.6-.3-.9-.4-.3-.2-.5-.4-.6-.7-.2-.3-.2-.6-.2-1.1s.1-1,.4-1.4.6-.6,1.1-.8c.5-.2,1-.3,1.5-.3s.8,0,1.3.1c.4,0,.9.2,1.3.4v2h-1l-.2-1.4.2.2c-.2,0-.4-.2-.7-.2s-.5,0-.7,0-.6,0-.8.1c-.3,0-.5.2-.6.4s-.2.4-.2.7Z"/>
    <path class="st1" d="M78.9,20.1v-.7l1-.3-.2.3v-7.5l.2.2-1-.3v-.7h2c0,0,.2.9.2.9h-.2c.4-.4.7-.7,1.1-.9s.7-.3,1.1-.3.9.1,1.2.4c.4.2.6.6.8,1.1s.3,1.1.3,1.7-.1,1.4-.4,1.9c-.3.5-.6.9-1.1,1.2-.5.3-1,.4-1.6.4s-.4,0-.6,0c-.2,0-.4,0-.7-.1l.2-.2v2.2l-.2-.2,1.2.3v.7h-3.3ZM82.2,16.4c.6,0,1.1-.2,1.4-.6.3-.4.4-1,.4-1.7s0-.9-.2-1.2-.3-.6-.5-.8-.5-.3-.8-.3-.5,0-.7.2c-.3.1-.5.3-.8.6l.2-.4v4.3l-.2-.3c.4.1.8.2,1.1.2Z"/>
    <path class="st1" d="M89.2,17.4c-.6,0-1.1-.1-1.5-.4-.4-.2-.8-.6-1-1.1-.2-.5-.4-1.1-.4-1.8s.1-1.3.4-1.8c.3-.5.6-.9,1.1-1.2.5-.3,1-.4,1.6-.4s1.1.1,1.5.4.7.6.8,1c.2.4.3.9.3,1.5s0,.2,0,.3c0,.1,0,.3,0,.4h-4.5v-.9h3.2-.2c0-.2,0-.5-.1-.8,0-.3-.2-.5-.4-.6-.2-.2-.4-.2-.7-.2s-.6,0-.8.3c-.2.2-.4.5-.5.8-.1.3-.2.7-.2,1.1s0,.9.2,1.2c.1.3.3.6.6.8.3.2.6.3,1,.3s.6,0,.9-.2c.3-.1.7-.3,1-.5l.5.8c-.5.3-.9.6-1.4.7-.5.2-.9.2-1.4.2Z"/>
    <path class="st1" d="M98.1,16.6l-.2-.3,1.1.3v.8h-2c0,0-.2-1.1-.2-1.1h.1c-.3.4-.7.7-1.1.9-.4.2-.8.3-1.2.3s-.9-.2-1.2-.5c-.3-.3-.5-.8-.5-1.4s.1-.8.3-1.1c.2-.3.5-.5.9-.6.4-.1.8-.2,1.3-.2h1.4-.1c0,.1,0-.8,0-.8,0-.4,0-.7-.3-.8s-.5-.3-.9-.3-.4,0-.6,0c-.2,0-.4,0-.7.2l.2-.2v1h-1.1v-1.7c.4-.2.9-.3,1.3-.3.4,0,.8-.1,1.2-.1.7,0,1.3.2,1.6.5.4.3.6.8.6,1.4v3.9ZM94.4,15.5c0,.3,0,.6.2.7.2.2.3.2.6.2s.5,0,.8-.2c.3-.1.5-.3.8-.6v.3c0,0,0-1.4,0-1.4h.1c0,.1-1.2.1-1.2.1-.5,0-.8,0-1,.2-.2.1-.3.4-.3.7Z"/>
    <path class="st1" d="M99.4,17.3v-.7l1-.3-.2.3v-7.7.2c.1,0-.8-.3-.8-.3v-.7h2.3c0,0,0,5.4,0,5.4l-.2-.2h1.6l-.4.2,1.2-1.8v.2c.1,0-.8-.2-.8-.2v-.7h2.8c0,0,0,.6,0,.6l-1,.2.4-.2-1.5,2.2v-.4s1.7,3,1.7,3l-.2-.2.9.2v.7h-1.8l-1.6-3.1h.2c0,.1-1.5.1-1.5.1h.2c0-.1,0,2.3,0,2.3l-.2-.3,1,.3v.7h-3.1Z"/>
    <path class="st1" d="M109.1,17.4c-.6,0-1.1-.1-1.5-.4-.4-.2-.8-.6-1-1.1-.2-.5-.4-1.1-.4-1.8s.1-1.3.4-1.8c.3-.5.6-.9,1.1-1.2.5-.3,1-.4,1.6-.4s1.1.1,1.5.4.7.6.8,1c.2.4.3.9.3,1.5s0,.2,0,.3c0,.1,0,.3,0,.4h-4.5v-.9h3.2-.2c0-.2,0-.5-.1-.8,0-.3-.2-.5-.4-.6-.2-.2-.4-.2-.7-.2s-.6,0-.8.3c-.2.2-.4.5-.5.8-.1.3-.2.7-.2,1.1s0,.9.2,1.2c.1.3.3.6.6.8.3.2.6.3,1,.3s.6,0,.9-.2c.3-.1.7-.3,1-.5l.5.8c-.5.3-.9.6-1.4.7-.5.2-.9.2-1.4.2Z"/>
    <path class="st1" d="M112.8,17.3v-.7l1-.3v.2c-.1,0-.1-4.8-.1-4.8l.2.3-1-.3v-.7h2c0,0,.2,1.1.2,1.1h-.2c.4-.4.7-.7,1.1-.9s.7-.3,1.1-.3.5,0,.8.1v2h-.9l-.2-1.2v.3c0,0,0,0,0,0,0,0-.1,0-.2,0-.3,0-.5,0-.8.2s-.5.4-.7.6v-.4c.1,0,.1,4.1.1,4.1l-.2-.2,1.2.3v.7h-3.3Z"/>
    <path class="st1" d="M119.8,12.5c0,.2,0,.4.2.5s.4.2.6.3c.3,0,.5.2.8.3.3,0,.6.2.8.3.3.1.5.3.6.6.2.2.2.5.2.9s-.1.8-.4,1.1c-.2.3-.6.5-1,.7-.4.2-.9.2-1.4.2s-.6,0-1,0c-.3,0-.7-.1-1.1-.2v-1.8h1v1.1c.1,0,0-.2,0-.2.2,0,.3,0,.5.1.2,0,.4,0,.5,0,.2,0,.4,0,.6,0,.2,0,.4-.2.5-.3.1-.1.2-.3.2-.5s0-.4-.2-.5c-.2-.1-.4-.2-.6-.3s-.5-.2-.8-.3-.5-.2-.8-.3c-.3-.1-.5-.3-.6-.6-.2-.2-.2-.5-.2-.9s.1-.8.3-1.1c.2-.3.5-.5.9-.6.4-.1.8-.2,1.2-.2s.6,0,1,0c.4,0,.7.1,1.1.3v1.5h-1l-.2-.9.2.2c-.4-.1-.7-.2-1-.2s-.6,0-.8.2c-.2.1-.3.3-.3.5Z"/>
    <path class="st1" d="M46.7,31l-.4-.3,1.1.3v.7h-3.3v-.7l1.1-.3v.2c-.1,0-.7-1.7-.7-1.7l.2.2h-3.3l.2-.2-.6,1.6v-.2s1,.3,1,.3v.7h-3.1v-.7l1-.3-.3.3,2.9-7.7h1.5s2.7,7.7,2.7,7.7ZM41.8,28.6v-.2c-.1,0,2.7,0,2.7,0v.2c-.1,0-1.5-4.5-1.5-4.5h.3s-1.5,4.5-1.5,4.5Z"/>
    <path class="st1" d="M49.3,26.9c0,.2,0,.4.2.5s.4.2.6.3c.3,0,.5.2.8.3.3,0,.6.2.8.3.3.1.5.3.6.6.2.2.2.5.2.9s-.1.8-.4,1.1c-.2.3-.6.5-1,.7-.4.2-.9.2-1.4.2s-.6,0-1,0c-.3,0-.7-.1-1.1-.2v-1.8h1v1.1c.1,0,0-.2,0-.2.2,0,.3,0,.5.1.2,0,.4,0,.5,0,.2,0,.4,0,.6,0,.2,0,.4-.2.5-.3.1-.1.2-.3.2-.5s0-.4-.2-.5c-.2-.1-.4-.2-.6-.3s-.5-.2-.8-.3-.5-.2-.8-.3c-.3-.1-.5-.3-.6-.6-.2-.2-.2-.5-.2-.9s.1-.8.3-1.1c.2-.3.5-.5.9-.6.4-.1.8-.2,1.2-.2s.6,0,1,0c.4,0,.7.1,1.1.3v1.5h-1l-.2-.9.2.2c-.4-.1-.7-.2-1-.2s-.6,0-.8.2c-.2.1-.3.3-.3.5Z"/>
    <path class="st1" d="M55.1,26.9c0,.2,0,.4.2.5s.4.2.6.3c.3,0,.5.2.8.3.3,0,.6.2.8.3.3.1.5.3.6.6.2.2.2.5.2.9s-.1.8-.4,1.1c-.2.3-.6.5-1,.7-.4.2-.9.2-1.4.2s-.6,0-1,0c-.3,0-.7-.1-1.1-.2v-1.8h1v1.1c.1,0,0-.2,0-.2.2,0,.3,0,.5.1.2,0,.4,0,.5,0,.2,0,.4,0,.6,0,.2,0,.4-.2.5-.3.1-.1.2-.3.2-.5s0-.4-.2-.5c-.2-.1-.4-.2-.6-.3s-.5-.2-.8-.3-.5-.2-.8-.3c-.3-.1-.5-.3-.6-.6-.2-.2-.2-.5-.2-.9s.1-.8.3-1.1c.2-.3.5-.5.9-.6.4-.1.8-.2,1.2-.2s.6,0,1,0c.4,0,.7.1,1.1.3v1.5h-1l-.2-.9.2.2c-.4-.1-.7-.2-1-.2s-.6,0-.8.2c-.2.1-.3.3-.3.5Z"/>
    <path class="st1" d="M62.5,25.2c.9,0,1.7.3,2.2.8.5.6.8,1.3.8,2.4s-.1,1.3-.4,1.8c-.3.5-.6.9-1.1,1.2-.5.3-1,.4-1.7.4s-1.6-.3-2.1-.8c-.5-.6-.8-1.3-.8-2.4s.1-1.3.4-1.8c.2-.5.6-.9,1.1-1.2.5-.3,1-.4,1.7-.4ZM62.4,26.2c-.5,0-.9.2-1.1.6-.3.4-.4,1-.4,1.8s.1,1.3.4,1.7.6.5,1.1.5.6,0,.9-.3c.2-.2.4-.4.5-.8.1-.3.2-.8.2-1.3,0-.8-.1-1.3-.4-1.7-.3-.4-.6-.6-1.1-.6Z"/>
    <path class="st1" d="M69.1,31.8c-.5,0-1-.1-1.5-.4-.4-.3-.8-.6-1-1.1-.2-.5-.4-1.1-.4-1.8s0-1.1.3-1.6c.2-.4.4-.8.7-1,.3-.3.6-.5,1-.6s.8-.2,1.2-.2.7,0,1.1.1.7.2,1,.3v1.7h-1l-.2-1h.1c-.2,0-.3,0-.5,0-.2,0-.4,0-.5,0-.4,0-.7,0-.9.3-.3.2-.4.5-.6.8s-.2.7-.2,1.2,0,.9.2,1.2c.1.3.3.6.6.8.3.2.5.3.9.3s.5,0,.9-.2c.3-.1.6-.3.9-.5l.5.7c-.4.3-.9.6-1.3.7-.4.2-.9.2-1.3.2Z"/>
    <path class="st1" d="M74.5,30.9h-.1c0-.1,1,.1,1,.1v.7h-3.1v-.7l1-.3h-.1c0,.1,0-4.5,0-4.5h0c0,.1-.9-.1-.9-.1v-.7h2.3c0,0,0,5.5,0,5.5ZM73.8,24.2c-.3,0-.5,0-.6-.2s-.2-.4-.2-.6,0-.5.3-.7c.2-.1.4-.2.6-.2s.5,0,.6.2c.2.1.2.4.2.7s0,.5-.3.7c-.2.1-.4.2-.6.2Z"/>
    <path class="st1" d="M81.1,31l-.2-.3,1.1.3v.8h-2c0,0-.2-1.1-.2-1.1h.1c-.3.4-.7.7-1.1.9-.4.2-.8.3-1.2.3s-.9-.2-1.2-.5c-.3-.3-.5-.8-.5-1.4s.1-.8.3-1.1c.2-.3.5-.5.9-.6.4-.1.8-.2,1.3-.2h1.4-.1c0,.1,0-.8,0-.8,0-.4,0-.7-.3-.8s-.5-.3-.9-.3-.4,0-.6,0c-.2,0-.4,0-.7.2l.2-.2v1h-1.1v-1.7c.4-.2.9-.3,1.3-.3.4,0,.8-.1,1.2-.1.7,0,1.3.2,1.6.5.4.3.6.8.6,1.4v3.9ZM77.4,29.9c0,.3,0,.6.2.7.2.2.3.2.6.2s.5,0,.8-.2c.3-.1.5-.3.8-.6v.3c0,0,0-1.4,0-1.4h.1c0,.1-1.2.1-1.2.1-.5,0-.8,0-1,.2-.2.1-.3.4-.3.7Z"/>
    <path class="st1" d="M84.8,31.8c-.5,0-.9-.2-1.2-.5-.3-.3-.4-.8-.4-1.4v-3.9l.2.2h-1.2v-.8l1.2-.2-.2.3v-1.6l1.5-.3v1.9l-.2-.2h1.8v1h-1.8l.2-.2v3.7c0,.3,0,.6.2.7.1.2.3.2.5.2s.3,0,.4,0c.2,0,.3-.1.5-.2l.3.8c-.6.4-1.2.5-1.8.5Z"/>
    <path class="st1" d="M89.5,30.9h-.1c0-.1,1,.1,1,.1v.7h-3.1v-.7l1-.3h-.1c0,.1,0-4.5,0-4.5h0c0,.1-.9-.1-.9-.1v-.7h2.3c0,0,0,5.5,0,5.5ZM88.7,24.2c-.3,0-.5,0-.6-.2s-.2-.4-.2-.6,0-.5.3-.7c.2-.1.4-.2.6-.2s.5,0,.6.2c.2.1.2.4.2.7s0,.5-.3.7c-.2.1-.4.2-.6.2Z"/>
    <path class="st1" d="M94,25.2c.9,0,1.7.3,2.2.8.5.6.8,1.3.8,2.4s-.1,1.3-.4,1.8c-.3.5-.6.9-1.1,1.2-.5.3-1,.4-1.7.4s-1.6-.3-2.1-.8c-.5-.6-.8-1.3-.8-2.4s.1-1.3.4-1.8c.2-.5.6-.9,1.1-1.2.5-.3,1-.4,1.7-.4ZM94,26.2c-.5,0-.9.2-1.1.6-.3.4-.4,1-.4,1.8s.1,1.3.4,1.7.6.5,1.1.5.6,0,.9-.3c.2-.2.4-.4.5-.8.1-.3.2-.8.2-1.3,0-.8-.1-1.3-.4-1.7-.3-.4-.6-.6-1.1-.6Z"/>
    <path class="st1" d="M97.8,31.7v-.7l1-.3-.2.2v-4.8l.2.2-1-.3v-.7h2c0,0,.2,1.1.2,1.1h-.2c.4-.5.8-.8,1.2-1s.8-.3,1.2-.3,1,.2,1.3.5c.4.3.5.8.5,1.5v3.7-.2c-.1,0,.9.3.9.3v.7h-3.1v-.7l1-.3-.2.2v-3.4c0-.4,0-.7-.3-.9-.2-.2-.4-.3-.8-.3s-.5,0-.8.2c-.3.1-.6.3-.9.6v-.2c.1,0,.1,4.1.1,4.1v-.2c-.1,0,.8.3.8.3v.7h-3.1Z"/>
  </g>
  <path class="st2" d="M54,53.8h0c0-9.9-8.1-17.8-18-17.8s-17.9,8-18,17.8h0v81.2h36V53.8h0Z"/>
  <path class="st0" d="M90,53.8h0c0-9.9-8.1-17.8-18-17.8s-17.9,8-18,17.8h0v81.2h36V53.8h0Z"/>
  <path class="st3" d="M126,53.8h0c0-9.9-8.1-17.8-18-17.8s-17.9,8-18,17.8h0v81.2h36V53.8h0Z"/>
</svg>