<?xml version="1.0" encoding="UTF-8"?>
<svg id="logo" xmlns="http://www.w3.org/2000/svg" version="1.1" viewBox="0 0 146.8 155.1">
  <!-- Generator: Adobe Illustrator 30.4.0, SVG Export Plug-In . SVG Version: 2.1.4 Build 226)  -->
  <defs>
    <style>
      .st0 {
        fill: none;
      }

      .st1 {
        fill: #447f9e;
      }

      .st2 {
        fill: #f0dda2;
      }
    </style>
  </defs>
  <path class="st1" d="M26.8,17.9l-9.6,22.2,42.8-.7v6.5l-15,2.7,27.6,81.8,29.7-81.5-15-2.2v-6.5l40.1-.7h.1L105.8,2.9c-1.3-2.2-3.8-3.3-6.3-2.8L31.1,14.5c-.5.1-1,.3-1.4.5-1.2.6-2.3,1.6-2.8,3,0,0,0,0,0,0Z"/>
  <path class="st1" d="M14.3,46.8L.5,78.8c-.6,1.5-.6,3.2,0,4.7l26.2,61.4c.8,2,2.7,3.3,4.8,3.6l33.1,3.4L30.5,48.9s-16.1-2.2-16.1-2.2Z"/>
  <path class="st1" d="M146,70.7l-15.4-26h-.1s-15.9,3.7-15.9,3.7l-35.1,105,17.3,1.8c1.1.1,2.2-.1,3.2-.6,1-.5,1.9-1.3,2.5-2.3l43.6-75.5c1.1-1.8,1.1-4.1,0-6h0Z"/>
  <polygon class="st0" points="14.3 46.8 14.3 46.8 14.3 46.8 14.3 46.8"/>
  <polyline class="st2" points="14.3 46.8 14.3 46.8 14.3 46.8 30.5 48.9 64.6 151.8 64.6 151.7 64.6 151.9 79.5 153.4 79.5 153.4 79.4 153.3 81 148.7 114.6 48.4 130.4 44.7 127.3 39.4 87.3 40.2 87.3 46.6 102.3 48.9 72.7 130.4 45.1 48.6 60.1 45.9 60.1 39.4 17.2 40.2"/>
  <polygon class="st2" points="14.3 46.8 14.3 46.8 14.3 46.8 14.3 46.8"/>
</svg>