<svg width="107" height="24" viewBox="0 0 107 24" fill="none" xmlns="http://www.w3.org/2000/svg">
<g clip-path="url(#clip0_121_4253)">
<mask id="mask0_121_4253" style="mask-type:luminance" maskUnits="userSpaceOnUse" x="0" y="0" width="107" height="24">
<path d="M107 0H0V24H107V0Z" fill="white"/>
</mask>
<g mask="url(#mask0_121_4253)">
<path d="M9.64104 23.94H7.81348V-0.0599976L9.64104 1.46867V23.94Z" fill="#6A7282"/>
<path d="M3.85376 23.94H5.68132V4.59174L3.85376 6.12039V23.94Z" fill="#6A7282"/>
<path d="M1.87395 23.94H0.0463867V10.7064L1.87395 9.17773V23.94Z" fill="#6A7282"/>
<path d="M17.4082 23.94H15.5806V9.17773L17.4082 10.7064V23.94Z" fill="#6A7282"/>
<path d="M11.7732 23.94H13.6007V6.12039L11.7732 4.59174V23.94Z" fill="#6A7282"/>
<path fill-rule="evenodd" clip-rule="evenodd" d="M37.293 17.1761V16.351H35.261V17.1395C35.261 18.8997 35.8285 20.472 38.2735 20.472C40.7186 20.472 41.3694 18.6981 41.3694 16.8048C41.3694 14.5587 40.7686 13.7015 38.8075 12.2208C37.656 11.3636 37.4807 10.8456 37.4807 9.96092C37.4807 9.07621 37.6352 8.49404 38.3152 8.49404C38.9953 8.49404 39.1497 9.07162 39.1497 9.98842V10.6439H41.1524V9.92883C41.1524 8.48029 40.7269 6.72003 38.3611 6.72003C35.9954 6.72003 35.4738 8.49404 35.4738 10.2497C35.4738 12.2254 36.229 12.9588 37.6352 14.0865C39.0412 15.2142 39.3458 15.6588 39.3458 17.0937C39.3458 17.96 39.1205 18.721 38.3527 18.721C37.5851 18.721 37.293 18.1662 37.293 17.1761ZM25.481 20.2794L25.9358 16.713H27.9595L28.4768 20.2794H30.5881L28.3975 6.93538H25.5436L23.4324 20.2794H25.481ZM26.9789 8.89274C27.1291 10.4009 27.4129 12.5508 27.7132 14.8199H26.2029C26.2433 14.512 26.2871 14.1826 26.3323 13.8417L26.3324 13.8413C26.5771 11.9993 26.8664 9.82104 26.9122 8.89274H26.9789ZM52.6391 20.2794H51.0619C51.0045 19.9496 50.9683 19.6156 50.9534 19.2801C50.5904 20.1694 49.8268 20.4766 48.984 20.4766C47.0563 20.4766 46.4346 19.0556 46.4346 16.8094V10.5247C46.4346 8.34728 47.2691 6.74288 49.5431 6.74288C52.2927 6.74288 52.5848 8.80111 52.5848 10.2359V10.6668H50.5529V10.1351C50.5529 9.42912 50.4527 8.61775 49.5306 8.61775C48.7921 8.61775 48.4791 9.13573 48.4791 10.2038V17.0294C48.4791 18.0975 48.7837 18.6521 49.514 18.6521C50.3902 18.6521 50.603 17.9096 50.603 16.5344V14.5862H49.468V12.8166H52.6391V20.2794ZM59.6908 20.2794L60.1498 16.713H62.1567L62.674 20.2794H64.7769L62.5864 6.93536H59.7325L57.6463 20.2794H59.6908ZM61.1929 8.89273C61.343 10.4009 61.6267 12.5507 61.9271 14.8198H60.4001C60.4405 14.5119 60.4843 14.1824 60.5296 13.8413V13.841L60.5297 13.8407C60.7743 11.9988 61.0636 9.8209 61.1094 8.89273H61.1929ZM71.6861 14.3156V20.2748H69.6668V6.93536H72.4623C74.4567 6.93536 75.6333 7.75131 75.6333 10.1442V10.653C75.6333 12.702 74.7988 13.2246 74.3022 13.4355C75.0658 13.8022 75.4998 14.3523 75.4998 16.1859C75.4664 17.5533 75.5068 18.9218 75.6208 20.284H73.6681C73.5203 19.5914 73.5282 17.8598 73.5331 16.7771C73.5338 16.6059 73.5346 16.451 73.5346 16.3188C73.5346 14.6915 73.3259 14.3202 72.1535 14.3202L71.6861 14.3156ZM71.6861 12.6149H72.1493C73.2174 12.6149 73.6096 12.2024 73.6096 10.7538V10.2954C73.6096 9.26403 73.401 8.63602 72.2577 8.63602H71.6861V12.6149ZM83.8574 6.93536H81.0577V20.2794H83.8574C86.9699 20.2794 87.3121 18.0378 87.3121 15.998V10.8822C87.3121 8.40224 86.6361 6.93536 83.8574 6.93536ZM83.7447 18.5283H83.098V8.70478H83.7322C85.0674 8.70478 85.276 9.49323 85.276 10.7172V16.2776C85.276 17.6573 85.0757 18.5283 83.7447 18.5283ZM94.7804 6.93536V20.2794H92.761V6.93536H94.7804ZM101.782 20.2794L102.241 16.713H104.256L104.769 20.2794H106.88L104.69 6.93536H101.836L99.7247 20.2794H101.782ZM103.909 14.0141C103.943 14.2804 103.979 14.5493 104.014 14.8198H102.495C102.52 14.6313 102.547 14.4346 102.574 14.2322C102.83 12.3184 103.156 9.88764 103.205 8.89273H103.28C103.412 10.221 103.651 12.0472 103.909 14.0141Z" fill="#6A7282"/>
</g>
</g>
<defs>
<clipPath id="clip0_121_4253">
<rect width="107" height="24" fill="white"/>
</clipPath>
</defs>
</svg>
