<svg width="72" height="24" viewBox="0 0 72 24" fill="none" xmlns="http://www.w3.org/2000/svg">
<g clip-path="url(#clip0_121_4195)">
<mask id="mask0_121_4195" style="mask-type:luminance" maskUnits="userSpaceOnUse" x="0" y="0" width="72" height="24">
<path d="M72 0H0V24H72V0Z" fill="white"/>
</mask>
<g mask="url(#mask0_121_4195)">
<path d="M16.5225 4.32C16.5225 6.70588 14.5786 8.64 12.1808 8.64C9.78297 8.64 7.83911 6.70588 7.83911 4.32C7.83911 1.93412 9.78297 0 12.1808 0C14.5786 0 16.5225 1.93412 16.5225 4.32Z" fill="#99A1AF"/>
<path d="M11.8468 12.5436C10.3201 10.9916 8.49704 9.75884 6.48479 8.91766C4.47254 8.07647 2.31165 7.64386 0.129028 7.64521V16.3716C1.77084 16.3736 3.3688 16.8991 4.68847 17.8709C6.00815 18.8428 6.98009 20.2098 7.46169 21.7716C7.92488 18.3172 9.45751 15.0919 11.8468 12.5436Z" fill="#99A1AF"/>
<path d="M24.2327 7.6452V16.3716C22.2 16.3741 20.2515 17.1787 18.8142 18.6088C17.377 20.0388 16.5685 21.9776 16.566 24H7.79565C7.79565 14.982 15.1694 7.6452 24.2327 7.6452Z" fill="#99A1AF"/>
<path d="M71.682 17.1446L71.9765 18.5002L71.9029 18.6284C71.6452 18.8116 71.2585 18.9398 70.7431 18.9398C69.4728 18.9398 68.8284 18.1338 68.8284 16.8882V13.3711C68.8284 11.979 67.9999 11.0631 66.6192 11.0631C65.2384 11.0631 64.2995 11.979 64.2995 13.3711V18.72H62.2744V11.8874C62.2744 11.3928 62.2008 11.0814 61.851 11.0814C61.7221 11.0814 61.6301 11.1364 61.5564 11.1913L61.4276 11.1364L61.1331 9.78082L61.2066 9.65259C61.4644 9.46942 61.851 9.34119 62.3297 9.34119C63.1581 9.34119 63.7656 9.76249 64.005 10.4952C64.7229 9.78082 65.7723 9.34119 67.0058 9.34119C69.3438 9.34119 70.8351 10.9165 70.8351 13.2062V16.3936C70.8351 16.8882 70.9271 17.1996 71.2585 17.1996C71.3874 17.1996 71.4795 17.1446 71.553 17.0897L71.682 17.1446Z" fill="#6A7282"/>
<path d="M60.589 17.1446L60.8835 18.5002L60.8098 18.6284C60.5521 18.7933 60.1656 18.9398 59.7052 18.9398C58.8031 18.9398 58.1956 18.4452 57.9931 17.6026C57.1831 18.4086 56.0601 18.9398 54.7161 18.9398C52.0099 18.9398 50.0952 16.8149 50.0952 14.1406C50.0952 11.4478 52.0099 9.34119 54.7161 9.34119C56.0601 9.34119 57.1647 9.87241 57.9747 10.6601V9.561H59.7421V16.3936C59.7421 16.9066 59.8526 17.1996 60.1656 17.1996C60.3312 17.1996 60.4233 17.1263 60.4601 17.0897L60.589 17.1446ZM55.0291 17.1996C56.6308 17.1996 57.9195 16.1005 57.9195 14.1406C57.9195 12.1621 56.6308 11.0814 55.0475 11.0814C53.2618 11.0814 52.1387 12.4553 52.1387 14.1406C52.1387 15.8441 53.2801 17.1996 55.0291 17.1996Z" fill="#6A7282"/>
<path d="M46.7859 9.561H48.7742V17.1263C48.7742 20.0572 46.6387 21.5044 44.1165 21.5044C42.3307 21.5044 40.9316 20.7533 40.0295 19.636V19.5077L40.9499 18.4086H41.0972C41.7416 19.2512 42.8094 19.929 44.1349 19.929C45.6261 19.929 46.8228 19.0498 46.8228 17.3645V16.8882C46.16 17.5476 45.2395 17.9507 44.098 17.9507C42.0545 17.9507 40.4345 16.7417 40.4345 14.3237V11.8874C40.4345 11.3928 40.3425 11.0814 40.011 11.0814C39.8821 11.0814 39.7901 11.1364 39.7165 11.1913L39.5876 11.1364L39.2931 9.78082L39.3667 9.65259C39.6244 9.46942 39.9926 9.34119 40.5082 9.34119C41.7416 9.34119 42.4044 10.0739 42.4044 11.3378V14.1772C42.4044 15.4777 43.2144 16.247 44.4847 16.247C45.7918 16.247 46.7859 15.3128 46.7859 13.939V9.561Z" fill="#6A7282"/>
<path d="M39.4481 17.0531L39.8347 18.4636L39.7795 18.5917C39.4665 18.8116 39.0799 18.9399 38.546 18.9399C37.423 18.9399 36.4841 18.2621 35.6556 17.2546L32.6732 13.6643L31.6606 14.7634V18.72H29.6171V9.35952C29.6171 8.75503 29.5436 8.40698 29.1385 8.40698C28.9912 8.40698 28.8623 8.46194 28.8072 8.53521L28.6598 8.48025L28.3285 7.05145L28.4205 6.90491C28.6415 6.75836 29.0832 6.59351 29.6724 6.59351C30.9795 6.59351 31.6606 7.49108 31.6606 8.75503V12.3087L36.7602 6.81332H39.0799L39.1536 6.92323L34.146 12.3636L37.2941 16.1005C37.9753 16.8882 38.3619 17.1263 38.7854 17.1263C38.9879 17.1263 39.1719 17.0713 39.3008 16.9981L39.4481 17.0531Z" fill="#6A7282"/>
</g>
</g>
<defs>
<clipPath id="clip0_121_4195">
<rect width="72" height="24" fill="white"/>
</clipPath>
</defs>
</svg>
