<svg width="76" height="24" viewBox="0 0 76 24" fill="none" xmlns="http://www.w3.org/2000/svg">
<g clip-path="url(#clip0_122_4265)">
<path d="M11.1786 9.6336L14.0319 9.9852L16.0629 13.35L7.59519 24L10.6041 14.2416L7.75078 13.89L5.71973 10.5264L14.1156 0L11.1786 9.6336Z" fill="#6A7282"/>
<path d="M2.70247 12C2.70493 9.91907 3.49472 7.91655 4.9124 6.39669C6.33008 4.87683 8.27008 3.95283 10.3408 3.81123L12.3443 1.29843C9.68085 0.933551 6.97758 1.58038 4.76551 3.11186C2.55344 4.64333 0.992443 6.94876 0.389161 9.57527C-0.214123 12.2017 0.183909 14.9596 1.50507 17.3069C2.82623 19.6541 4.97502 21.4213 7.52936 22.2612L8.29296 19.7844C6.66593 19.2365 5.25135 18.1906 4.24843 16.7941C3.24551 15.3976 2.7048 13.7208 2.70247 12Z" fill="#6A7282"/>
<path d="M14.1934 1.71838L13.437 4.19998C15.2511 4.79426 16.8013 6.00538 17.8192 7.624C18.8373 9.24262 19.2593 11.167 19.0122 13.0645C18.7652 14.962 17.8647 16.7132 16.4664 18.0157C15.0681 19.3181 13.2601 20.0897 11.3545 20.1972L9.3689 22.6932C12.0431 23.0806 14.7647 22.4462 16.9942 20.9159C19.2237 19.3855 20.7982 17.071 21.4055 14.4312C22.0126 11.7914 21.6081 9.01929 20.2723 6.66452C18.9364 4.30975 16.7667 2.54433 14.1934 1.71838Z" fill="#6A7282"/>
<path d="M26.8303 18V5.54626H27.964V16.9803H34.0829V18H26.8303Z" fill="#6A7282"/>
<path d="M47.9183 18V12.6423C47.9183 11.7731 48.1657 11.1184 48.6604 10.6782C49.1549 10.238 49.7607 10.0179 50.4777 10.0179C51.2001 10.0179 51.7698 10.2324 52.1865 10.6615C52.6089 11.0905 52.8201 11.7007 52.8201 12.492V18H53.8955V12.425C53.8955 11.6895 53.7509 11.0682 53.462 10.5612C53.1786 10.0541 52.7924 9.66964 52.3032 9.40776C51.8142 9.14586 51.264 9.01491 50.6526 9.01491C50.0747 9.01491 49.5495 9.14029 49.0771 9.39104C48.6047 9.64178 48.2185 10.0263 47.9183 10.5445V5.54626H46.8513V18H47.9183Z" fill="#6A7282"/>
<path d="M58.9602 9.17377V10.1182H57.1263V16.0192C57.1263 16.3925 57.2068 16.66 57.3679 16.8215C57.5348 16.9775 57.8098 17.0555 58.1933 17.0555H58.9602V18H58.1098C56.7372 18 56.0509 17.3731 56.0509 16.1194V10.1182H54.5503V9.17377H56.0509V6.7666H57.1263V9.17377H58.9602Z" fill="#6A7282"/>
<path fill-rule="evenodd" clip-rule="evenodd" d="M41.3865 21.594C40.3805 21.594 39.5553 21.36 38.9105 20.8919C38.2659 20.4294 37.8797 19.7776 37.7519 18.9361H38.8522C38.9856 19.4766 39.269 19.8946 39.7025 20.1899C40.1415 20.4852 40.7028 20.6328 41.3865 20.6328C42.259 20.6328 42.937 20.3988 43.4205 19.9307C43.904 19.4682 44.1457 18.8247 44.1457 18V16.3284H44.1374C43.8595 16.9023 43.4594 17.3508 42.937 17.6741C42.4145 17.9973 41.82 18.1588 41.1529 18.1588C40.3971 18.1588 39.7303 17.9694 39.1523 17.5905C38.5798 17.206 38.1297 16.671 37.8019 15.9857C37.4795 15.2947 37.3184 14.4952 37.3184 13.5869C37.3184 12.6786 37.4795 11.8818 37.8019 11.1964C38.1297 10.5111 38.5827 9.97614 39.1607 9.59167C39.7386 9.20719 40.4028 9.01495 41.1529 9.01495C41.8143 9.01495 42.4146 9.17933 42.9536 9.50808C43.4927 9.83127 43.89 10.291 44.1457 10.8872H44.1541V9.17376H45.2044V18C45.2044 18.8191 45.0349 19.4933 44.6959 20.0227C44.3624 20.5576 43.9068 20.9532 43.3288 21.2095C42.7564 21.4659 42.1089 21.594 41.3865 21.594ZM41.2948 17.1725C42.1784 17.1725 42.8842 16.8493 43.4121 16.203C43.9457 15.5511 44.2125 14.679 44.2125 13.5869C44.2125 12.4948 43.9457 11.6227 43.4121 10.9708C42.8842 10.3188 42.1784 9.99286 41.2948 9.99286C40.4611 9.99286 39.7692 10.3049 39.219 10.929C38.6744 11.5531 38.402 12.439 38.402 13.5869C38.402 14.7347 38.6744 15.6207 39.219 16.2448C39.7692 16.8633 40.4611 17.1725 41.2948 17.1725Z" fill="#6A7282"/>
<path d="M35.1045 18V9.17371H36.1715V18H35.1045Z" fill="#6A7282"/>
<path d="M35.0879 7.03403C35.2435 7.18447 35.4269 7.2597 35.6381 7.2597C35.8492 7.2597 36.0298 7.18447 36.1799 7.03403C36.3355 6.88357 36.4133 6.6997 36.4133 6.48239C36.4133 6.26507 36.3355 6.08119 36.1799 5.93075C36.0298 5.78029 35.8492 5.70508 35.6381 5.70508C35.4269 5.70508 35.2435 5.78029 35.0879 5.93075C34.9378 6.08119 34.8628 6.26507 34.8628 6.48239C34.8628 6.6997 34.9378 6.88357 35.0879 7.03403Z" fill="#6A7282"/>
<path fill-rule="evenodd" clip-rule="evenodd" d="M61.3101 18L65.7449 5.54626H68.5126L72.9308 18H70.505L69.5129 15.0245H64.6945L63.6775 18H61.3101ZM65.3115 13.2108H68.9127L68.3291 11.4555C68.1457 10.8816 67.9568 10.2826 67.7623 9.6585C67.5733 9.03442 67.3622 8.32954 67.1288 7.54387C66.8953 8.32954 66.6814 9.03442 66.4868 9.6585C66.2923 10.2826 66.1006 10.8816 65.9116 11.4555L65.3115 13.2108Z" fill="#6A7282"/>
<path d="M75.7616 5.54626V18H73.5608V5.54626H75.7616Z" fill="#6A7282"/>
</g>
<defs>
<clipPath id="clip0_122_4265">
<rect width="76" height="24" fill="white"/>
</clipPath>
</defs>
</svg>
