<svg width="84" height="24" viewBox="0 0 84 24" fill="none" xmlns="http://www.w3.org/2000/svg">
<g clip-path="url(#clip0_121_4240)">
<mask id="mask0_121_4240" style="mask-type:luminance" maskUnits="userSpaceOnUse" x="0" y="0" width="84" height="24">
<path d="M84 0H0V24H84V0Z" fill="white"/>
</mask>
<g mask="url(#mask0_121_4240)">
<path d="M16.3433 4.32C16.3433 6.70588 14.4064 8.64 12.0171 8.64C9.62782 8.64 7.69092 6.70588 7.69092 4.32C7.69092 1.93412 9.62782 0 12.0171 0C14.4064 0 16.3433 1.93412 16.3433 4.32Z" fill="#6A7282"/>
<path d="M0.526352 7.52039C0.374936 7.52039 0.224721 7.52039 0.0757082 7.53239C0.0255592 7.97303 0.000283212 8.41613 0 8.85959C0 15.4596 5.38009 20.814 12.0172 20.814C12.1686 20.814 12.3176 20.814 12.4678 20.8032H12.618C18.9763 20.4912 24.0343 15.2652 24.0343 8.86319C24.034 8.41976 24.0091 7.97669 23.9598 7.53599C17.6015 7.84799 12.5435 13.074 12.5435 19.476C12.5435 12.8736 7.16343 7.52039 0.526352 7.52039Z" fill="#6A7282"/>
<path d="M12.63 21.0396H12.451C12.3814 21.0396 12.3104 21.042 12.2386 21.0443C12.1653 21.0468 12.0912 21.0492 12.0172 21.0492C9.19435 21.05 6.45762 20.0787 4.26851 18.2989C2.07939 16.5193 0.571809 14.0404 0 11.28C0.120172 18.3264 5.45579 24 12.0172 24C18.5737 24 23.9033 18.3324 24.0343 11.2896C23.4897 13.9497 22.0728 16.3525 20.0074 18.1183C17.9419 19.8841 15.346 20.9121 12.63 21.0396Z" fill="#6A7282"/>
<path d="M74.6429 7.5072C76.0849 7.5072 77.253 7.9464 78.1471 8.8248C79.0412 9.6888 79.4882 10.9416 79.4882 12.5832V19.56H77.5414V12.864C77.5414 11.6832 77.2458 10.7832 76.6546 10.164C76.0633 9.5304 75.2558 9.2136 74.2319 9.2136C73.1936 9.2136 72.3644 9.5376 71.7443 10.1856C71.1387 10.8336 70.8358 11.7768 70.8358 13.0152V19.56H68.8674V7.7232H70.8358V9.408C71.2252 8.8032 71.7515 8.3352 72.4149 8.004C73.0927 7.6728 73.8353 7.5072 74.6429 7.5072Z" fill="#6A7282"/>
<path d="M82.6819 19.6896C82.307 19.6896 81.9897 19.56 81.7302 19.3008C81.4706 19.0416 81.3408 18.7248 81.3408 18.3504C81.3408 17.976 81.4706 17.6592 81.7302 17.4C81.9897 17.1408 82.307 17.0112 82.6819 17.0112C83.0424 17.0112 83.3453 17.1408 83.5904 17.4C83.85 17.6592 83.9798 17.976 83.9798 18.3504C83.9798 18.7248 83.85 19.0416 83.5904 19.3008C83.3453 19.56 83.0424 19.6896 82.6819 19.6896Z" fill="#6A7282"/>
<path fill-rule="evenodd" clip-rule="evenodd" d="M66.8532 14.376C66.8965 13.9584 66.9181 13.5624 66.9181 13.188C66.9181 12.108 66.6801 11.1432 66.2043 10.2936C65.7428 9.42961 65.0795 8.75281 64.2142 8.26321C63.349 7.77361 62.354 7.52881 61.2292 7.52881C60.0755 7.52881 59.0517 7.78081 58.1576 8.28481C57.2779 8.77441 56.5929 9.48001 56.1026 10.4016C55.6123 11.3232 55.3672 12.396 55.3672 13.62C55.3672 14.844 55.6195 15.924 56.1243 16.86C56.629 17.7816 57.3212 18.4944 58.2008 18.9984C59.0949 19.5024 60.1044 19.7544 61.2292 19.7544C62.6424 19.7544 63.8249 19.4016 64.7766 18.696C65.7284 17.976 66.3629 17.0472 66.6802 15.9096H64.5603C64.3296 16.572 63.9258 17.1048 63.349 17.508C62.7866 17.8968 62.08 18.0912 61.2292 18.0912C60.1909 18.0912 59.304 17.7672 58.5686 17.1192C57.8475 16.4568 57.451 15.5424 57.3789 14.376H66.8532ZM64.3873 10.8552C64.7189 11.388 64.8848 12.0288 64.8848 12.7776H57.4005C57.5014 11.6544 57.898 10.776 58.5902 10.1424C59.2968 9.50881 60.1476 9.19201 61.1426 9.19201C61.8348 9.19201 62.4621 9.33601 63.0245 9.62401C63.6013 9.89761 64.0556 10.308 64.3873 10.8552Z" fill="#6A7282"/>
<path d="M49.0392 17.7456L52.7164 7.72321H54.8146L50.164 19.56H47.8711L43.2205 7.72321H45.3403L49.0392 17.7456Z" fill="#6A7282"/>
<path fill-rule="evenodd" clip-rule="evenodd" d="M30.6576 10.4232C30.1673 11.3304 29.9221 12.3888 29.9221 13.5984C29.9221 14.7936 30.1673 15.8592 30.6576 16.7952C31.1479 17.7312 31.8184 18.4584 32.6692 18.9768C33.5201 19.4952 34.4718 19.7544 35.5245 19.7544C36.5484 19.7544 37.4425 19.5312 38.2068 19.0848C38.9855 18.624 39.5695 18.048 39.9589 17.3568V19.56H41.9489V7.72321H39.9589V9.88321C39.5839 9.20641 39.0143 8.64481 38.25 8.19841C37.4857 7.75201 36.5844 7.52881 35.5462 7.52881C34.4935 7.52881 33.5345 7.78081 32.6692 8.28481C31.8184 8.78881 31.1479 9.50161 30.6576 10.4232ZM39.4181 11.2872C39.7786 11.9496 39.9589 12.7272 39.9589 13.62C39.9589 14.5128 39.7786 15.2976 39.4181 15.9744C39.0576 16.6368 38.5673 17.148 37.9472 17.508C37.3415 17.8536 36.671 18.0264 35.9355 18.0264C35.2001 18.0264 34.5295 17.8536 33.9238 17.508C33.3182 17.148 32.8351 16.6368 32.4746 15.9744C32.114 15.2976 31.9338 14.5056 31.9338 13.5984C31.9338 12.7056 32.114 11.928 32.4746 11.2656C32.8351 10.6032 33.3182 10.0992 33.9238 9.75361C34.5295 9.40801 35.2001 9.23521 35.9355 9.23521C36.671 9.23521 37.3415 9.41521 37.9472 9.77521C38.5673 10.1208 39.0576 10.6248 39.4181 11.2872Z" fill="#6A7282"/>
</g>
</g>
<defs>
<clipPath id="clip0_121_4240">
<rect width="84" height="24" fill="white"/>
</clipPath>
</defs>
</svg>
