<svg width="93" height="24" viewBox="0 0 93 24" fill="none" xmlns="http://www.w3.org/2000/svg">
<g clip-path="url(#clip0_121_4147)">
<mask id="mask0_121_4147" style="mask-type:luminance" maskUnits="userSpaceOnUse" x="0" y="0" width="93" height="24">
<path d="M93 0H0V24H93V0Z" fill="white"/>
</mask>
<g mask="url(#mask0_121_4147)">
<path d="M20.3192 3.7332C19.2459 2.58168 17.951 1.65773 16.5118 1.01657C15.0725 0.375412 13.5184 0.030186 11.9424 0.0015179C10.3664 -0.0271502 8.80078 0.26133 7.33904 0.849722C5.87731 1.43811 4.54947 2.31435 3.43488 3.42607C2.32028 4.53779 1.44177 5.8622 0.851861 7.32016C0.261946 8.77813 -0.0272803 10.3397 0.0014619 11.9117C0.030204 13.4837 0.376325 15.0337 1.01915 16.4693C1.66196 17.9048 2.58829 19.1964 3.74279 20.2668C4.81602 21.4183 6.11094 22.3423 7.55019 22.9835C8.98945 23.6246 10.5435 23.9699 12.1196 23.9984C13.6955 24.0271 15.2612 23.7386 16.7229 23.1503C18.1847 22.5619 19.5125 21.6857 20.6271 20.574C21.7417 19.4622 22.6202 18.1377 23.2102 16.6799C23.8 15.2219 24.0893 13.6603 24.0605 12.0883C24.0318 10.5164 23.6856 8.9663 23.0428 7.53076C22.4 6.09523 21.4737 4.80366 20.3192 3.7332ZM0.180405 11.7C0.181322 9.60303 0.756072 7.54609 1.84269 5.75092C2.92931 3.95576 4.48658 2.49047 6.34661 1.51304C8.20665 0.535595 10.2989 0.0830822 12.3977 0.204282C14.4967 0.325481 16.5226 1.01579 18.2571 2.20079C16.4606 1.14934 14.4147 0.596616 12.3318 0.6H11.9107C10.2951 0.599159 8.69987 0.959643 7.24241 1.65493C5.78494 2.35022 4.50232 3.3626 3.48894 4.61759C1.87628 6.46456 0.88512 8.76956 0.655043 11.208C0.424968 13.6464 0.96757 16.0953 2.20643 18.21C0.884301 16.2954 0.177653 14.0249 0.180405 11.7ZM10.5536 21.7908C9.12855 21.6488 7.7508 21.2029 6.51381 20.4831C5.27681 19.7633 4.20951 18.7866 3.38432 17.6191C2.55913 16.4516 1.99536 15.1208 1.73125 13.7169C1.46714 12.3129 1.50888 10.8688 1.85363 9.48241C2.19839 8.096 2.83809 6.79977 3.72934 5.68167C4.62059 4.56357 5.74252 3.64976 7.01904 3.00224C8.29556 2.35472 9.69678 1.98862 11.1276 1.92882C12.5585 1.86901 13.9855 2.11688 15.3119 2.6556C14.0075 2.19961 12.622 2.02031 11.2442 2.12923C9.86632 2.23813 8.52646 2.63283 7.31038 3.28806C6.0943 3.94327 5.0288 4.84456 4.18212 5.93422C3.33543 7.02388 2.72622 8.2779 2.39349 9.61596C2.06076 10.954 2.01184 12.3467 2.24987 13.7046C2.48791 15.0626 3.00765 16.3561 3.77581 17.5022C4.54395 18.6482 5.5436 19.6218 6.71073 20.3603C7.87786 21.0987 9.18675 21.5859 10.5536 21.7908ZM12.031 8.8476C15.4093 3.288 24.2365 11.5428 12.031 18.1836C-0.17451 11.5428 8.65266 3.288 12.031 8.8476ZM15.7607 21.1752C17.21 20.5892 18.5001 19.6698 19.5257 18.492C20.5512 17.3142 21.283 15.9113 21.6616 14.3977C22.0403 12.8841 22.0548 11.3027 21.7042 9.78243C21.3536 8.26216 20.6478 6.84607 19.6443 5.6496C18.2806 3.8804 16.3724 2.60648 14.2127 2.02338C12.0532 1.44028 9.76126 1.58023 7.68905 2.42175C5.61683 3.26326 3.87877 4.75984 2.74165 6.68175C1.60454 8.60366 1.13121 10.8447 1.39433 13.0608C1.16161 11.5968 1.23935 10.1003 1.62253 8.66809C2.0057 7.23588 2.68579 5.89975 3.61887 4.74599C4.67848 3.52822 5.98303 2.54634 7.44781 1.86411C8.91259 1.18188 10.5049 0.814559 12.1213 0.786C14.8097 0.838217 17.3788 1.9031 19.3126 3.76678C21.2463 5.63046 22.4014 8.15488 22.546 10.8331C22.6905 13.5113 21.8138 16.1448 20.0918 18.2047C18.3699 20.2647 15.9303 21.5985 13.263 21.9384C14.1249 21.7922 14.9644 21.5357 15.7607 21.1752ZM3.87393 20.136C2.35529 18.5091 1.34166 16.4784 0.955631 14.2891C0.569603 12.0999 0.827703 9.84602 1.69872 7.8C0.988281 9.80635 0.88786 11.9773 1.41007 14.0403C1.93228 16.1034 3.05383 17.9666 4.63397 19.3962C6.21411 20.8257 8.18241 21.7579 10.2918 22.0755C12.4012 22.3933 14.5577 22.0825 16.4906 21.182C18.4235 20.2817 20.0466 18.8318 21.1563 17.0145C22.266 15.1973 22.8128 13.0935 22.728 10.9674C22.6431 8.8413 21.9307 6.78753 20.6797 5.06391C19.4288 3.34029 17.6954 2.02363 15.6969 1.27919C17.371 1.79014 18.9068 2.67401 20.1881 3.864C22.2204 6.04776 23.3249 8.93232 23.2694 11.9114C23.2138 14.8904 22.0026 17.732 19.8902 19.839C17.7779 21.9458 14.9289 23.154 11.9421 23.2093C8.95536 23.2647 6.06334 22.1631 3.87393 20.136ZM12.3318 23.82C10.0009 23.8227 7.72448 23.1179 5.80491 21.7992C8.04407 23.1051 10.654 23.6342 13.2266 23.3036C15.7992 22.973 18.1895 21.8013 20.0236 19.9719C21.8577 18.1425 23.0323 15.7585 23.3638 13.1925C23.6953 10.6266 23.1649 8.02338 21.8556 5.79C23.0437 7.52004 23.7357 9.54072 23.8572 11.6342C23.9787 13.7276 23.525 15.8144 22.5451 17.6697C21.5652 19.5249 20.096 21.0782 18.2962 22.1621C16.4965 23.2458 14.4341 23.8191 12.3318 23.82Z" fill="#99A1AF"/>
<path d="M41.1677 5.43012C41.4582 5.71991 41.8248 5.86479 42.2676 5.86479C42.7242 5.86479 43.0907 5.71991 43.3675 5.43012C43.658 5.12654 43.8032 4.75397 43.8032 4.3124C43.8032 3.88463 43.658 3.51895 43.3675 3.21537C43.0907 2.9118 42.7242 2.76001 42.2676 2.76001C41.8248 2.76001 41.4582 2.9118 41.1677 3.21537C40.8771 3.51895 40.7319 3.88463 40.7319 4.3124C40.7319 4.75397 40.8771 5.12654 41.1677 5.43012Z" fill="#6A7282"/>
<path d="M41.0703 6.89972V17.2213H43.8095V6.89972H41.0703Z" fill="#6A7282"/>
<path d="M32.016 16.5452C32.7078 16.9178 33.4963 17.104 34.3818 17.104C35.2671 17.104 36.0489 16.9248 36.7267 16.566C37.4185 16.1934 37.9511 15.6759 38.3247 15.0135C38.7121 14.3512 38.9057 13.5784 38.9057 12.6954V6.89972H36.1871V12.6332C36.1871 13.2542 36.0281 13.7371 35.7099 14.0821C35.3917 14.4271 34.949 14.5995 34.3818 14.5995C34.0082 14.5995 33.6831 14.5237 33.4064 14.3719C33.1297 14.2201 32.9222 13.9993 32.7838 13.7095C32.6454 13.406 32.5763 13.0472 32.5763 12.6332V6.89972H29.837V12.6954C29.837 13.5646 30.0307 14.3305 30.4181 14.9929C30.8054 15.6552 31.3381 16.1726 32.016 16.5452Z" fill="#6A7282"/>
<path d="M87.9779 17.2491C88.4622 17.3871 88.9671 17.4561 89.4929 17.4561C90.5719 17.4561 91.4228 17.2009 92.0454 16.6903C92.6818 16.1659 93 15.469 93 14.5998C93 13.9788 92.8685 13.4889 92.6056 13.1301C92.3566 12.7575 92.0247 12.4677 91.6096 12.2608C91.1945 12.04 90.7588 11.8675 90.3022 11.7433C89.8456 11.6053 89.4098 11.4742 88.9948 11.3501C88.5937 11.2121 88.2616 11.0396 87.9987 10.8326C87.7358 10.6118 87.6045 10.3151 87.6045 9.94255C87.6045 9.55619 87.7635 9.24571 88.0817 9.01112C88.4138 8.76273 88.8911 8.63855 89.5137 8.63855C90.0531 8.63855 90.5374 8.74205 90.9663 8.94902C91.4089 9.14221 91.7756 9.42509 92.0662 9.79766L93 8.86623C92.6403 8.35567 92.163 7.96929 91.5681 7.70712C90.9732 7.44493 90.3092 7.31384 89.5759 7.31384C88.8841 7.31384 88.2823 7.43113 87.7705 7.66572C87.2724 7.88651 86.885 8.20388 86.6083 8.61785C86.3454 9.01802 86.214 9.49409 86.214 10.0461C86.214 10.6256 86.3386 11.0948 86.5876 11.4536C86.8504 11.8123 87.1894 12.0952 87.6045 12.3022C88.0194 12.4953 88.4553 12.6609 88.9118 12.7989C89.3683 12.9231 89.7972 13.0543 90.1985 13.1923C90.6134 13.3302 90.9525 13.5165 91.2153 13.7511C91.4781 13.9857 91.6096 14.31 91.6096 14.724C91.6096 15.1654 91.4228 15.5104 91.0493 15.7588C90.6896 16.0072 90.1846 16.1314 89.5344 16.1314C88.9256 16.1314 88.3723 16.021 87.8742 15.8002C87.39 15.5656 86.9542 15.2138 86.5668 14.7446L85.6329 15.6968C85.9235 16.0555 86.2624 16.366 86.6498 16.6281C87.051 16.8903 87.4938 17.0973 87.9779 17.2491Z" fill="#6A7282"/>
<path fill-rule="evenodd" clip-rule="evenodd" d="M79.1299 17.4561C78.1892 17.4561 77.3314 17.2285 76.5567 16.7731C75.7957 16.3177 75.187 15.7036 74.7305 14.931C74.2878 14.1582 74.0664 13.2957 74.0664 12.3436C74.0664 11.4053 74.2878 10.5566 74.7305 9.79766C75.187 9.03872 75.7957 8.43846 76.5567 7.99689C77.3314 7.54153 78.1892 7.31384 79.1299 7.31384C80.0846 7.31384 80.9423 7.53463 81.7032 7.97619C82.4641 8.41777 83.066 9.02492 83.5086 9.79766C83.9652 10.5566 84.1934 11.4053 84.1934 12.3436C84.1934 13.3095 83.9652 14.1788 83.5086 14.9516C83.066 15.7106 82.4641 16.3177 81.7032 16.7731C80.9423 17.2285 80.0846 17.4561 79.1299 17.4561ZM79.1299 16.0486C79.8217 16.0486 80.4303 15.8899 80.9561 15.5726C81.4957 15.2552 81.9176 14.8136 82.222 14.2478C82.5402 13.6821 82.6993 13.0473 82.6993 12.3436C82.6993 11.6398 82.5402 11.0189 82.222 10.4807C81.9176 9.92876 81.4957 9.49409 80.9561 9.17671C80.4303 8.85933 79.8217 8.70065 79.1299 8.70065C78.4521 8.70065 77.8433 8.85933 77.3037 9.17671C76.7641 9.49409 76.3422 9.92876 76.0378 10.4807C75.7335 11.0189 75.5814 11.6398 75.5814 12.3436C75.5814 13.0611 75.7335 13.7028 76.0378 14.2686C76.3422 14.8206 76.7641 15.2552 77.3037 15.5726C77.8433 15.8899 78.4521 16.0486 79.1299 16.0486Z" fill="#6A7282"/>
<path fill-rule="evenodd" clip-rule="evenodd" d="M64.0216 20.9955C64.7964 21.3681 65.6749 21.5545 66.6571 21.5545C67.6809 21.5545 68.5733 21.3543 69.3341 20.9541C70.1089 20.5678 70.7107 20.0227 71.1396 19.319C71.5684 18.6152 71.7829 17.7942 71.7829 16.8559V7.52083H70.3303V9.14442C70.297 9.09219 70.2624 9.04086 70.2265 8.99042C69.8667 8.45226 69.3826 8.03829 68.7738 7.74851C68.1789 7.45873 67.5011 7.31384 66.7401 7.31384C65.8409 7.31384 65.0316 7.52773 64.3121 7.95549C63.5927 8.38327 63.0255 8.96972 62.6105 9.71487C62.2092 10.4462 62.0087 11.2811 62.0087 12.2194C62.0087 13.1577 62.2162 13.9995 62.6312 14.7446C63.0462 15.4898 63.6135 16.0762 64.3328 16.504C65.0523 16.9317 65.8616 17.1457 66.7609 17.1457C67.5079 17.1457 68.1789 17.0007 68.7738 16.7109C69.3688 16.4074 69.8529 15.9934 70.2265 15.469C70.2624 15.4173 70.297 15.3648 70.3303 15.3115V16.8559C70.3303 17.877 69.9982 18.6842 69.3341 19.2776C68.684 19.871 67.8053 20.1676 66.6986 20.1676C65.8963 20.1676 65.1975 20.0227 64.6027 19.733C64.0077 19.4432 63.5166 19.0362 63.1292 18.5118L62.1747 19.4638C62.645 20.1262 63.2607 20.6368 64.0216 20.9955ZM68.7945 15.3242C68.2966 15.614 67.7086 15.7588 67.0307 15.7588C66.3389 15.7588 65.7302 15.614 65.2045 15.3242C64.6787 15.0206 64.2636 14.5998 63.9594 14.0616C63.655 13.5234 63.5028 12.9093 63.5028 12.2194C63.5028 11.5156 63.648 10.9016 63.9386 10.3772C64.243 9.85286 64.658 9.43889 65.1837 9.13531C65.7233 8.83173 66.332 8.67995 67.0098 8.67995C67.6878 8.67995 68.2827 8.83173 68.7945 9.13531C69.3065 9.43889 69.7007 9.85286 69.9774 10.3772C70.268 10.9016 70.4133 11.5156 70.4133 12.2194C70.4133 12.9369 70.268 13.5648 69.9774 14.103C69.7007 14.6274 69.3065 15.0344 68.7945 15.3242Z" fill="#6A7282"/>
<path fill-rule="evenodd" clip-rule="evenodd" d="M55.2567 17.4561C54.3159 17.4561 53.4582 17.2285 52.6834 16.7731C51.9225 16.3177 51.3138 15.7036 50.8572 14.931C50.4145 14.1582 50.1931 13.2957 50.1931 12.3436C50.1931 11.4053 50.4145 10.5566 50.8572 9.79766C51.3138 9.03872 51.9225 8.43846 52.6834 7.99689C53.4582 7.54153 54.3159 7.31384 55.2567 7.31384C56.2113 7.31384 57.0691 7.53463 57.8299 7.97619C58.5909 8.41777 59.1927 9.02492 59.6354 9.79766C60.0919 10.5566 60.3203 11.4053 60.3203 12.3436C60.3203 13.3095 60.0919 14.1788 59.6354 14.9516C59.1927 15.7106 58.5909 16.3177 57.8299 16.7731C57.0691 17.2285 56.2113 17.4561 55.2567 17.4561ZM55.2567 16.0486C55.9484 16.0486 56.5572 15.8899 57.0829 15.5726C57.6224 15.2552 58.0445 14.8136 58.3487 14.2478C58.6669 13.6821 58.8261 13.0473 58.8261 12.3436C58.8261 11.6398 58.6669 11.0189 58.3487 10.4807C58.0445 9.92876 57.6224 9.49409 57.0829 9.17671C56.5572 8.85933 55.9484 8.70065 55.2567 8.70065C54.5788 8.70065 53.97 8.85933 53.4305 9.17671C52.891 9.49409 52.469 9.92876 52.1646 10.4807C51.8603 11.0189 51.7081 11.6398 51.7081 12.3436C51.7081 13.0611 51.8603 13.7028 52.1646 14.2686C52.469 14.8206 52.891 15.2552 53.4305 15.5726C53.97 15.8899 54.5788 16.0486 55.2567 16.0486Z" fill="#6A7282"/>
<path d="M46.439 2.76001V17.249H47.8916V2.76001H46.439Z" fill="#6A7282"/>
</g>
</g>
<defs>
<clipPath id="clip0_121_4147">
<rect width="93" height="24" fill="white"/>
</clipPath>
</defs>
</svg>
