<svg width="103" height="24" viewBox="0 0 103 24" fill="none" xmlns="http://www.w3.org/2000/svg">
<g clip-path="url(#clip0_121_4207)">
<path d="M12.0187 7.6296L0.180298 0V12.3288H23.8571V0L12.0187 7.6296Z" fill="#6A7282"/>
<path d="M12.0187 24L23.8571 12.3288L12.0187 7.62958L0.180298 12.3288L12.0187 24Z" fill="#99A1AF"/>
<path d="M9.42139 21.4392L12.0186 24L14.6159 21.4392L12.0186 18.8616L9.42139 21.4392Z" fill="#6A7282"/>
<path d="M0.180298 12.3288L12.0187 7.62958L23.8571 12.3288L12.0187 18.8616L0.180298 12.3288Z" fill="#555E70"/>
<path d="M28.4272 18.4741V5.97656H35.7007L35.4102 7.91013H31.0864V11.4501H34.8479V13.3799H31.0864V18.4741H28.4272Z" fill="#6A7282"/>
<path d="M46.676 6.45622C47.5276 6.98786 48.1967 7.76615 48.5939 8.68727C49.4906 10.9572 49.4906 13.4824 48.5939 15.7523C48.1936 16.6714 47.5252 17.4488 46.676 17.9833C45.7777 18.5218 44.744 18.7927 43.6966 18.7642C42.6514 18.7912 41.6195 18.5258 40.7172 17.9982C39.8624 17.4672 39.1894 16.6891 38.7881 15.7672C38.3129 14.6486 38.0818 13.4419 38.1103 12.2273C38.0794 11.0268 38.3106 9.83405 38.7881 8.7319C39.193 7.80209 39.8675 7.01467 40.7247 6.4711C41.6192 5.92999 42.651 5.65761 43.6966 5.68652C44.7427 5.65627 45.7759 5.92318 46.676 6.45622ZM41.6409 8.75793C41.1766 9.4793 40.9444 10.6357 40.9444 12.2273C40.9444 13.8187 41.179 14.9738 41.6483 15.6928C41.8635 16.0381 42.1662 16.3204 42.5261 16.511C42.8858 16.7017 43.2896 16.794 43.6966 16.7785C44.1052 16.7994 44.512 16.7108 44.8747 16.5218C45.2376 16.3328 45.5431 16.0505 45.7598 15.7039C46.2192 14.985 46.4475 13.8262 46.4451 12.2273C46.4426 10.6283 46.2141 9.46815 45.7598 8.74677C45.5431 8.40022 45.2376 8.11784 44.8747 7.92889C44.512 7.73993 44.1052 7.65129 43.6966 7.67215C43.2858 7.65188 42.877 7.7419 42.5128 7.93286C42.1487 8.12381 41.8424 8.40872 41.626 8.75793H41.6409Z" fill="#6A7282"/>
<path d="M58.1689 11.7364L61.8223 18.4741H58.8913L56.5601 13.525L54.2622 18.4741H51.4207L54.9847 11.8294L51.7111 5.97656H54.6235L56.5936 10.1486L58.6567 5.97656H61.4797L58.1689 11.7364Z" fill="#6A7282"/>
<path d="M74.5291 18.4741V12.4429H68.5928V18.4927H67.509V6.12158H68.5928V11.5207H74.5291V6.12158H75.613V18.4927L74.5291 18.4741Z" fill="#6A7282"/>
<path d="M89.4148 14.6107C89.4667 15.6937 89.091 16.7539 88.3683 17.5632C87.6681 18.3068 86.6601 18.6787 85.3442 18.6787C84.0284 18.6787 83.0191 18.3068 82.3164 17.5632C81.5881 16.7485 81.213 15.6787 81.2737 14.5884V6.12158H82.3611V14.5363C82.3611 15.5738 82.6032 16.3696 83.1059 16.9236C83.6087 17.4776 84.3424 17.7528 85.3405 17.7528C86.3386 17.7528 87.102 17.4739 87.575 16.9124C88.0956 16.2336 88.3522 15.3895 88.2975 14.5363V6.12158H89.4148V14.6107Z" fill="#6A7282"/>
<path d="M102.115 12.8147C102.646 13.3105 102.911 14.0542 102.911 15.0458C102.911 16.201 102.519 17.0624 101.735 17.63C100.95 18.1978 99.8589 18.4804 98.4611 18.4778H95.0906V6.12158H97.8578C99.2916 6.12158 100.398 6.37815 101.176 6.89873C101.556 7.14841 101.863 7.49287 102.068 7.89793C102.274 8.303 102.369 8.75459 102.345 9.20787C102.38 9.88431 102.156 10.5487 101.72 11.0671C101.288 11.5448 100.704 11.8577 100.066 11.9521C100.825 12.009 101.544 12.3119 102.115 12.8147ZM96.1558 7.01028V11.543H98.651C99.3251 11.5758 99.9878 11.3601 100.513 10.9369C100.749 10.7295 100.935 10.4717 101.056 10.1826C101.178 9.89347 101.233 9.58062 101.217 9.26737C101.247 8.93153 101.186 8.59382 101.042 8.28918C100.897 7.98455 100.673 7.72404 100.394 7.53458C99.8452 7.18505 99.0284 7.01028 97.9433 7.01028H96.1558ZM101.794 15.0458C101.822 14.6736 101.762 14.3 101.619 13.9552C101.477 13.6102 101.254 13.3037 100.971 13.0602C100.34 12.6002 99.5693 12.3706 98.7887 12.4094H96.1819V17.5744H98.4796C100.689 17.5718 101.794 16.729 101.794 15.0458Z" fill="#6A7282"/>
</g>
<defs>
<clipPath id="clip0_121_4207">
<rect width="103" height="24" fill="white"/>
</clipPath>
</defs>
</svg>
