<svg width="100" height="24" viewBox="0 0 100 24" fill="none" xmlns="http://www.w3.org/2000/svg">
<path d="M9.12368 10.8C9.91929 10.8 10.5643 10.1553 10.5643 9.35998C10.5643 8.56469 9.91929 7.91998 9.12368 7.91998C8.32808 7.91998 7.68311 8.56469 7.68311 9.35998C7.68311 10.1553 8.32808 10.8 9.12368 10.8Z" fill="#99A1AF"/>
<path d="M8.88357 19.2C9.67918 19.2 10.3241 18.5552 10.3241 17.76C10.3241 16.9648 9.67918 16.32 8.88357 16.32C8.08796 16.32 7.44299 16.9648 7.44299 17.76C7.44299 18.5552 8.08796 19.2 8.88357 19.2Z" fill="#99A1AF"/>
<path d="M7.68307 6.96C7.94827 6.96 8.16326 6.74509 8.16326 6.48C8.16326 6.21491 7.94827 6 7.68307 6C7.41787 6 7.20288 6.21491 7.20288 6.48C7.20288 6.74509 7.41787 6.96 7.68307 6.96Z" fill="#99A1AF"/>
<path d="M7.0828 13.68C7.28171 13.68 7.44294 13.5189 7.44294 13.32C7.44294 13.1212 7.28171 12.96 7.0828 12.96C6.88389 12.96 6.72266 13.1212 6.72266 13.32C6.72266 13.5189 6.88389 13.68 7.0828 13.68Z" fill="#99A1AF"/>
<path d="M16.3266 14.04C16.5255 14.04 16.6867 13.8788 16.6867 13.68C16.6867 13.4812 16.5255 13.32 16.3266 13.32C16.1277 13.32 15.9664 13.4812 15.9664 13.68C15.9664 13.8788 16.1277 14.04 16.3266 14.04Z" fill="#99A1AF"/>
<path d="M12.8451 19.44C13.044 19.44 13.2053 19.2788 13.2053 19.08C13.2053 18.8811 13.044 18.72 12.8451 18.72C12.6462 18.72 12.485 18.8811 12.485 19.08C12.485 19.2788 12.6462 19.44 12.8451 19.44Z" fill="#99A1AF"/>
<path d="M12.0049 12C12.27 12 12.485 11.7851 12.485 11.52C12.485 11.2549 12.27 11.04 12.0049 11.04C11.7397 11.04 11.5247 11.2549 11.5247 11.52C11.5247 11.7851 11.7397 12 12.0049 12Z" fill="#99A1AF"/>
<path d="M10.2041 14.64C10.6682 14.64 11.0444 14.2639 11.0444 13.8C11.0444 13.3361 10.6682 12.96 10.2041 12.96C9.74 12.96 9.36377 13.3361 9.36377 13.8C9.36377 14.2639 9.74 14.64 10.2041 14.64Z" fill="#99A1AF"/>
<path d="M15.3662 6.47998C15.764 6.47998 16.0865 6.15762 16.0865 5.75998C16.0865 5.36233 15.764 5.03998 15.3662 5.03998C14.9683 5.03998 14.6459 5.36233 14.6459 5.75998C14.6459 6.15762 14.9683 6.47998 15.3662 6.47998Z" fill="#99A1AF"/>
<path d="M15.066 11.88C16.16 11.88 17.0468 10.9935 17.0468 9.89998C17.0468 8.80646 16.16 7.91998 15.066 7.91998C13.972 7.91998 13.0852 8.80646 13.0852 9.89998C13.0852 10.9935 13.972 11.88 15.066 11.88Z" fill="#99A1AF"/>
<path d="M11.6446 7.44003C12.2414 7.44003 12.7251 6.9565 12.7251 6.36003C12.7251 5.76356 12.2414 5.28003 11.6446 5.28003C11.0479 5.28003 10.5642 5.76356 10.5642 6.36003C10.5642 6.9565 11.0479 7.44003 11.6446 7.44003Z" fill="#99A1AF"/>
<path d="M14.2857 17.76C15.2802 17.76 16.0864 16.9541 16.0864 15.96C16.0864 14.9659 15.2802 14.16 14.2857 14.16C13.2912 14.16 12.485 14.9659 12.485 15.96C12.485 16.9541 13.2912 17.76 14.2857 17.76Z" fill="#99A1AF"/>
<path d="M3.9928 22.2C3.55423 22.2098 3.11659 22.1552 2.69388 22.038C2.39271 21.953 2.12071 21.7869 1.90756 21.558C1.682 21.2979 1.5219 20.9876 1.44058 20.6532C1.32204 20.1647 1.26717 19.6629 1.27731 19.1604V15.2004C1.27731 14.4636 1.16327 13.9272 0.929172 13.5624C0.708001 13.2353 0.379277 12.9959 0 12.8856V10.8852C0.639856 10.6704 1.28091 10.1232 1.28091 8.79599V4.83599C1.28091 3.71039 1.4886 2.91599 1.89676 2.46119C2.30492 2.00639 3.02401 1.79999 4.05522 1.79999H5.40216V3.77519H5.35654C5.0905 3.77215 4.82457 3.78739 4.56062 3.82079C4.32191 3.84692 4.09714 3.94627 3.91717 4.10519C3.74855 4.27409 3.63798 4.49219 3.60144 4.72799C3.55759 4.986 3.5379 5.24753 3.54262 5.50919V9.00599C3.54611 9.35538 3.52565 9.70459 3.48139 10.0512C3.4528 10.274 3.39088 10.4912 3.29772 10.6956C3.21145 10.8764 3.09169 11.0393 2.94478 11.1756C2.73897 11.3643 2.5208 11.5391 2.29172 11.6988L1.84394 12.0156L2.30132 12.318C2.52567 12.4609 2.73307 12.6288 2.91957 12.8184C3.06933 12.9756 3.1933 13.1553 3.28691 13.3512C3.38538 13.5632 3.45096 13.7891 3.48139 14.0208C3.52375 14.3454 3.54379 14.6726 3.54142 15V18.4968C3.5372 18.7517 3.5569 19.0064 3.60024 19.2576C3.6352 19.487 3.73902 19.7004 3.89796 19.8696C4.06765 20.0315 4.28311 20.1369 4.51501 20.172C4.7864 20.2161 5.06121 20.2358 5.33613 20.2308H5.40216V22.2H3.9928Z" fill="#99A1AF"/>
<path d="M20.0168 22.2C20.4553 22.2098 20.893 22.1552 21.3157 22.038C21.6169 21.953 21.8889 21.7869 22.102 21.558C22.3259 21.2982 22.4847 20.9889 22.5654 20.6556C22.6839 20.1671 22.7389 19.6653 22.7287 19.1628V15.2028C22.7287 14.466 22.8427 13.9296 23.0768 13.5648C23.2983 13.2356 23.6284 12.9948 24.0096 12.8844V10.8852C23.3697 10.6704 22.7287 10.1232 22.7287 8.79599V4.83599C22.7287 3.71039 22.521 2.91599 22.1128 2.46119C21.7047 2.00639 20.9856 1.79639 19.952 1.79639H18.6074V3.77519H18.653C18.9191 3.77215 19.185 3.78739 19.449 3.82079C19.6876 3.84692 19.9125 3.94627 20.0924 4.10519C20.2611 4.27409 20.3716 4.49219 20.4081 4.72799C20.452 4.986 20.4716 5.24753 20.467 5.50919V9.00599C20.4623 9.35529 20.4815 9.70451 20.5246 10.0512C20.5532 10.274 20.6151 10.4912 20.7083 10.6956C20.7946 10.8764 20.9143 11.0393 21.0612 11.1756C21.267 11.3643 21.4852 11.5391 21.7143 11.6988L22.162 12.0156L21.7047 12.318C21.4803 12.4609 21.273 12.6288 21.0864 12.8184C20.9367 12.9756 20.8127 13.1553 20.7191 13.3512C20.6201 13.5647 20.5546 13.7922 20.5246 14.0256C20.4833 14.3483 20.4641 14.6735 20.467 14.9988V18.4956C20.4712 18.7505 20.4515 19.0052 20.4081 19.2564C20.3795 19.4889 20.2738 19.7052 20.108 19.8708C19.9424 20.0365 19.726 20.1421 19.4934 20.1708C19.2219 20.2149 18.9472 20.2346 18.6722 20.2296H18.6074V22.2H20.0168Z" fill="#99A1AF"/>
<path fill-rule="evenodd" clip-rule="evenodd" d="M56.8543 18.498C56.5692 18.9413 56.2215 19.2894 55.8115 19.5421C55.3923 19.7978 54.8985 19.9256 54.3302 19.9256C53.7404 19.9256 53.2111 19.8085 52.7422 19.5742C52.2804 19.3398 51.8825 18.9918 51.5487 18.5302C51.2218 18.0685 50.9732 17.4968 50.8026 16.815C50.6321 16.1261 50.5469 15.3271 50.5469 14.4181V13.5126C50.5469 12.5681 50.6321 11.7514 50.8026 11.0625C50.9732 10.3665 51.2218 9.78767 51.5487 9.32606C51.8825 8.86443 52.284 8.52353 52.7529 8.30338C53.2218 8.08322 53.7511 7.97314 54.3408 7.97314C54.9163 7.97314 55.4136 8.10452 55.8328 8.36729C56.1781 8.57793 56.4801 8.86329 56.7386 9.22337V3.34979H59.2218V19.7126L56.973 19.7232L56.8543 18.498ZM56.7386 11.238C56.6715 11.1021 56.5968 10.9762 56.5148 10.8601C56.3444 10.6186 56.1348 10.4304 55.8861 10.2955C55.6445 10.1534 55.3603 10.0824 55.0335 10.0824C54.6711 10.0824 54.3621 10.1534 54.1063 10.2955C53.8506 10.4304 53.6445 10.6399 53.4882 10.924C53.3319 11.201 53.2147 11.5561 53.1366 11.9893C53.0655 12.4153 53.03 12.9232 53.03 13.5126V14.4181C53.03 15.0076 53.0655 15.5154 53.1366 15.9415C53.2076 16.3676 53.3213 16.7191 53.4776 16.9961C53.6339 17.266 53.8399 17.4684 54.0957 17.6033C54.3514 17.7312 54.6606 17.795 55.0229 17.795C55.4776 17.795 55.847 17.6814 56.1311 17.4542C56.3848 17.2562 56.5873 16.9991 56.7386 16.6828V11.238Z" fill="#6A7282"/>
<path fill-rule="evenodd" clip-rule="evenodd" d="M63.5331 19.5954C64.1157 19.8156 64.7801 19.9256 65.5261 19.9256C66.1868 19.9256 66.7623 19.8404 67.2525 19.67C67.7498 19.4995 68.1725 19.2829 68.5207 19.0201C68.8688 18.7502 69.1459 18.4769 69.352 18.1999L68.2543 16.6765C67.9487 17.0245 67.5864 17.3086 67.1672 17.5288C66.7551 17.7418 66.2614 17.8483 65.686 17.8483C65.2951 17.8483 64.9505 17.7916 64.6521 17.6779C64.3609 17.5572 64.1123 17.3725 63.9061 17.124C63.7001 16.8683 63.5438 16.5416 63.4372 16.1438C63.3408 15.7585 63.2911 15.2898 63.2882 14.7377H69.4798V13.4914C69.4798 12.5965 69.3946 11.8046 69.224 11.1157C69.0606 10.4269 68.8049 9.84805 68.4568 9.37932C68.1157 8.9106 67.6788 8.55904 67.146 8.32468C66.6131 8.09032 65.9843 7.97314 65.2597 7.97314C64.6202 7.97314 64.0269 8.08322 63.4798 8.30338C62.9399 8.52354 62.471 8.86088 62.0731 9.3154C61.6753 9.76993 61.3627 10.3523 61.1353 11.0625C60.915 11.7656 60.8049 12.6036 60.8049 13.5766V14.6844C60.8049 15.5437 60.9115 16.3001 61.1246 16.9535C61.3378 17.5998 61.6468 18.1466 62.0519 18.594C62.4568 19.0344 62.9506 19.3681 63.5331 19.5954ZM63.3069 12.8628C63.327 12.5064 63.3634 12.1903 63.416 11.9147C63.5012 11.4602 63.622 11.098 63.7783 10.8281C63.9417 10.5582 64.1477 10.3629 64.3964 10.2422C64.645 10.1215 64.9293 10.0611 65.249 10.0611C65.6894 10.0611 66.034 10.1641 66.2827 10.37C66.5384 10.5689 66.7232 10.8601 66.8369 11.2436C66.9505 11.62 67.0145 12.0709 67.0287 12.5965V12.8628H63.3069Z" fill="#6A7282"/>
<path fill-rule="evenodd" clip-rule="evenodd" d="M40.3207 14.4181V13.4914C40.3207 12.5965 40.4308 11.8046 40.651 11.1157C40.8713 10.4269 41.1839 9.8516 41.5889 9.38997C42.001 8.92124 42.4841 8.5697 43.0382 8.33534C43.5923 8.09388 44.2034 7.97314 44.8712 7.97314C45.5533 7.97314 46.1715 8.09388 46.7256 8.33534C47.2868 8.5697 47.77 8.92124 48.1749 9.38997C48.5871 9.8516 48.9032 10.4269 49.1234 11.1157C49.3437 11.8046 49.4538 12.5965 49.4538 13.4914V14.4181C49.4538 15.313 49.3437 16.1048 49.1234 16.7938C48.9032 17.4826 48.5871 18.0614 48.1749 18.5302C47.77 18.9918 47.2904 19.3398 46.7363 19.5742C46.1821 19.8085 45.5675 19.9256 44.8926 19.9256C44.2248 19.9256 43.6101 19.8085 43.0489 19.5742C42.4947 19.3398 42.0116 18.9918 41.5995 18.5302C41.1874 18.0614 40.8713 17.4826 40.651 16.7938C40.4308 16.1048 40.3207 15.313 40.3207 14.4181ZM42.8038 13.4914V14.4181C42.8038 14.9934 42.8535 15.4976 42.953 15.9308C43.0525 16.357 43.1945 16.712 43.3793 16.9961C43.564 17.2802 43.7842 17.4932 44.04 17.6353C44.2958 17.7773 44.58 17.8483 44.8926 17.8483C45.2407 17.8483 45.5426 17.7773 45.7985 17.6353C46.0613 17.4932 46.2781 17.2802 46.4485 16.9961C46.6261 16.712 46.7575 16.357 46.8429 15.9308C46.9281 15.4976 46.9707 14.9934 46.9707 14.4181V13.4914C46.9707 12.9232 46.921 12.426 46.8215 11.9999C46.722 11.5667 46.58 11.2081 46.3952 10.924C46.2105 10.6328 45.9867 10.4162 45.7238 10.2742C45.4681 10.1321 45.1838 10.0611 44.8712 10.0611C44.5657 10.0611 44.2851 10.1321 44.0293 10.2742C43.7807 10.4162 43.564 10.6328 43.3793 10.924C43.1945 11.2081 43.0525 11.5667 42.953 11.9999C42.8535 12.426 42.8038 12.9232 42.8038 13.4914Z" fill="#6A7282"/>
<path d="M39.2597 14.6525H36.6806C36.6379 15.4337 36.5279 16.0516 36.3502 16.5061C36.1726 16.9606 35.899 17.2837 35.5297 17.4755C35.1672 17.6672 34.6806 17.7631 34.0696 17.7631C33.558 17.7631 33.1318 17.6672 32.7908 17.4755C32.4497 17.2766 32.1761 16.989 31.9701 16.6126C31.7641 16.2292 31.6149 15.7639 31.5226 15.2171C31.4301 14.6702 31.384 14.0417 31.384 13.3315V10.5618C31.384 9.82317 31.4372 9.18045 31.5438 8.63361C31.6575 8.07966 31.8245 7.62158 32.0448 7.25938C32.272 6.89008 32.5598 6.61311 32.9079 6.42846C33.2632 6.24381 33.686 6.15149 34.1761 6.15149C34.7659 6.15149 35.2348 6.25447 35.583 6.46042C35.9382 6.66638 36.201 7.00371 36.3716 7.47245C36.5491 7.93407 36.6557 8.55194 36.6912 9.32605H39.2702C39.2064 8.18264 38.9754 7.21322 38.5776 6.41781C38.1797 5.62239 37.6149 5.01873 36.8831 4.60682C36.1513 4.19491 35.249 3.98895 34.1761 3.98895C33.3378 3.98895 32.5846 4.13809 31.9168 4.43637C31.2561 4.72755 30.6948 5.15722 30.233 5.72538C29.7712 6.29353 29.416 6.98596 29.1674 7.80268C28.9257 8.6194 28.8049 9.5462 28.8049 10.5831V13.3315C28.8049 14.3684 28.9222 15.2952 29.1567 16.1119C29.3982 16.9286 29.7463 17.621 30.2011 18.1892C30.6557 18.7502 31.2064 19.18 31.8529 19.4783C32.5065 19.7765 33.2454 19.9256 34.0696 19.9256C35.1567 19.9256 36.0767 19.7197 36.8298 19.3078C37.59 18.8959 38.1726 18.2993 38.5776 17.5181C38.9825 16.7298 39.2099 15.7746 39.2597 14.6525Z" fill="#6A7282"/>
<path fill-rule="evenodd" clip-rule="evenodd" d="M91.9937 3.34979H93.1872V9.78257C93.3077 9.55929 93.4427 9.35385 93.5922 9.16626C93.8976 8.78276 94.26 8.48802 94.6792 8.28207C95.0983 8.07611 95.5886 7.97314 96.1498 7.97314C96.7467 7.97314 97.276 8.07611 97.7378 8.28207C98.1997 8.48802 98.5904 8.80761 98.9101 9.24083C99.2298 9.67404 99.4713 10.2386 99.6347 10.9346C99.7982 11.6235 99.8798 12.4508 99.8798 13.4167V14.4926C99.8798 15.423 99.7982 16.2292 99.6347 16.9109C99.4713 17.5927 99.2298 18.1573 98.9101 18.6047C98.5904 19.0522 98.1997 19.3859 97.7378 19.6061C97.2831 19.8263 96.7609 19.9363 96.1712 19.9363C95.5957 19.9363 95.0913 19.8334 94.6579 19.6273C94.2245 19.4214 93.855 19.1338 93.5496 18.7645C93.4067 18.5878 93.277 18.3947 93.1602 18.1854L93.1019 19.7126H91.9937V3.34979ZM93.1872 11.1572V16.8941C93.2586 17.0626 93.3404 17.2279 93.4323 17.3903C93.6738 17.8093 94.0007 18.1501 94.4127 18.4129C94.8249 18.6686 95.3293 18.7964 95.9261 18.7964C96.4093 18.7964 96.8213 18.7112 97.1623 18.5408C97.5105 18.3632 97.7982 18.097 98.0256 17.7418C98.2528 17.3867 98.4198 16.9428 98.5264 16.4102C98.633 15.8705 98.6863 15.2312 98.6863 14.4926V13.4167C98.6863 12.6852 98.633 12.0497 98.5264 11.5099C98.4269 10.963 98.2635 10.5121 98.0361 10.157C97.816 9.80188 97.5282 9.5391 97.173 9.36867C96.8249 9.19112 96.4021 9.10234 95.9048 9.10234C95.4145 9.10234 94.9919 9.19467 94.6365 9.37931C94.2885 9.55686 93.9971 9.79478 93.7627 10.0931C93.5353 10.3913 93.3542 10.718 93.2192 11.0731C93.2083 11.1012 93.1976 11.1292 93.1872 11.1572Z" fill="#6A7282"/>
<path fill-rule="evenodd" clip-rule="evenodd" d="M87.5649 18.9456C87.8318 18.685 88.0553 18.4081 88.2355 18.115C88.2442 18.3257 88.2586 18.5422 88.2788 18.7645C88.3143 19.148 88.3712 19.464 88.4494 19.7126H89.7069V19.5742C89.6146 19.3043 89.5399 18.9563 89.4831 18.5302C89.4334 18.104 89.4086 17.6886 89.4086 17.2837V11.3927C89.4086 10.5618 89.2558 9.89421 88.9502 9.38997C88.6519 8.88573 88.2362 8.52354 87.7034 8.30338C87.1705 8.08322 86.5595 7.97314 85.8704 7.97314C85.3091 7.97314 84.7975 8.06546 84.3357 8.25012C83.881 8.43476 83.4902 8.68688 83.1634 9.00646C82.8367 9.31896 82.5844 9.68115 82.4068 10.0931C82.2291 10.4979 82.1404 10.9204 82.1404 11.3608L83.3233 11.3714C83.3233 10.924 83.4264 10.5298 83.6324 10.1889C83.8456 9.84094 84.1404 9.57108 84.5169 9.37932C84.9005 9.18046 85.3375 9.08104 85.8277 9.08104C86.3464 9.08104 86.7834 9.15916 87.1386 9.3154C87.4938 9.47164 87.7638 9.72021 87.9484 10.0611C88.1332 10.3949 88.2256 10.8317 88.2256 11.3714V12.98H86.2753C85.5506 12.98 84.9148 13.0723 84.3676 13.257C83.8206 13.4416 83.366 13.7009 83.0035 14.0346C82.6412 14.3614 82.3678 14.7484 82.183 15.1958C82.0053 15.6432 81.9165 16.1333 81.9165 16.6658C81.9165 17.3832 82.0445 17.9868 82.3002 18.4769C82.5631 18.9668 82.929 19.3326 83.3979 19.5742C83.8739 19.8156 84.4282 19.9363 85.0604 19.9363C85.5861 19.9363 86.0586 19.844 86.4779 19.6594C86.8969 19.4747 87.2594 19.2367 87.5649 18.9456ZM87.8313 17.4968C87.9962 17.27 88.1277 17.0362 88.2256 16.7952V13.992H86.4565C85.9023 13.992 85.4157 14.0524 84.9965 14.1731C84.5772 14.2938 84.2256 14.4678 83.9414 14.6951C83.6643 14.9224 83.4547 15.1922 83.3127 15.5047C83.1705 15.8172 83.0995 16.1723 83.0995 16.57C83.0995 17.0813 83.1812 17.5003 83.3446 17.8271C83.508 18.1466 83.746 18.3845 84.0586 18.5408C84.3783 18.6899 84.7584 18.7645 85.199 18.7645C85.7816 18.7645 86.2931 18.6509 86.7336 18.4236C87.1812 18.1892 87.5471 17.8804 87.8313 17.4968Z" fill="#6A7282"/>
<path d="M80.7384 19.7127V18.5728H74.3654V4.20203H73.1292V19.7127H80.7384Z" fill="#6A7282"/>
</svg>
