<svg width="89" height="24" viewBox="0 0 89 24" fill="none" xmlns="http://www.w3.org/2000/svg">
<g clip-path="url(#clip0_121_4106)">
<mask id="mask0_121_4106" style="mask-type:luminance" maskUnits="userSpaceOnUse" x="0" y="0" width="89" height="24">
<path d="M89 0H0V24H89V0Z" fill="white"/>
</mask>
<g mask="url(#mask0_121_4106)">
<path fill-rule="evenodd" clip-rule="evenodd" d="M7.85854 9.4428C7.50729 8.71464 7.3507 7.90825 7.40395 7.1019C7.45721 6.29554 7.7185 5.51662 8.16246 4.84074C8.60643 4.16487 9.21799 3.615 9.93778 3.24451C10.6576 2.87403 11.4611 2.6955 12.2704 2.72628C13.0798 2.75706 13.8674 2.9961 14.5569 3.42018C15.2463 3.84426 15.8141 4.43898 16.2052 5.14661C16.5963 5.85425 16.7975 6.65075 16.7891 7.45882C16.7807 8.26687 16.563 9.05904 16.1572 9.7584L12.3663 16.32L13.5028 18.2844L17.8662 10.7436C18.7275 9.21729 18.9505 7.41363 18.487 5.72421C18.0234 4.03479 16.9108 2.59597 15.3905 1.72013C13.8701 0.844292 12.065 0.60212 10.3668 1.04619C8.66866 1.49027 7.21458 2.58474 6.32028 4.092C5.84534 4.90177 5.54959 5.8036 5.45292 6.73686C5.35624 7.67013 5.46089 8.61323 5.75982 9.5028C6.06383 9.46483 6.36989 9.4456 6.67628 9.4452L7.85854 9.4428ZM23.1509 13.2588C22.6797 12.4335 22.0349 11.7198 21.261 11.1669C20.4869 10.614 19.6021 10.235 18.6672 10.056C18.5485 10.339 18.4124 10.6143 18.2595 10.8804L17.6654 11.9064C18.4763 11.9561 19.2603 12.2148 19.941 12.6571C20.6218 13.0994 21.176 13.7105 21.5494 14.4302C21.9228 15.1501 22.1028 15.9544 22.0716 16.7644C22.0405 17.5742 21.7994 18.3624 21.3719 19.0515C20.9443 19.7408 20.3449 20.3076 19.6323 20.6968C18.9196 21.0858 18.118 21.2838 17.3057 21.2714C16.4934 21.2591 15.6981 21.0367 14.9977 20.6262C14.2972 20.2155 13.7155 19.6307 13.3092 18.9288L9.52427 12.3888H7.25237L11.6037 19.9104C11.7534 20.1671 11.9193 20.414 12.1005 20.6496L12.1366 20.6964C12.7563 21.4923 13.5512 22.1353 14.4599 22.5756C15.3686 23.016 16.3666 23.2417 17.3767 23.2356C18.5469 23.2355 19.6963 22.928 20.7095 22.3442C21.7228 21.7604 22.5644 20.9208 23.1494 19.9098C23.7345 18.8987 24.0425 17.7518 24.0425 16.5844C24.0426 15.4169 23.7346 14.2699 23.1497 13.2588H23.1509ZM8.8467 20.7422C9.55755 20.3726 10.1618 19.8277 10.6018 19.1592L11.1779 20.16C11.3374 20.4343 11.515 20.6977 11.7095 20.9484C11.0869 21.6709 10.3142 22.2497 9.44512 22.6446C8.57601 23.0395 7.63122 23.2412 6.67622 23.2356C5.79331 23.2475 4.91683 23.0841 4.09766 22.7552C3.27852 22.4263 2.53302 21.9383 1.90446 21.3194C1.27591 20.7007 0.776818 19.9636 0.436169 19.1507C0.0955216 18.3379 -0.079895 17.4656 -0.079895 16.5846C-0.079895 15.7036 0.0955216 14.8314 0.436169 14.0185C0.776818 13.2057 1.27591 12.4685 1.90446 11.8497C2.53302 11.231 3.27852 10.7429 4.09766 10.414C4.91683 10.0851 5.79331 9.92177 6.67622 9.9336H15.3946L14.2616 11.8968H6.67622C5.85164 11.8972 5.04167 12.1141 4.32768 12.5257C3.61368 12.9373 3.02084 13.529 2.60865 14.2417C2.19647 14.9543 1.97949 15.7625 1.97949 16.5852C1.9795 17.408 2.19649 18.2162 2.60868 18.9288C3.00935 19.6216 3.58103 20.2003 4.26931 20.6102C4.9576 21.0201 5.73957 21.2474 6.5408 21.2706C7.34203 21.2936 8.13586 21.1117 8.8467 20.7422Z" fill="#99A1AF"/>
<path d="M40.4304 19.4424L40.084 17.8008L39.9108 17.736C39.7809 17.8224 39.6077 17.8872 39.4129 17.8872C39.0665 17.8872 38.7634 17.6928 38.3954 17.2824L35.278 13.632L39.5644 9.03119L39.4995 8.87999H36.9666L32.4853 13.8048V5.07839L32.3121 4.94879L30.1256 5.27279V19.68H32.4853V16.0944L33.5461 14.9496L36.5986 18.6216C37.248 19.4208 38.0707 19.9392 39.1098 19.9392C39.651 19.9392 40.0623 19.8096 40.3438 19.6152L40.4304 19.4424Z" fill="#6A7282"/>
<path fill-rule="evenodd" clip-rule="evenodd" d="M71.2531 8.6208C74.5437 8.6208 76.7735 11.1264 76.7735 14.28C76.7735 17.4336 74.5437 19.9392 71.2531 19.9392C69.7161 19.9392 68.4171 19.3128 67.4863 18.3624V19.68H65.3647V5.2944L67.5728 4.9704L67.7244 5.0784V9.9816C68.6336 9.1392 69.846 8.6208 71.2531 8.6208ZM70.9717 17.8872C73.0067 17.8872 74.3489 16.2888 74.3489 14.28C74.3489 12.2928 73.0067 10.6728 70.9717 10.6728C69.0666 10.6728 67.5512 11.9256 67.5512 14.28C67.5512 16.6344 69.0666 17.8872 70.9717 17.8872Z" fill="#6A7282"/>
<path fill-rule="evenodd" clip-rule="evenodd" d="M88.5695 17.8224L88.9159 19.4208L88.8293 19.572C88.5262 19.788 88.0716 19.9392 87.5304 19.9392C86.5562 19.9392 85.8418 19.4208 85.5604 18.5352C84.6295 19.4208 83.2873 19.9392 81.8584 19.9392C79.6286 19.9392 77.572 18.708 77.572 16.3752C77.572 13.9776 79.7369 12.876 82.3997 12.876C83.5687 12.876 84.4779 13.092 85.2573 13.3728V12.768C85.2573 11.2128 83.8501 10.4568 82.3564 10.4568C81.1224 10.4568 80.1699 10.9752 79.4122 11.7096H79.239L78.0483 10.5864V10.4136C79.2173 9.29039 80.7111 8.62079 82.5729 8.62079C84.9109 8.62079 87.5737 9.65759 87.5737 12.768V16.9368C87.5737 17.52 87.6819 17.8872 88.0716 17.8872C88.2232 17.8872 88.3314 17.8224 88.418 17.7576L88.5695 17.8224ZM85.2573 15.7704V14.9712C84.6944 14.7552 83.7635 14.4744 82.7027 14.4744C80.9925 14.4744 79.9317 15.2088 79.9317 16.3752C79.9317 17.6064 81.1007 18.2112 82.3347 18.2112C83.8285 18.2112 85.2573 17.2824 85.2573 15.7704Z" fill="#6A7282"/>
<path d="M63.2351 13.1784C63.2351 10.4784 61.4815 8.62079 58.7322 8.62079C57.2817 8.62079 56.0477 9.13919 55.2034 9.98159C54.922 9.11759 54.2509 8.62079 53.255 8.62079C52.6922 8.62079 52.2159 8.77199 51.9128 8.98799L51.8262 9.13919L52.1726 10.7376L52.3241 10.8024C52.4107 10.7376 52.519 10.6728 52.6705 10.6728C53.0819 10.6728 53.1684 11.04 53.1684 11.6232V19.68H55.5498V13.3728C55.5498 11.7312 56.6539 10.6512 58.2775 10.6512C59.9012 10.6512 60.8754 11.7312 60.8754 13.3728V19.68H63.2351V13.1784Z" fill="#6A7282"/>
<path fill-rule="evenodd" clip-rule="evenodd" d="M51.2375 17.8224L51.5839 19.4208L51.4973 19.572C51.1942 19.788 50.7396 19.9392 50.1984 19.9392C49.2242 19.9392 48.5098 19.4208 48.2283 18.5352C47.2975 19.4208 45.9552 19.9392 44.5264 19.9392C42.2966 19.9392 40.24 18.708 40.24 16.3752C40.24 13.9776 42.4049 12.876 45.0676 12.876C46.2367 12.876 47.1459 13.092 47.9253 13.3728V12.768C47.9253 11.2128 46.5181 10.4568 45.0243 10.4568C43.7904 10.4568 42.8378 10.9752 42.0801 11.7096H41.9069L40.7163 10.5864V10.4136C41.8853 9.29039 43.379 8.62079 45.2408 8.62079C47.5789 8.62079 50.2417 9.65759 50.2417 12.768V16.9368C50.2417 17.52 50.3499 17.8872 50.7396 17.8872C50.8911 17.8872 50.9994 17.8224 51.086 17.7576L51.2375 17.8224ZM47.9253 15.7704V14.9712C47.3624 14.7552 46.4315 14.4744 45.3707 14.4744C43.6605 14.4744 42.5997 15.2088 42.5997 16.3752C42.5997 17.6064 43.7687 18.2112 45.0027 18.2112C46.4965 18.2112 47.9253 17.2824 47.9253 15.7704Z" fill="#6A7282"/>
</g>
</g>
<defs>
<clipPath id="clip0_121_4106">
<rect width="89" height="24" fill="white"/>
</clipPath>
</defs>
</svg>
