<svg width="95" height="24" viewBox="0 0 95 24" fill="none" xmlns="http://www.w3.org/2000/svg">
<g clip-path="url(#clip0_121_4161)">
<path d="M10.9476 7.2709C11.3142 7.11965 11.7077 7.04489 12.1041 7.05121C12.5034 7.04868 12.8993 7.12514 13.2688 7.27621C13.6384 7.42727 13.9745 7.64995 14.2578 7.93144C14.541 8.21292 14.7659 8.54766 14.9193 8.9164C15.0729 9.28513 15.1519 9.68058 15.152 10.08C15.1483 10.8826 14.8264 11.6508 14.257 12.2163C13.6876 12.7816 12.9171 13.0979 12.1149 13.0956C11.7137 13.0967 11.3161 13.0181 10.9455 12.8643C10.5749 12.7104 10.2385 12.4843 9.9559 12.1993C9.67332 11.9142 9.45018 11.5759 9.29944 11.2038C9.1487 10.8318 9.07337 10.4334 9.07782 10.032C9.07516 9.63913 9.15321 9.2499 9.30714 8.88846C9.46106 8.52701 9.68759 8.20105 9.97265 7.93081C10.2493 7.64671 10.5811 7.42216 10.9476 7.2709Z" fill="#99A1AF"/>
<path fill-rule="evenodd" clip-rule="evenodd" d="M3.63323 3.51472C5.88273 1.26428 8.93368 0 12.1149 0C15.2962 0 18.3472 1.26428 20.5967 3.51472C22.8461 5.76516 24.1099 8.8174 24.1099 12C24.1099 15.1826 22.8461 18.2348 20.5967 20.4853C18.3472 22.7357 15.2962 24 12.1149 24H2.99878C2.23528 24 1.50305 23.6965 0.963173 23.1565C0.423295 22.6164 0.119995 21.8838 0.119995 21.12V12C0.119995 8.8174 1.38375 5.76516 3.63323 3.51472ZM10.3265 21.6672L15.9317 14.0892C16.9857 12.6476 17.5127 11.3056 17.5127 10.0632C17.5127 8.6632 16.9717 7.4484 15.8898 6.4188C15.3879 5.92026 14.7921 5.52638 14.1369 5.26003C13.4816 4.99368 12.7802 4.86016 12.073 4.8672C11.3682 4.85794 10.6689 4.99267 10.018 5.26319C9.36703 5.53369 8.77815 5.93428 8.28736 6.4404C7.78134 6.92717 7.38083 7.51286 7.1107 8.16109C6.84059 8.80931 6.70665 9.50618 6.71722 10.2084C6.7057 10.8618 6.82439 11.5109 7.06638 12.1178C7.30838 12.7248 7.6688 13.2775 8.12662 13.7436C9.07582 14.73 10.199 15.2232 11.496 15.2232C11.5932 15.2232 11.7095 15.216 11.8559 15.2028C12.0022 15.1896 12.1785 15.168 12.386 15.1404L8.54765 20.3472L10.3265 21.6672Z" fill="#99A1AF"/>
<path d="M50.5903 17.76V1.56H48.6294V17.76H50.5903Z" fill="#6A7282"/>
<path d="M77.5124 6.34827V17.76H75.5515V6.34827H77.5124Z" fill="#6A7282"/>
<path d="M75.4039 3.32133C75.4039 3.00492 75.4988 2.73774 75.6886 2.51976C75.8854 2.30179 76.1735 2.19281 76.553 2.19281C76.9255 2.19281 77.2101 2.30179 77.407 2.51976C77.6108 2.73774 77.7127 3.00492 77.7127 3.32133C77.7127 3.62368 77.6108 3.88383 77.407 4.10179C77.2101 4.31274 76.9255 4.41821 76.553 4.41821C76.1735 4.41821 75.8854 4.31274 75.6886 4.10179C75.4988 3.88383 75.4039 3.62368 75.4039 3.32133Z" fill="#6A7282"/>
<path d="M84.7716 7.84595V6.34829H82.642V3.57446H80.6916V6.34829H78.6042V7.84595H80.6916V14.9229C80.6916 15.6823 80.8076 16.287 81.0395 16.737C81.2784 17.1799 81.5982 17.4964 81.9988 17.6862C82.3995 17.876 82.8387 17.971 83.3167 17.971C83.668 17.971 83.9668 17.9464 84.2127 17.8972C84.4658 17.8549 84.6696 17.8092 84.8242 17.76L84.8137 16.1675C84.7223 16.1885 84.5853 16.2167 84.4025 16.2519C84.2269 16.2799 84.0581 16.294 83.8965 16.294C83.6786 16.294 83.4748 16.2624 83.285 16.1991C83.0953 16.1358 82.9407 16.0057 82.8212 15.8088C82.7017 15.612 82.642 15.3202 82.642 14.9334V7.84595H84.7716Z" fill="#6A7282"/>
<path d="M89.2285 17.6369L85.1569 6.34827H87.2864L90.1414 14.8861L92.7896 6.34827H94.8771L90.3016 19.5214C90.1962 19.8025 90.0556 20.1049 89.8799 20.4283C89.7112 20.7588 89.4934 21.0718 89.2263 21.3671C88.9593 21.6624 88.6359 21.9014 88.2564 22.0842C87.8839 22.274 87.4376 22.369 86.9175 22.369C86.7629 22.369 86.5661 22.3478 86.3271 22.3057C86.0881 22.2635 85.9195 22.2283 85.8211 22.2002L85.8106 20.6182C85.8667 20.6252 85.9546 20.6323 86.0741 20.6393C86.2007 20.6533 86.2885 20.6604 86.3376 20.6604C86.7805 20.6604 87.1564 20.6006 87.4658 20.4811C87.775 20.3686 88.035 20.1752 88.2458 19.901C88.4637 19.6338 88.65 19.2647 88.8046 18.7936L89.2285 17.6369Z" fill="#6A7282"/>
<path d="M70.5906 16.083C70.197 16.2728 69.7682 16.3677 69.3044 16.3677C68.7 16.3677 68.1939 16.2518 67.7863 16.0197C67.3857 15.7807 67.0659 15.4643 66.8269 15.0705C66.595 14.6768 66.4298 14.2374 66.3314 13.7522C66.2331 13.2671 66.1839 12.7748 66.1839 12.2756V11.8326C66.1839 11.3334 66.2331 10.8447 66.3314 10.3666C66.4369 9.88147 66.6055 9.44202 66.8375 9.04826C67.0764 8.64749 67.3962 8.33109 67.7969 8.09905C68.2044 7.85999 68.707 7.74046 69.3044 7.74046C69.8245 7.74046 70.2779 7.85647 70.6644 8.0885C71.0579 8.3135 71.3673 8.61584 71.5922 8.99554C71.824 9.37523 71.9575 9.80062 71.9927 10.2717H73.8482C73.813 9.48421 73.6022 8.78109 73.2157 8.16233C72.8362 7.53655 72.3125 7.04436 71.6448 6.68577C70.9772 6.32015 70.1971 6.13733 69.3044 6.13733C68.447 6.13733 67.6985 6.28851 67.0589 6.59085C66.4263 6.8932 65.8993 7.30804 65.4775 7.83538C65.0628 8.36273 64.7501 8.97092 64.5393 9.65999C64.3354 10.342 64.2335 11.0662 64.2335 11.8326V12.2756C64.2335 13.0421 64.3354 13.7697 64.5393 14.4588C64.7501 15.1409 65.0628 15.7455 65.4775 16.2728C65.8993 16.8002 66.4263 17.2151 67.0589 17.5175C67.6985 17.8197 68.447 17.9709 69.3044 17.9709C70.1127 17.9709 70.8541 17.7951 71.5288 17.4435C72.2036 17.085 72.7483 16.6175 73.1629 16.0409C73.5847 15.4573 73.813 14.8279 73.8482 14.1529H71.9927C71.9575 14.5819 71.8135 14.9651 71.5605 15.3025C71.3074 15.633 70.9842 15.8931 70.5906 16.083Z" fill="#6A7282"/>
<path fill-rule="evenodd" clip-rule="evenodd" d="M52.5573 12.1807V11.9381C52.5573 11.1155 52.6767 10.3526 52.9157 9.64944C53.1547 8.93928 53.4991 8.32405 53.9489 7.80373C54.3987 7.27639 54.9434 6.86858 55.583 6.5803C56.2225 6.28499 56.9394 6.13733 57.7336 6.13733C58.5348 6.13733 59.2552 6.28499 59.8948 6.5803C60.5414 6.86858 61.0896 7.27639 61.5394 7.80373C61.9963 8.32405 62.3442 8.93928 62.5831 9.64944C62.822 10.3526 62.9415 11.1155 62.9415 11.9381V12.1807C62.9415 13.0033 62.822 13.7663 62.5831 14.4693C62.3442 15.1725 61.9963 15.7877 61.5394 16.3151C61.0896 16.8354 60.5449 17.2431 59.9054 17.5385C59.2727 17.8268 58.5559 17.9709 57.7547 17.9709C56.9535 17.9709 56.2331 17.8268 55.5935 17.5385C54.954 17.2431 54.4057 16.8354 53.9489 16.3151C53.4991 15.7877 53.1547 15.1725 52.9157 14.4693C52.6767 13.7663 52.5573 13.0033 52.5573 12.1807ZM54.5076 11.9381V12.1807C54.5076 12.7502 54.5744 13.2881 54.7079 13.7943C54.8414 14.2935 55.0418 14.7366 55.3089 15.1232C55.583 15.51 55.9239 15.8159 56.3315 16.0409C56.739 16.2588 57.2136 16.3677 57.7547 16.3677C58.2888 16.3677 58.7562 16.2588 59.1569 16.0409C59.5645 15.8159 59.9019 15.51 60.1689 15.1232C60.436 14.7366 60.6363 14.2935 60.7698 13.7943C60.9104 13.2881 60.9807 12.7502 60.9807 12.1807V11.9381C60.9807 11.3756 60.9104 10.8447 60.7698 10.3455C60.6363 9.83928 60.4324 9.3928 60.1583 9.00608C59.8913 8.61233 59.5539 8.30296 59.1463 8.07796C58.7457 7.85296 58.2748 7.74046 57.7336 7.74046C57.1994 7.74046 56.7286 7.85296 56.3209 8.07796C55.9203 8.30296 55.583 8.61233 55.3089 9.00608C55.0418 9.3928 54.8414 9.83928 54.7079 10.3455C54.5744 10.8447 54.5076 11.3756 54.5076 11.9381Z" fill="#6A7282"/>
<path fill-rule="evenodd" clip-rule="evenodd" d="M42.4036 17.9709C41.6094 17.9709 40.889 17.8374 40.2423 17.5701C39.6028 17.2959 39.051 16.9127 38.5871 16.4205C38.1304 15.9283 37.7789 15.3447 37.5329 14.6697C37.2869 13.9947 37.1639 13.2565 37.1639 12.4549V12.012C37.1639 11.0838 37.301 10.2576 37.5751 9.53342C37.8492 8.80218 38.2217 8.18343 38.6926 7.67718C39.1635 7.17093 39.6976 6.78773 40.2951 6.52757C40.8925 6.26741 41.5109 6.13733 42.1505 6.13733C42.9658 6.13733 43.6687 6.27796 44.259 6.55921C44.8564 6.84046 45.3449 7.23421 45.7244 7.74046C46.1039 8.23968 46.3851 8.8303 46.5679 9.51233C46.7505 10.1873 46.8419 10.9256 46.8419 11.7272V12.6025H39.1267C39.1389 13.0892 39.2121 13.5498 39.3462 13.9842C39.5008 14.4553 39.7222 14.8701 40.0105 15.2287C40.3055 15.5874 40.6605 15.8685 41.0753 16.0725C41.4969 16.2764 41.9749 16.3783 42.509 16.3783C43.1978 16.3783 43.7811 16.2377 44.259 15.9565C44.737 15.6752 45.1551 15.299 45.5135 14.8279L46.6943 15.7667C46.4483 16.1393 46.1356 16.4943 45.756 16.8319C45.3765 17.1693 44.9091 17.4435 44.3538 17.6545C43.8057 17.8655 43.1555 17.9709 42.4036 17.9709ZM39.1838 11.01H44.8916V10.8623C44.8635 10.3561 44.7581 9.86389 44.5753 9.38576C44.3995 8.90765 44.1185 8.51389 43.7319 8.20452C43.3453 7.89515 42.8182 7.74046 42.1505 7.74046C41.7077 7.74046 41.3 7.83538 40.9276 8.02523C40.5552 8.20804 40.2354 8.48225 39.9682 8.84788C39.7011 9.2135 39.4938 9.65999 39.3462 10.1873C39.2748 10.4426 39.2206 10.7168 39.1838 11.01Z" fill="#6A7282"/>
<path d="M31.0013 17.76L26.8687 6.34827H28.8717L31.7691 15.0914L34.5963 6.34827H36.5888L32.4878 17.76H31.0013Z" fill="#6A7282"/>
</g>
<defs>
<clipPath id="clip0_121_4161">
<rect width="95" height="24" fill="white"/>
</clipPath>
</defs>
</svg>
