<svg width="81" height="24" viewBox="0 0 81 24" fill="none" xmlns="http://www.w3.org/2000/svg">
<g clip-path="url(#clip0_121_4173)">
<mask id="mask0_121_4173" style="mask-type:luminance" maskUnits="userSpaceOnUse" x="0" y="0" width="81" height="24">
<path d="M81 0H0V24H81V0Z" fill="white"/>
</mask>
<g mask="url(#mask0_121_4173)">
<path d="M11.1739 18.204C9.91616 17.7108 8.09156 11.7972 9.12783 11.0568C10.1629 10.32 16.2481 12 16.6345 13.0992C17.1087 14.4396 12.4316 18.6972 11.1739 18.204Z" fill="#99A1AF"/>
<path fill-rule="evenodd" clip-rule="evenodd" d="M19.7469 6.62279C21.6642 7.84079 22.8316 10.2384 23.0218 13.3728C23.1734 15.8724 22.6583 18.48 21.6786 20.1744C21.6557 20.2176 21.6317 20.256 21.6076 20.2944C20.723 21.6552 19.1656 22.6644 16.9775 23.2944C14.9483 23.88 12.8781 24 11.4988 24C9.25054 24 7.18161 23.6796 5.67474 23.0988L5.65669 23.0916C3.09911 22.08 1.57419 19.68 1.11684 15.9516C1.11082 15.9348 1.11082 15.918 1.11082 15.9012C0.92066 14.028 0.860481 10.5096 2.60565 8.00279L2.63453 7.96199C3.89106 6.23279 5.90342 5.38679 7.93023 5.00519L4.60838 2.43839C4.32205 2.21736 4.13553 1.89197 4.08981 1.53382C4.06719 1.35648 4.07981 1.17643 4.12697 1.00395C4.17412 0.831474 4.2549 0.669947 4.36466 0.528591C4.58636 0.243113 4.9127 0.0571304 5.27192 0.0115591C5.4498 -0.0110056 5.63038 0.00158071 5.80337 0.0485992C5.97636 0.0956179 6.13837 0.176148 6.28014 0.285591C6.3018 0.302391 6.32587 0.321591 6.34633 0.339591L11.0487 4.46999L14.7268 1.38719C15.0324 1.13131 15.4275 1.00697 15.8251 1.04151C16.2226 1.07605 16.5902 1.26666 16.8469 1.57139C17.1035 1.87613 17.2282 2.27003 17.1935 2.66644C17.1589 3.06286 16.9677 3.42931 16.6621 3.68519C16.614 3.72479 16.5574 3.76559 16.5081 3.79919L14.6353 4.99919C16.6272 5.31119 18.4591 5.86679 19.6626 6.57119L19.7469 6.62279ZM11.4988 21.3504C14.7617 21.3504 18.2593 20.5764 19.3774 18.8532C20.8301 16.3392 20.9264 10.5096 18.3231 8.86199C16.8896 8.02679 13.9686 7.37639 11.1522 7.37639C8.48988 7.37639 6.06229 7.95599 4.93455 9.51599C3.9043 10.9956 3.53119 13.4124 3.75866 15.636C4.02826 17.8596 4.75401 19.89 6.63278 20.6304C7.8544 21.0996 9.63809 21.3504 11.4988 21.3504Z" fill="#99A1AF"/>
<path d="M61.1411 12.9947C61.1411 13.9535 61.0109 14.8042 60.7505 15.547C60.4902 16.2897 60.1129 16.9141 59.6189 17.4205C59.1249 17.9269 58.5273 18.3118 57.8262 18.5752C57.1253 18.8317 56.3342 18.96 55.4528 18.96C54.6316 18.96 53.8772 18.8317 53.1895 18.5752C52.5085 18.3118 51.9143 17.9269 51.407 17.4205C50.8996 16.9141 50.5057 16.2897 50.2252 15.547C49.9515 14.8042 49.8147 13.9535 49.8147 12.9947C49.8147 11.7253 50.0417 10.6518 50.4957 9.77403C50.9563 8.89628 51.6105 8.22784 52.4585 7.76871C53.3131 7.30958 54.3312 7.08002 55.513 7.08002C56.6011 7.08002 57.5693 7.30958 58.4172 7.76871C59.2651 8.22784 59.9293 8.89628 60.41 9.77403C60.8974 10.6518 61.1411 11.7253 61.1411 12.9947ZM53.7904 12.9947C53.7904 13.6497 53.8471 14.2033 53.9606 14.6556C54.0741 15.1013 54.2544 15.4422 54.5015 15.6786C54.7552 15.9082 55.0856 16.0229 55.4929 16.0229C55.9002 16.0229 56.2239 15.9082 56.4643 15.6786C56.7046 15.4422 56.8782 15.1013 56.9851 14.6556C57.0986 14.2033 57.1554 13.6497 57.1554 12.9947C57.1554 12.3397 57.0986 11.7929 56.9851 11.354C56.8782 10.9151 56.7013 10.5843 56.4543 10.3615C56.2139 10.1386 55.8868 10.0272 55.4729 10.0272C54.8787 10.0272 54.4481 10.277 54.181 10.7767C53.9207 11.2763 53.7904 12.0156 53.7904 12.9947Z" fill="#6A7282"/>
<path d="M48.6774 12.9947C48.6774 13.9535 48.5472 14.8042 48.2868 15.547C48.0265 16.2897 47.6493 16.9141 47.1552 17.4205C46.6611 17.9269 46.0636 18.3118 45.3626 18.5752C44.6615 18.8317 43.8704 18.96 42.9892 18.96C42.168 18.96 41.4135 18.8317 40.7259 18.5752C40.0449 18.3118 39.4507 17.9269 38.9433 17.4205C38.4358 16.9141 38.0419 16.2897 37.7615 15.547C37.4878 14.8042 37.351 13.9535 37.351 12.9947C37.351 11.7253 37.5779 10.6518 38.0319 9.77403C38.4927 8.89628 39.1469 8.22784 39.9948 7.76871C40.8494 7.30958 41.8675 7.08002 43.0492 7.08002C44.1375 7.08002 45.1055 7.30958 45.9534 7.76871C46.8014 8.22784 47.4656 8.89628 47.9463 9.77403C48.4337 10.6518 48.6774 11.7253 48.6774 12.9947ZM41.3267 12.9947C41.3267 13.6497 41.3835 14.2033 41.497 14.6556C41.6105 15.1013 41.7907 15.4422 42.0378 15.6786C42.2915 15.9082 42.622 16.0229 43.0291 16.0229C43.4364 16.0229 43.7603 15.9082 44.0005 15.6786C44.2409 15.4422 44.4146 15.1013 44.5213 14.6556C44.6348 14.2033 44.6916 13.6497 44.6916 12.9947C44.6916 12.3397 44.6348 11.7929 44.5213 11.354C44.4146 10.9151 44.2376 10.5843 43.9905 10.3615C43.7502 10.1386 43.4231 10.0272 43.0092 10.0272C42.415 10.0272 41.9843 10.277 41.7173 10.7767C41.4569 11.2763 41.3267 12.0156 41.3267 12.9947Z" fill="#6A7282"/>
<path d="M36.5942 18.7574H27.2006V16.4989L31.8974 10.3108H27.471V7.28253H36.3739V9.73347L31.8774 15.7292H36.5942V18.7574Z" fill="#6A7282"/>
<path d="M74.9297 18.7585L70.7694 7.71851H72.5495L74.9596 14.3968C75.1263 14.8536 75.2963 15.3572 75.4697 15.9079C75.643 16.4584 75.763 16.9017 75.8297 17.2375H75.8996C75.9796 16.9017 76.113 16.4584 76.2997 15.9079C76.4864 15.3505 76.6564 14.8468 76.8097 14.3968L79.2199 7.71851H81L76.8297 18.7585H74.9297Z" fill="#6A7282"/>
<path d="M68.7592 17.5901C69.0326 17.5901 69.3126 17.5665 69.5993 17.5195C69.886 17.4726 70.1193 17.4155 70.2993 17.3483V18.6477C70.106 18.735 69.8359 18.8089 69.4893 18.8694C69.1493 18.9297 68.8159 18.96 68.4892 18.96C67.9092 18.96 67.3824 18.8593 66.9091 18.6578C66.4357 18.4496 66.0557 18.1004 65.7691 17.6102C65.4891 17.12 65.349 16.4418 65.349 15.5755V9.028H63.7889V8.21209L65.359 7.55735L66.019 5.15997H67.0191V7.71852H70.2293V9.028H67.0191V15.5251C67.0191 16.2168 67.1758 16.7339 67.4892 17.0763C67.8092 17.4188 68.2325 17.5901 68.7592 17.5901Z" fill="#6A7282"/>
</g>
</g>
<defs>
<clipPath id="clip0_121_4173">
<rect width="81" height="24" fill="white"/>
</clipPath>
</defs>
</svg>
