<svg width="60" height="24" viewBox="0 0 60 24" fill="none" xmlns="http://www.w3.org/2000/svg">
<g clip-path="url(#clip0_121_4185)">
<path d="M20.9219 0H15.4882C14.2506 0 13.0635 0.490668 12.1884 1.36406C11.3133 2.23746 10.8217 3.42203 10.8217 4.6572V10.08H16.2553C17.493 10.08 18.68 9.58933 19.5551 8.71594C20.4302 7.84254 20.9219 6.65797 20.9219 5.4228V0Z" fill="#99A1AF"/>
<path d="M5.9603 10.08H10.1002V5.94842C10.1002 5.00732 9.72558 4.10478 9.05879 3.43933C8.392 2.77387 7.48765 2.40002 6.54466 2.40002H2.40479V6.53162C2.40479 6.99761 2.49676 7.45903 2.67543 7.88953C2.85411 8.32004 3.11601 8.71122 3.44618 9.04072C3.77633 9.37022 4.16829 9.6316 4.59967 9.80992C5.03103 9.98824 5.49338 10.08 5.9603 10.08Z" fill="#99A1AF"/>
<path d="M4.66653 10.8H10.1002V16.2228C10.1002 17.4579 9.60855 18.6426 8.7334 19.5159C7.85826 20.3893 6.67131 20.88 5.43367 20.88H0V15.4572C0 14.222 0.491651 13.0374 1.3668 12.164C2.24194 11.2907 3.42889 10.8 4.66653 10.8Z" fill="#99A1AF"/>
<path d="M16.9323 24H24.0481V16.8984C24.0481 15.281 23.4043 13.7298 22.2583 12.5862C21.1124 11.4425 19.5581 10.8 17.9375 10.8H10.8217V17.9016C10.8217 19.5189 11.4654 21.0702 12.6114 22.2138C13.7573 23.3575 15.3117 24 16.9323 24Z" fill="#99A1AF"/>
<path d="M35.056 7.47168C35.9638 7.47168 36.6987 6.73501 36.6987 5.82502C36.6987 4.93668 35.9638 4.20001 35.056 4.20001C34.1697 4.20001 33.4347 4.93668 33.4347 5.82502C33.4347 6.73501 34.1697 7.47168 35.056 7.47168Z" fill="#6A7282"/>
<path d="M33.8887 19.54V8.70667H36.2448V19.54H33.8887Z" fill="#6A7282"/>
<path d="M41.1316 10.83C40.5696 9.26999 39.8346 8.44666 38.516 8.44666C37.9324 8.44666 37.5001 8.59832 37.2406 8.77165L37.1542 8.94499L37.5216 10.5917L37.673 10.6567C37.8243 10.5267 38.0405 10.4833 38.2134 10.505C38.5593 10.5267 38.8403 10.8733 39.2078 11.7617L42.4502 19.54H44.2228L48.6756 8.85833L48.5892 8.70666H46.4708L43.3365 16.5934L41.1316 10.83Z" fill="#6A7282"/>
<path fill-rule="evenodd" clip-rule="evenodd" d="M59.8797 19.28L59.5339 17.6767L59.3826 17.6117C59.2961 17.6767 59.188 17.7416 59.0367 17.7416C58.6476 17.7416 58.5395 17.3734 58.5395 16.7884V12.6066C58.5395 9.48666 55.8808 8.44666 53.5462 8.44666C51.6873 8.44666 50.1957 9.11832 49.0284 10.245V10.4183L50.2173 11.545H50.3903C51.1468 10.8083 52.0979 10.2883 53.33 10.2883C54.8216 10.2883 56.2266 11.0467 56.2266 12.6066V13.2133C55.4484 12.9317 54.5406 12.715 53.3733 12.715C50.7145 12.715 48.5529 13.82 48.5529 16.225C48.5529 18.565 50.6064 19.8 52.8329 19.8C54.2596 19.8 55.5998 19.28 56.5292 18.3917C56.8103 19.28 57.5236 19.8 58.4963 19.8C59.0367 19.8 59.4907 19.6483 59.7933 19.4317L59.8797 19.28ZM56.2266 14.8166V15.6184C56.2266 17.135 54.7999 18.0667 53.3085 18.0667C52.0763 18.0667 50.9091 17.46 50.9091 16.225C50.9091 15.055 51.9683 14.3183 53.6759 14.3183C54.7351 14.3183 55.6646 14.6 56.2266 14.8166Z" fill="#6A7282"/>
<path d="M31.0409 4.79999L28.8577 5.12498V17.345C28.8577 18.8399 29.6142 19.8367 31.1058 19.8367C31.6893 19.8367 32.1649 19.685 32.4675 19.4684L32.554 19.3167L32.2082 17.7134L32.0569 17.6483C31.9703 17.7134 31.8624 17.7783 31.6893 17.7783C31.3002 17.7783 31.2138 17.41 31.2138 16.825V4.90832L31.0409 4.79999Z" fill="#6A7282"/>
</g>
<defs>
<clipPath id="clip0_121_4185">
<rect width="60" height="24" fill="white"/>
</clipPath>
</defs>
</svg>
