<svg width="94" height="24" viewBox="0 0 94 24" fill="none" xmlns="http://www.w3.org/2000/svg">
<path d="M1.702 19.9308C3.50078 22.9308 7.82932 23.004 9.62571 19.998C10.1945 19.0459 10.5141 17.9649 10.555 16.8552L10.6123 15.318C10.6123 15.318 7.88307 17.82 6.75794 17.6664C6.37812 17.6148 6.66716 16.9068 6.80452 16.5564C7.32648 15.2364 10.4976 11.9892 10.4976 11.9892C10.4976 11.9892 10.7497 7.38962 11.1976 6.12842C11.4293 5.47562 11.698 5.17682 11.9441 5.05802C12.1901 5.17802 12.4589 5.47562 12.6906 6.12842C13.1385 7.38962 13.3905 11.9892 13.3905 11.9892C13.3905 11.9892 16.5616 15.2292 17.0836 16.5564C17.221 16.9068 17.51 17.6148 17.1302 17.6664C16.0039 17.82 13.2758 15.318 13.2758 15.318L13.3332 16.8552C13.3763 18.0274 13.7305 19.1668 14.3592 20.1552C16.1627 22.9896 20.3491 22.9152 22.1109 20.0556C23.2598 18.1907 23.8748 16.0437 23.8882 13.8504C23.9371 7.33682 18.714 1.91402 12.2307 1.76162C10.0936 1.7102 7.9818 2.236 6.11587 3.28417C4.24993 4.33232 2.69819 5.86441 1.62259 7.72055C0.546995 9.57669 -0.013042 11.6888 0.000926435 13.8366C0.014895 15.9844 0.602357 18.0889 1.702 19.9308Z" fill="#6A7282"/>
<mask id="mask0_121_4134" style="mask-type:luminance" maskUnits="userSpaceOnUse" x="0" y="1" width="24" height="22">
<path d="M1.702 19.9308C3.50078 22.9308 7.82932 23.004 9.62571 19.998C10.1945 19.0459 10.5141 17.9649 10.555 16.8552L10.6123 15.318C10.6123 15.318 7.88307 17.82 6.75794 17.6664C6.37812 17.6148 6.66716 16.9068 6.80452 16.5564C7.32648 15.2364 10.4976 11.9892 10.4976 11.9892C10.4976 11.9892 10.7497 7.38962 11.1976 6.12842C11.4293 5.47562 11.698 5.17682 11.9441 5.05802C12.1901 5.17802 12.4589 5.47562 12.6906 6.12842C13.1385 7.38962 13.3905 11.9892 13.3905 11.9892C13.3905 11.9892 16.5616 15.2292 17.0836 16.5564C17.221 16.9068 17.51 17.6148 17.1302 17.6664C16.0039 17.82 13.2758 15.318 13.2758 15.318L13.3332 16.8552C13.3763 18.0274 13.7305 19.1668 14.3592 20.1552C16.1627 22.9896 20.3491 22.9152 22.1109 20.0556C23.2598 18.1907 23.8748 16.0437 23.8882 13.8504C23.9371 7.33682 18.714 1.91402 12.2307 1.76162C10.0936 1.7102 7.9818 2.236 6.11587 3.28417C4.24993 4.33232 2.69819 5.86441 1.62259 7.72055C0.546995 9.57669 -0.013042 11.6888 0.000926435 13.8366C0.014895 15.9844 0.602357 18.0889 1.702 19.9308Z" fill="white"/>
</mask>
<g mask="url(#mask0_121_4134)">
<path d="M1.702 19.9308C3.50078 22.9308 7.82932 23.004 9.62571 19.998C10.1945 19.0459 10.5141 17.9649 10.555 16.8552L10.6123 15.318C10.6123 15.318 7.88307 17.82 6.75794 17.6664C6.37812 17.6148 6.66716 16.9068 6.80452 16.5564C7.32648 15.2364 10.4976 11.9892 10.4976 11.9892C10.4976 11.9892 10.7497 7.38962 11.1976 6.12842C11.4293 5.47562 11.698 5.17682 11.9441 5.05802C12.1901 5.17802 12.4589 5.47562 12.6906 6.12842C13.1385 7.38962 13.3905 11.9892 13.3905 11.9892C13.3905 11.9892 16.5616 15.2292 17.0836 16.5564C17.221 16.9068 17.51 17.6148 17.1302 17.6664C16.0039 17.82 13.2758 15.318 13.2758 15.318L13.3332 16.8552C13.3763 18.0274 13.7305 19.1668 14.3592 20.1552C16.1627 22.9896 20.3491 22.9152 22.1109 20.0556C23.2598 18.1907 23.8748 16.0437 23.8882 13.8504C23.9371 7.33682 18.714 1.91402 12.2307 1.76162C10.0936 1.7102 7.9818 2.236 6.11587 3.28417C4.24993 4.33232 2.69819 5.86441 1.62259 7.72055C0.546995 9.57669 -0.013042 11.6888 0.000926435 13.8366C0.014895 15.9844 0.602357 18.0889 1.702 19.9308Z" fill="#99A1AF"/>
</g>
<path d="M34.5806 10.4736H37.5499V7.20003H34.5806V3.50403L31.1908 4.53363V7.20003H28.9047V10.4736H31.1908V15.9648C31.1908 19.5288 32.7937 20.928 37.5499 20.4V17.3112C35.6054 17.4168 34.5806 17.3904 34.5806 15.9648V10.4736Z" fill="#6A7282"/>
<path fill-rule="evenodd" clip-rule="evenodd" d="M54.0164 17.6808C52.2296 17.6808 50.7844 16.9416 50.3114 15.1992H60.2178C60.2966 14.7504 60.3492 14.3016 60.3492 13.8C60.3492 9.91918 57.5901 6.83038 53.7011 6.83038C49.5756 6.83038 46.764 9.86638 46.764 13.8C46.764 17.7336 49.5493 20.7696 53.9639 20.7696C56.4865 20.7696 58.4572 19.74 59.6923 17.9448L56.9595 16.3608C56.3814 17.1264 55.3303 17.6808 54.0164 17.6808ZM56.9595 12.5592H50.2588C50.653 10.8696 51.888 9.89278 53.7011 9.89278C55.1201 9.89278 56.539 10.6584 56.9595 12.5592Z" fill="#6A7282"/>
<path fill-rule="evenodd" clip-rule="evenodd" d="M87.4986 7.19998H84.1089V8.75758C83.1629 7.56958 81.744 6.83038 79.8257 6.83038C76.3309 6.83038 73.4404 9.86638 73.4404 13.8C73.4404 17.7336 76.3309 20.7696 79.8257 20.7696C81.744 20.7696 83.1629 20.0304 84.1089 18.8424V20.4H87.4986V7.19998ZM84.1089 13.8C84.1089 16.0176 82.5585 17.5224 80.4564 17.5224C78.3805 17.5224 76.8302 16.0176 76.8302 13.8C76.8302 11.5824 78.3805 10.0776 80.4564 10.0776C82.5585 10.0776 84.1089 11.5824 84.1089 13.8Z" fill="#6A7282"/>
<path d="M89.5214 18.4992C89.5214 19.74 90.5199 20.7432 91.7549 20.7432C92.9899 20.7432 93.9885 19.74 93.9885 18.4992C93.9885 17.2584 92.9899 16.2552 91.7549 16.2552C90.5199 16.2552 89.5214 17.2584 89.5214 18.4992Z" fill="#6A7282"/>
<path d="M70.0593 7.20001H73.7906L68.798 20.4H64.9353L59.9426 7.20001H63.674L66.8535 16.44L70.0593 7.20001Z" fill="#6A7282"/>
<path d="M42.7466 9.47037C43.4298 7.67517 45.0853 6.93597 46.7407 6.93597V10.7376C44.9802 10.5264 42.7466 11.3184 42.7466 14.0904V20.4H39.3569V7.19997H42.7466V9.47037Z" fill="#6A7282"/>
</svg>
