<svg width="94" height="24" viewBox="0 0 94 24" fill="none" xmlns="http://www.w3.org/2000/svg">
<g clip-path="url(#clip0_121_4117)">
<mask id="mask0_121_4117" style="mask-type:luminance" maskUnits="userSpaceOnUse" x="0" y="0" width="94" height="24">
<path d="M94 0H0V24H94V0Z" fill="white"/>
</mask>
<g mask="url(#mask0_121_4117)">
<mask id="mask1_121_4117" style="mask-type:luminance" maskUnits="userSpaceOnUse" x="0" y="0" width="25" height="24">
<path d="M24.1025 24V0L-2.47955e-05 0V24H24.1025Z" fill="white"/>
</mask>
<g mask="url(#mask1_121_4117)">
<path d="M4.0392e-07 1.00478e-07C-0.000826554 3.18216 1.26817 6.23431 3.52783 8.48509C5.7875 10.7359 8.85275 12.001 12.0493 12.0019V1.00478e-07H4.0392e-07ZM12.0493 12.0019H24.1026V1.00478e-07C22.5194 -0.000203863 20.9516 0.31012 19.489 0.91324C18.0264 1.51636 16.6974 2.40046 15.5781 3.51502C14.4588 4.62959 13.5709 5.95278 12.9655 7.40899C12.36 8.8652 12.0487 10.4259 12.0493 12.0019ZM12.0493 12.0019V24H24.1026C24.1027 22.4243 23.7909 20.864 23.1852 19.4082C22.5795 17.9525 21.6917 16.6297 20.5724 15.5156C19.4532 14.4014 18.1244 13.5176 16.662 12.9148C15.1996 12.3119 13.6322 12.0017 12.0493 12.0019ZM12.0493 12.0019H4.0392e-07V24C3.19604 23.9994 6.26094 22.735 8.52058 20.485C10.7802 18.235 12.0495 15.1836 12.0493 12.0019Z" fill="#99A1AF"/>
</g>
<path d="M93.8823 3.8822V19.5971H92.0817V3.8822H93.8823Z" fill="#6A7282"/>
<path d="M84.4819 19.7658C83.3732 19.7658 82.4446 19.481 81.6961 18.9115C80.9547 18.342 80.584 17.5018 80.584 16.3908C80.584 15.751 80.7076 15.2306 80.9547 14.8298C81.2089 14.429 81.5444 14.1162 81.961 13.8912C82.3846 13.6591 82.8613 13.4833 83.3909 13.3638C83.9275 13.2443 84.4748 13.1494 85.0327 13.079C85.7459 12.9806 86.3072 12.9068 86.7167 12.8575C87.1263 12.8083 87.4158 12.7274 87.5852 12.615C87.7618 12.5026 87.8501 12.3056 87.8501 12.0244V11.9189C87.8501 11.3142 87.6312 10.815 87.1934 10.4213C86.7626 10.0275 86.1553 9.83063 85.3715 9.83063C84.5948 9.83063 83.9558 10.0205 83.4544 10.4002C82.9602 10.7728 82.6918 11.2369 82.6494 11.7923H80.817C80.8523 11.1103 81.0642 10.5056 81.4526 9.97828C81.8409 9.4439 82.3705 9.02203 83.0413 8.71266C83.7122 8.40328 84.4889 8.2486 85.3715 8.2486C86.6779 8.2486 87.7124 8.5861 88.475 9.2611C89.2447 9.92906 89.6295 10.815 89.6295 11.9189V19.5971H87.8501V18.015H87.8077C87.6736 18.2822 87.4758 18.5528 87.2145 18.8272C86.9533 19.0943 86.6003 19.3193 86.1554 19.5022C85.7175 19.6778 85.1598 19.7658 84.4819 19.7658ZM84.7361 18.1626C85.4705 18.1626 86.0671 18.0325 86.526 17.7725C86.9851 17.5052 87.3205 17.1607 87.5323 16.7388C87.7442 16.317 87.8501 15.8634 87.8501 15.3782V13.9861C87.7159 14.1126 87.3593 14.2286 86.7803 14.3341C86.2013 14.4325 85.5905 14.5274 84.9479 14.6189C84.5171 14.6752 84.1076 14.7736 83.7192 14.9142C83.3379 15.0478 83.0272 15.2412 82.7871 15.4943C82.5471 15.7404 82.427 16.0744 82.427 16.4963C82.427 17.0166 82.6318 17.4244 83.0413 17.7197C83.4579 18.015 84.0229 18.1626 84.7361 18.1626Z" fill="#6A7282"/>
<path d="M70.5904 24.0056V22.4236H71.692C72.3556 22.4236 72.8606 21.9772 73.2066 21.0841L73.821 19.5022L69.4888 8.45953H71.4377L73.8527 14.8721C74.008 15.2869 74.1598 15.7052 74.3082 16.1272C74.4635 16.542 74.6118 16.9568 74.753 17.3717C74.9012 16.9568 75.0496 16.542 75.1978 16.1272C75.3532 15.7052 75.5086 15.2869 75.664 14.8721L78.0365 8.45953H79.9536L74.7954 21.6642C74.5058 22.4095 74.0927 22.9861 73.5561 23.3939C73.0194 23.8018 72.3981 24.0056 71.692 24.0056H70.5904Z" fill="#6A7282"/>
<path d="M66.2526 19.5971V8.45956H68.0532V19.5971H66.2526ZM67.153 6.2869C66.814 6.2869 66.5245 6.16737 66.2845 5.9283C66.0443 5.68925 65.9243 5.40096 65.9243 5.06346C65.9243 4.72596 66.0443 4.43769 66.2845 4.19862C66.5245 3.95956 66.814 3.84003 67.153 3.84003C67.4919 3.84003 67.7814 3.95956 68.0215 4.19862C68.2616 4.43769 68.3816 4.72596 68.3816 5.06346C68.3816 5.40096 68.2616 5.68925 68.0215 5.9283C67.7814 6.16737 67.4919 6.2869 67.153 6.2869Z" fill="#6A7282"/>
<path d="M58.4833 19.8079C57.516 19.8079 56.665 19.5654 55.9306 19.0802C55.2033 18.588 54.6385 17.9095 54.236 17.0447C53.8335 16.1728 53.6322 15.1674 53.6322 14.0282C53.6322 12.8822 53.8335 11.8767 54.236 11.0119C54.6385 10.14 55.2033 9.46149 55.9306 8.97633C56.665 8.49119 57.516 8.24861 58.4833 8.24861C59.2106 8.24861 59.885 8.40329 60.5064 8.71267C61.1277 9.01501 61.6186 9.47907 61.9787 10.1049H61.9999V3.8822H63.8005V19.5971H62.0422V17.9095H62.0211C61.6186 18.5494 61.1101 19.0275 60.4958 19.3439C59.8815 19.6533 59.2106 19.8079 58.4833 19.8079ZM58.7587 18.1943C59.7968 18.1943 60.6194 17.8146 61.2267 17.0552C61.8409 16.2959 62.1481 15.2869 62.1481 14.0282C62.1481 12.7697 61.8409 11.7607 61.2267 11.0013C60.6194 10.2349 59.7968 9.85173 58.7587 9.85173C57.7913 9.85173 56.9969 10.2068 56.3756 10.917C55.7612 11.6271 55.454 12.6642 55.454 14.0282C55.454 15.3924 55.7612 16.4294 56.3756 17.1396C56.9969 17.8427 57.7913 18.1943 58.7587 18.1943Z" fill="#6A7282"/>
<path d="M46.6042 19.7658C45.4956 19.7658 44.5671 19.481 43.8186 18.9115C43.0771 18.342 42.7064 17.5018 42.7064 16.3908C42.7064 15.751 42.8299 15.2306 43.0771 14.8298C43.3313 14.429 43.6667 14.1162 44.0833 13.8912C44.5069 13.6591 44.9837 13.4833 45.5132 13.3638C46.0499 13.2443 46.5971 13.1494 47.155 13.079C47.8682 12.9806 48.4295 12.9068 48.8391 12.8575C49.2486 12.8083 49.5382 12.7274 49.7077 12.615C49.8842 12.5026 49.9724 12.3056 49.9724 12.0244V11.9189C49.9724 11.3142 49.7536 10.815 49.3158 10.4213C48.8851 10.0275 48.2778 9.83063 47.494 9.83063C46.7171 9.83063 46.0782 10.0205 45.5767 10.4002C45.0825 10.7728 44.8141 11.2369 44.7718 11.7923H42.9394C42.9747 11.1103 43.1865 10.5056 43.5749 9.97828C43.9633 9.4439 44.4928 9.02203 45.1637 8.71266C45.8345 8.40328 46.6112 8.2486 47.494 8.2486C48.8002 8.2486 49.8347 8.5861 50.5974 9.2611C51.367 9.92906 51.7519 10.815 51.7519 11.9189V19.5971H49.9724V18.015H49.93C49.7959 18.2822 49.5982 18.5528 49.337 18.8272C49.0757 19.0943 48.7226 19.3193 48.2778 19.5022C47.84 19.6778 47.2821 19.7658 46.6042 19.7658ZM46.8584 18.1626C47.5928 18.1626 48.1894 18.0325 48.6485 17.7725C49.1074 17.5052 49.4429 17.1607 49.6546 16.7388C49.8665 16.317 49.9724 15.8634 49.9724 15.3782V13.9861C49.8383 14.1126 49.4817 14.2286 48.9026 14.3341C48.3236 14.4325 47.7128 14.5274 47.0702 14.6189C46.6395 14.6752 46.2299 14.7736 45.8416 14.9142C45.4603 15.0478 45.1496 15.2412 44.9095 15.4943C44.6694 15.7404 44.5494 16.0744 44.5494 16.4963C44.5494 17.0166 44.7541 17.4244 45.1637 17.7197C45.5803 18.015 46.1452 18.1626 46.8584 18.1626Z" fill="#6A7282"/>
<path d="M30.1282 19.5971V3.8822H35.9856C37.6309 3.8822 38.9336 4.31111 39.894 5.16891C40.8613 6.0197 41.3451 7.17985 41.3451 8.64938C41.3451 9.76735 41.0415 10.7131 40.4343 11.4865C39.834 12.2599 39.0185 12.8049 37.9875 13.1213L41.5357 19.5971H39.3114L35.9856 13.4272C35.9361 13.4272 35.8867 13.4272 35.8373 13.4272H32.0347V19.5971H30.1282ZM32.0347 11.7396H35.9432C37.0377 11.7396 37.8956 11.4654 38.517 10.917C39.1455 10.3615 39.4598 9.60564 39.4598 8.64938C39.4598 7.69314 39.142 6.94079 38.5064 6.39235C37.8781 5.84391 37.0165 5.5697 35.922 5.5697H32.0347V11.7396Z" fill="#6A7282"/>
</g>
</g>
<defs>
<clipPath id="clip0_121_4117">
<rect width="94" height="24" fill="white"/>
</clipPath>
</defs>
</svg>
